<?xml version="1.0" encoding="utf-8"?>
<svg xmlns="http://www.w3.org/2000/svg" xmlns:xlink="http://www.w3.org/1999/xlink" width="600" height="400" viewBox="0 0 2400 1600">
<defs>
  <clipPath id="clip810">
    <rect x="0" y="0" width="2400" height="1600"/>
  </clipPath>
</defs>
<path clip-path="url(#clip810)" d="
M0 1600 L2400 1600 L2400 0 L0 0  Z
  " fill="#ffffff" fill-rule="evenodd" fill-opacity="1"/>
<defs>
  <clipPath id="clip811">
    <rect x="480" y="0" width="1681" height="1600"/>
  </clipPath>
</defs>
<path clip-path="url(#clip810)" d="
M242.916 1423.18 L2352.76 1423.18 L2352.76 183.952 L242.916 183.952  Z
  " fill="#ffffff" fill-rule="evenodd" fill-opacity="1"/>
<defs>
  <clipPath id="clip812">
    <rect x="242" y="183" width="2111" height="1240"/>
  </clipPath>
</defs>
<polyline clip-path="url(#clip812)" style="stroke:#000000; stroke-width:2; stroke-opacity:0.1; fill:none" points="
  302.628,1423.18 302.628,183.952 
  "/>
<polyline clip-path="url(#clip812)" style="stroke:#000000; stroke-width:2; stroke-opacity:0.1; fill:none" points="
  871.318,1423.18 871.318,183.952 
  "/>
<polyline clip-path="url(#clip812)" style="stroke:#000000; stroke-width:2; stroke-opacity:0.1; fill:none" points="
  1440.01,1423.18 1440.01,183.952 
  "/>
<polyline clip-path="url(#clip812)" style="stroke:#000000; stroke-width:2; stroke-opacity:0.1; fill:none" points="
  2008.7,1423.18 2008.7,183.952 
  "/>
<polyline clip-path="url(#clip810)" style="stroke:#000000; stroke-width:4; stroke-opacity:1; fill:none" points="
  242.916,1423.18 2352.76,1423.18 
  "/>
<polyline clip-path="url(#clip810)" style="stroke:#000000; stroke-width:4; stroke-opacity:1; fill:none" points="
  302.628,1423.18 302.628,1408.31 
  "/>
<polyline clip-path="url(#clip810)" style="stroke:#000000; stroke-width:4; stroke-opacity:1; fill:none" points="
  871.318,1423.18 871.318,1408.31 
  "/>
<polyline clip-path="url(#clip810)" style="stroke:#000000; stroke-width:4; stroke-opacity:1; fill:none" points="
  1440.01,1423.18 1440.01,1408.31 
  "/>
<polyline clip-path="url(#clip810)" style="stroke:#000000; stroke-width:4; stroke-opacity:1; fill:none" points="
  2008.7,1423.18 2008.7,1408.31 
  "/>
<path clip-path="url(#clip810)" d="M 0 0 M302.628 1452.37 Q299.017 1452.37 297.189 1455.94 Q295.383 1459.48 295.383 1466.61 Q295.383 1473.71 297.189 1477.28 Q299.017 1480.82 302.628 1480.82 Q306.263 1480.82 308.068 1477.28 Q309.897 1473.71 309.897 1466.61 Q309.897 1459.48 308.068 1455.94 Q306.263 1452.37 302.628 1452.37 M302.628 1448.67 Q308.439 1448.67 311.494 1453.27 Q314.573 1457.86 314.573 1466.61 Q314.573 1475.33 311.494 1479.94 Q308.439 1484.52 302.628 1484.52 Q296.818 1484.52 293.74 1479.94 Q290.684 1475.33 290.684 1466.61 Q290.684 1457.86 293.74 1453.27 Q296.818 1448.67 302.628 1448.67 Z" fill="#000000" fill-rule="evenodd" fill-opacity="1" /><path clip-path="url(#clip810)" d="M 0 0 M848.194 1479.92 L855.832 1479.92 L855.832 1453.55 L847.522 1455.22 L847.522 1450.96 L855.786 1449.29 L860.462 1449.29 L860.462 1479.92 L868.101 1479.92 L868.101 1483.85 L848.194 1483.85 L848.194 1479.92 Z" fill="#000000" fill-rule="evenodd" fill-opacity="1" /><path clip-path="url(#clip810)" d="M 0 0 M883.17 1452.37 Q879.559 1452.37 877.73 1455.94 Q875.925 1459.48 875.925 1466.61 Q875.925 1473.71 877.73 1477.28 Q879.559 1480.82 883.17 1480.82 Q886.804 1480.82 888.61 1477.28 Q890.439 1473.71 890.439 1466.61 Q890.439 1459.48 888.61 1455.94 Q886.804 1452.37 883.17 1452.37 M883.17 1448.67 Q888.98 1448.67 892.036 1453.27 Q895.115 1457.86 895.115 1466.61 Q895.115 1475.33 892.036 1479.94 Q888.98 1484.52 883.17 1484.52 Q877.36 1484.52 874.281 1479.94 Q871.226 1475.33 871.226 1466.61 Q871.226 1457.86 874.281 1453.27 Q877.36 1448.67 883.17 1448.67 Z" fill="#000000" fill-rule="evenodd" fill-opacity="1" /><path clip-path="url(#clip810)" d="M 0 0 M1421.15 1479.92 L1437.47 1479.92 L1437.47 1483.85 L1415.53 1483.85 L1415.53 1479.92 Q1418.19 1477.16 1422.77 1472.53 Q1427.38 1467.88 1428.56 1466.54 Q1430.81 1464.01 1431.69 1462.28 Q1432.59 1460.52 1432.59 1458.83 Q1432.59 1456.07 1430.65 1454.34 Q1428.72 1452.6 1425.62 1452.6 Q1423.42 1452.6 1420.97 1453.37 Q1418.54 1454.13 1415.76 1455.68 L1415.76 1450.96 Q1418.58 1449.82 1421.04 1449.25 Q1423.49 1448.67 1425.53 1448.67 Q1430.9 1448.67 1434.09 1451.35 Q1437.29 1454.04 1437.29 1458.53 Q1437.29 1460.66 1436.48 1462.58 Q1435.69 1464.48 1433.58 1467.07 Q1433.01 1467.74 1429.9 1470.96 Q1426.8 1474.15 1421.15 1479.92 Z" fill="#000000" fill-rule="evenodd" fill-opacity="1" /><path clip-path="url(#clip810)" d="M 0 0 M1452.54 1452.37 Q1448.93 1452.37 1447.1 1455.94 Q1445.3 1459.48 1445.3 1466.61 Q1445.3 1473.71 1447.1 1477.28 Q1448.93 1480.82 1452.54 1480.82 Q1456.18 1480.82 1457.98 1477.28 Q1459.81 1473.71 1459.81 1466.61 Q1459.81 1459.48 1457.98 1455.94 Q1456.18 1452.37 1452.54 1452.37 M1452.54 1448.67 Q1458.35 1448.67 1461.41 1453.27 Q1464.49 1457.86 1464.49 1466.61 Q1464.49 1475.33 1461.41 1479.94 Q1458.35 1484.52 1452.54 1484.52 Q1446.73 1484.52 1443.65 1479.94 Q1440.6 1475.33 1440.6 1466.61 Q1440.6 1457.86 1443.65 1453.27 Q1446.73 1448.67 1452.54 1448.67 Z" fill="#000000" fill-rule="evenodd" fill-opacity="1" /><path clip-path="url(#clip810)" d="M 0 0 M1999.44 1465.22 Q2002.8 1465.94 2004.67 1468.2 Q2006.57 1470.47 2006.57 1473.81 Q2006.57 1478.92 2003.05 1481.72 Q1999.53 1484.52 1993.05 1484.52 Q1990.87 1484.52 1988.56 1484.08 Q1986.27 1483.67 1983.81 1482.81 L1983.81 1478.3 Q1985.76 1479.43 1988.07 1480.01 Q1990.39 1480.59 1992.91 1480.59 Q1997.31 1480.59 1999.6 1478.85 Q2001.92 1477.12 2001.92 1473.81 Q2001.92 1470.75 1999.76 1469.04 Q1997.63 1467.3 1993.81 1467.3 L1989.79 1467.3 L1989.79 1463.46 L1994 1463.46 Q1997.45 1463.46 1999.28 1462.09 Q2001.11 1460.7 2001.11 1458.11 Q2001.11 1455.45 1999.21 1454.04 Q1997.33 1452.6 1993.81 1452.6 Q1991.89 1452.6 1989.69 1453.02 Q1987.49 1453.44 1984.86 1454.31 L1984.86 1450.15 Q1987.52 1449.41 1989.83 1449.04 Q1992.17 1448.67 1994.23 1448.67 Q1999.55 1448.67 2002.66 1451.1 Q2005.76 1453.5 2005.76 1457.63 Q2005.76 1460.5 2004.12 1462.49 Q2002.47 1464.45 1999.44 1465.22 Z" fill="#000000" fill-rule="evenodd" fill-opacity="1" /><path clip-path="url(#clip810)" d="M 0 0 M2021.64 1452.37 Q2018.03 1452.37 2016.2 1455.94 Q2014.39 1459.48 2014.39 1466.61 Q2014.39 1473.71 2016.2 1477.28 Q2018.03 1480.82 2021.64 1480.82 Q2025.27 1480.82 2027.08 1477.28 Q2028.91 1473.71 2028.91 1466.61 Q2028.91 1459.48 2027.08 1455.94 Q2025.27 1452.37 2021.64 1452.37 M2021.64 1448.67 Q2027.45 1448.67 2030.5 1453.27 Q2033.58 1457.86 2033.58 1466.61 Q2033.58 1475.33 2030.5 1479.94 Q2027.45 1484.52 2021.64 1484.52 Q2015.83 1484.52 2012.75 1479.94 Q2009.69 1475.33 2009.69 1466.61 Q2009.69 1457.86 2012.75 1453.27 Q2015.83 1448.67 2021.64 1448.67 Z" fill="#000000" fill-rule="evenodd" fill-opacity="1" /><path clip-path="url(#clip810)" d="M 0 0 M788.579 1520.52 L795.009 1520.52 L795.009 1540 L818.371 1540 L818.371 1520.52 L824.8 1520.52 L824.8 1568.04 L818.371 1568.04 L818.371 1545.41 L795.009 1545.41 L795.009 1568.04 L788.579 1568.04 L788.579 1520.52 Z" fill="#000000" fill-rule="evenodd" fill-opacity="1" /><path clip-path="url(#clip810)" d="M 0 0 M844.757 1536.5 Q840.046 1536.5 837.309 1540.19 Q834.572 1543.85 834.572 1550.25 Q834.572 1556.65 837.277 1560.34 Q840.014 1564 844.757 1564 Q849.436 1564 852.173 1560.31 Q854.91 1556.62 854.91 1550.25 Q854.91 1543.92 852.173 1540.23 Q849.436 1536.5 844.757 1536.5 M844.757 1531.54 Q852.396 1531.54 856.756 1536.5 Q861.117 1541.47 861.117 1550.25 Q861.117 1559 856.756 1564 Q852.396 1568.97 844.757 1568.97 Q837.086 1568.97 832.726 1564 Q828.397 1559 828.397 1550.25 Q828.397 1541.47 832.726 1536.5 Q837.086 1531.54 844.757 1531.54 Z" fill="#000000" fill-rule="evenodd" fill-opacity="1" /><path clip-path="url(#clip810)" d="M 0 0 M881.073 1536.5 Q876.362 1536.5 873.625 1540.19 Q870.888 1543.85 870.888 1550.25 Q870.888 1556.65 873.593 1560.34 Q876.331 1564 881.073 1564 Q885.752 1564 888.489 1560.31 Q891.226 1556.62 891.226 1550.25 Q891.226 1543.92 888.489 1540.23 Q885.752 1536.5 881.073 1536.5 M881.073 1531.54 Q888.712 1531.54 893.072 1536.5 Q897.433 1541.47 897.433 1550.25 Q897.433 1559 893.072 1564 Q888.712 1568.97 881.073 1568.97 Q873.402 1568.97 869.042 1564 Q864.713 1559 864.713 1550.25 Q864.713 1541.47 869.042 1536.5 Q873.402 1531.54 881.073 1531.54 Z" fill="#000000" fill-rule="evenodd" fill-opacity="1" /><path clip-path="url(#clip810)" d="M 0 0 M903.353 1518.52 L909.241 1518.52 L909.241 1547.77 L926.715 1532.4 L934.195 1532.4 L915.289 1549.07 L934.991 1568.04 L927.352 1568.04 L909.241 1550.63 L909.241 1568.04 L903.353 1568.04 L903.353 1518.52 Z" fill="#000000" fill-rule="evenodd" fill-opacity="1" /><path clip-path="url(#clip810)" d="M 0 0 M969.302 1548.76 L969.302 1551.62 L942.375 1551.62 Q942.757 1557.67 946.003 1560.85 Q949.282 1564 955.106 1564 Q958.48 1564 961.631 1563.17 Q964.814 1562.35 967.933 1560.69 L967.933 1566.23 Q964.782 1567.57 961.472 1568.27 Q958.162 1568.97 954.756 1568.97 Q946.226 1568.97 941.229 1564 Q936.264 1559.04 936.264 1550.57 Q936.264 1541.82 940.974 1536.69 Q945.717 1531.54 953.738 1531.54 Q960.931 1531.54 965.1 1536.18 Q969.302 1540.8 969.302 1548.76 M963.445 1547.04 Q963.382 1542.23 960.74 1539.37 Q958.13 1536.5 953.801 1536.5 Q948.9 1536.5 945.94 1539.27 Q943.011 1542.04 942.566 1547.07 L963.445 1547.04 Z" fill="#000000" fill-rule="evenodd" fill-opacity="1" /><path clip-path="url(#clip810)" d="M 0 0 M972.485 1547.58 L989.64 1547.58 L989.64 1552.8 L972.485 1552.8 L972.485 1547.58 Z" fill="#000000" fill-rule="evenodd" fill-opacity="1" /><path clip-path="url(#clip810)" d="M 0 0 M999.666 1520.52 L1006.1 1520.52 L1006.1 1564.73 Q1006.1 1573.33 1002.82 1577.21 Q999.571 1581.09 992.346 1581.09 L989.895 1581.09 L989.895 1575.68 L991.9 1575.68 Q996.165 1575.68 997.916 1573.3 Q999.666 1570.91 999.666 1564.73 L999.666 1520.52 Z" fill="#000000" fill-rule="evenodd" fill-opacity="1" /><path clip-path="url(#clip810)" d="M 0 0 M1042.73 1548.76 L1042.73 1551.62 L1015.8 1551.62 Q1016.19 1557.67 1019.43 1560.85 Q1022.71 1564 1028.53 1564 Q1031.91 1564 1035.06 1563.17 Q1038.24 1562.35 1041.36 1560.69 L1041.36 1566.23 Q1038.21 1567.57 1034.9 1568.27 Q1031.59 1568.97 1028.18 1568.97 Q1019.65 1568.97 1014.66 1564 Q1009.69 1559.04 1009.69 1550.57 Q1009.69 1541.82 1014.4 1536.69 Q1019.15 1531.54 1027.17 1531.54 Q1034.36 1531.54 1038.53 1536.18 Q1042.73 1540.8 1042.73 1548.76 M1036.87 1547.04 Q1036.81 1542.23 1034.17 1539.37 Q1031.56 1536.5 1027.23 1536.5 Q1022.33 1536.5 1019.37 1539.27 Q1016.44 1542.04 1015.99 1547.07 L1036.87 1547.04 Z" fill="#000000" fill-rule="evenodd" fill-opacity="1" /><path clip-path="url(#clip810)" d="M 0 0 M1079.36 1548.76 L1079.36 1551.62 L1052.44 1551.62 Q1052.82 1557.67 1056.07 1560.85 Q1059.34 1564 1065.17 1564 Q1068.54 1564 1071.69 1563.17 Q1074.88 1562.35 1078 1560.69 L1078 1566.23 Q1074.85 1567.57 1071.54 1568.27 Q1068.22 1568.97 1064.82 1568.97 Q1056.29 1568.97 1051.29 1564 Q1046.33 1559.04 1046.33 1550.57 Q1046.33 1541.82 1051.04 1536.69 Q1055.78 1531.54 1063.8 1531.54 Q1070.99 1531.54 1075.16 1536.18 Q1079.36 1540.8 1079.36 1548.76 M1073.51 1547.04 Q1073.44 1542.23 1070.8 1539.37 Q1068.19 1536.5 1063.86 1536.5 Q1058.96 1536.5 1056 1539.27 Q1053.07 1542.04 1052.63 1547.07 L1073.51 1547.04 Z" fill="#000000" fill-rule="evenodd" fill-opacity="1" /><path clip-path="url(#clip810)" d="M 0 0 M1081.31 1532.4 L1087.51 1532.4 L1098.65 1562.31 L1109.79 1532.4 L1116 1532.4 L1102.63 1568.04 L1094.67 1568.04 L1081.31 1532.4 Z" fill="#000000" fill-rule="evenodd" fill-opacity="1" /><path clip-path="url(#clip810)" d="M 0 0 M1152.63 1548.76 L1152.63 1551.62 L1125.71 1551.62 Q1126.09 1557.67 1129.34 1560.85 Q1132.61 1564 1138.44 1564 Q1141.81 1564 1144.96 1563.17 Q1148.15 1562.35 1151.27 1560.69 L1151.27 1566.23 Q1148.11 1567.57 1144.8 1568.27 Q1141.49 1568.97 1138.09 1568.97 Q1129.56 1568.97 1124.56 1564 Q1119.6 1559.04 1119.6 1550.57 Q1119.6 1541.82 1124.31 1536.69 Q1129.05 1531.54 1137.07 1531.54 Q1144.26 1531.54 1148.43 1536.18 Q1152.63 1540.8 1152.63 1548.76 M1146.78 1547.04 Q1146.71 1542.23 1144.07 1539.37 Q1141.46 1536.5 1137.13 1536.5 Q1132.23 1536.5 1129.27 1539.27 Q1126.34 1542.04 1125.9 1547.07 L1146.78 1547.04 Z" fill="#000000" fill-rule="evenodd" fill-opacity="1" /><path clip-path="url(#clip810)" d="M 0 0 M1181.5 1533.45 L1181.5 1538.98 Q1179.02 1537.71 1176.35 1537.07 Q1173.67 1536.44 1170.81 1536.44 Q1166.45 1536.44 1164.25 1537.77 Q1162.09 1539.11 1162.09 1541.79 Q1162.09 1543.82 1163.65 1545 Q1165.21 1546.15 1169.92 1547.2 L1171.92 1547.64 Q1178.16 1548.98 1180.77 1551.43 Q1183.41 1553.85 1183.41 1558.21 Q1183.41 1563.17 1179.47 1566.07 Q1175.55 1568.97 1168.68 1568.97 Q1165.81 1568.97 1162.69 1568.39 Q1159.6 1567.85 1156.17 1566.74 L1156.17 1560.69 Q1159.41 1562.38 1162.56 1563.24 Q1165.72 1564.07 1168.8 1564.07 Q1172.94 1564.07 1175.17 1562.66 Q1177.4 1561.23 1177.4 1558.65 Q1177.4 1556.27 1175.77 1554.99 Q1174.18 1553.72 1168.74 1552.54 L1166.7 1552.07 Q1161.26 1550.92 1158.84 1548.56 Q1156.42 1546.18 1156.42 1542.04 Q1156.42 1537.01 1159.99 1534.27 Q1163.55 1531.54 1170.11 1531.54 Q1173.35 1531.54 1176.22 1532.01 Q1179.08 1532.49 1181.5 1533.45 Z" fill="#000000" fill-rule="evenodd" fill-opacity="1" /><path clip-path="url(#clip810)" d="M 0 0 M1229.82 1524.88 Q1222.82 1524.88 1218.68 1530.1 Q1214.57 1535.32 1214.57 1544.33 Q1214.57 1553.31 1218.68 1558.53 Q1222.82 1563.75 1229.82 1563.75 Q1236.82 1563.75 1240.89 1558.53 Q1245 1553.31 1245 1544.33 Q1245 1535.32 1240.89 1530.1 Q1236.82 1524.88 1229.82 1524.88 M1229.82 1519.66 Q1239.81 1519.66 1245.8 1526.38 Q1251.78 1533.06 1251.78 1544.33 Q1251.78 1555.57 1245.8 1562.28 Q1239.81 1568.97 1229.82 1568.97 Q1219.79 1568.97 1213.78 1562.28 Q1207.79 1555.6 1207.79 1544.33 Q1207.79 1533.06 1213.78 1526.38 Q1219.79 1519.66 1229.82 1519.66 Z" fill="#000000" fill-rule="evenodd" fill-opacity="1" /><path clip-path="url(#clip810)" d="M 0 0 M1257.32 1553.98 L1257.32 1532.4 L1263.17 1532.4 L1263.17 1553.75 Q1263.17 1558.81 1265.15 1561.36 Q1267.12 1563.87 1271.07 1563.87 Q1275.81 1563.87 1278.55 1560.85 Q1281.32 1557.83 1281.32 1552.61 L1281.32 1532.4 L1287.17 1532.4 L1287.17 1568.04 L1281.32 1568.04 L1281.32 1562.57 Q1279.18 1565.82 1276.35 1567.41 Q1273.55 1568.97 1269.83 1568.97 Q1263.68 1568.97 1260.5 1565.15 Q1257.32 1561.33 1257.32 1553.98 M1272.05 1531.54 L1272.05 1531.54 Z" fill="#000000" fill-rule="evenodd" fill-opacity="1" /><path clip-path="url(#clip810)" d="M 0 0 M1299.11 1522.27 L1299.11 1532.4 L1311.17 1532.4 L1311.17 1536.95 L1299.11 1536.95 L1299.11 1556.3 Q1299.11 1560.66 1300.29 1561.9 Q1301.5 1563.14 1305.16 1563.14 L1311.17 1563.14 L1311.17 1568.04 L1305.16 1568.04 Q1298.38 1568.04 1295.8 1565.53 Q1293.22 1562.98 1293.22 1556.3 L1293.22 1536.95 L1288.92 1536.95 L1288.92 1532.4 L1293.22 1532.4 L1293.22 1522.27 L1299.11 1522.27 Z" fill="#000000" fill-rule="evenodd" fill-opacity="1" /><path clip-path="url(#clip810)" d="M 0 0 M1347.81 1548.76 L1347.81 1551.62 L1320.88 1551.62 Q1321.26 1557.67 1324.51 1560.85 Q1327.79 1564 1333.61 1564 Q1336.99 1564 1340.14 1563.17 Q1343.32 1562.35 1346.44 1560.69 L1346.44 1566.23 Q1343.29 1567.57 1339.98 1568.27 Q1336.67 1568.97 1333.26 1568.97 Q1324.73 1568.97 1319.73 1564 Q1314.77 1559.04 1314.77 1550.57 Q1314.77 1541.82 1319.48 1536.69 Q1324.22 1531.54 1332.24 1531.54 Q1339.44 1531.54 1343.61 1536.18 Q1347.81 1540.8 1347.81 1548.76 M1341.95 1547.04 Q1341.89 1542.23 1339.24 1539.37 Q1336.63 1536.5 1332.31 1536.5 Q1327.4 1536.5 1324.44 1539.27 Q1321.52 1542.04 1321.07 1547.07 L1341.95 1547.04 Z" fill="#000000" fill-rule="evenodd" fill-opacity="1" /><path clip-path="url(#clip810)" d="M 0 0 M1374.61 1537.87 Q1373.62 1537.3 1372.44 1537.04 Q1371.3 1536.76 1369.9 1536.76 Q1364.93 1536.76 1362.26 1540 Q1359.62 1543.22 1359.62 1549.27 L1359.62 1568.04 L1353.73 1568.04 L1353.73 1532.4 L1359.62 1532.4 L1359.62 1537.93 Q1361.46 1534.69 1364.42 1533.13 Q1367.38 1531.54 1371.61 1531.54 Q1372.22 1531.54 1372.95 1531.63 Q1373.68 1531.7 1374.57 1531.85 L1374.61 1537.87 Z" fill="#000000" fill-rule="evenodd" fill-opacity="1" /><path clip-path="url(#clip810)" d="M 0 0 M1373.62 1547.58 L1390.78 1547.58 L1390.78 1552.8 L1373.62 1552.8 L1373.62 1547.58 Z" fill="#000000" fill-rule="evenodd" fill-opacity="1" /><path clip-path="url(#clip810)" d="M 0 0 M1396.92 1518.52 L1402.77 1518.52 L1402.77 1568.04 L1396.92 1568.04 L1396.92 1518.52 Z" fill="#000000" fill-rule="evenodd" fill-opacity="1" /><path clip-path="url(#clip810)" d="M 0 0 M1422.73 1536.5 Q1418.02 1536.5 1415.28 1540.19 Q1412.55 1543.85 1412.55 1550.25 Q1412.55 1556.65 1415.25 1560.34 Q1417.99 1564 1422.73 1564 Q1427.41 1564 1430.15 1560.31 Q1432.88 1556.62 1432.88 1550.25 Q1432.88 1543.92 1430.15 1540.23 Q1427.41 1536.5 1422.73 1536.5 M1422.73 1531.54 Q1430.37 1531.54 1434.73 1536.5 Q1439.09 1541.47 1439.09 1550.25 Q1439.09 1559 1434.73 1564 Q1430.37 1568.97 1422.73 1568.97 Q1415.06 1568.97 1410.7 1564 Q1406.37 1559 1406.37 1550.25 Q1406.37 1541.47 1410.7 1536.5 Q1415.06 1531.54 1422.73 1531.54 Z" fill="#000000" fill-rule="evenodd" fill-opacity="1" /><path clip-path="url(#clip810)" d="M 0 0 M1459.05 1536.5 Q1454.34 1536.5 1451.6 1540.19 Q1448.86 1543.85 1448.86 1550.25 Q1448.86 1556.65 1451.57 1560.34 Q1454.3 1564 1459.05 1564 Q1463.73 1564 1466.46 1560.31 Q1469.2 1556.62 1469.2 1550.25 Q1469.2 1543.92 1466.46 1540.23 Q1463.73 1536.5 1459.05 1536.5 M1459.05 1531.54 Q1466.69 1531.54 1471.05 1536.5 Q1475.41 1541.47 1475.41 1550.25 Q1475.41 1559 1471.05 1564 Q1466.69 1568.97 1459.05 1568.97 Q1451.38 1568.97 1447.02 1564 Q1442.69 1559 1442.69 1550.25 Q1442.69 1541.47 1447.02 1536.5 Q1451.38 1531.54 1459.05 1531.54 Z" fill="#000000" fill-rule="evenodd" fill-opacity="1" /><path clip-path="url(#clip810)" d="M 0 0 M1487.22 1562.7 L1487.22 1581.6 L1481.33 1581.6 L1481.33 1532.4 L1487.22 1532.4 L1487.22 1537.81 Q1489.06 1534.62 1491.86 1533.1 Q1494.7 1531.54 1498.61 1531.54 Q1505.1 1531.54 1509.15 1536.69 Q1513.22 1541.85 1513.22 1550.25 Q1513.22 1558.65 1509.15 1563.81 Q1505.1 1568.97 1498.61 1568.97 Q1494.7 1568.97 1491.86 1567.44 Q1489.06 1565.88 1487.22 1562.7 M1507.14 1550.25 Q1507.14 1543.79 1504.47 1540.13 Q1501.82 1536.44 1497.18 1536.44 Q1492.53 1536.44 1489.86 1540.13 Q1487.22 1543.79 1487.22 1550.25 Q1487.22 1556.71 1489.86 1560.4 Q1492.53 1564.07 1497.18 1564.07 Q1501.82 1564.07 1504.47 1560.4 Q1507.14 1556.71 1507.14 1550.25 Z" fill="#000000" fill-rule="evenodd" fill-opacity="1" /><path clip-path="url(#clip810)" d="M 0 0 M1540.34 1520.52 L1546.77 1520.52 L1546.77 1568.04 L1540.34 1568.04 L1540.34 1520.52 Z" fill="#000000" fill-rule="evenodd" fill-opacity="1" /><path clip-path="url(#clip810)" d="M 0 0 M1558.7 1522.27 L1558.7 1532.4 L1570.77 1532.4 L1570.77 1536.95 L1558.7 1536.95 L1558.7 1556.3 Q1558.7 1560.66 1559.88 1561.9 Q1561.09 1563.14 1564.75 1563.14 L1570.77 1563.14 L1570.77 1568.04 L1564.75 1568.04 Q1557.97 1568.04 1555.39 1565.53 Q1552.81 1562.98 1552.81 1556.3 L1552.81 1536.95 L1548.52 1536.95 L1548.52 1532.4 L1552.81 1532.4 L1552.81 1522.27 L1558.7 1522.27 Z" fill="#000000" fill-rule="evenodd" fill-opacity="1" /><path clip-path="url(#clip810)" d="M 0 0 M1607.4 1548.76 L1607.4 1551.62 L1580.47 1551.62 Q1580.86 1557.67 1584.1 1560.85 Q1587.38 1564 1593.2 1564 Q1596.58 1564 1599.73 1563.17 Q1602.91 1562.35 1606.03 1560.69 L1606.03 1566.23 Q1602.88 1567.57 1599.57 1568.27 Q1596.26 1568.97 1592.85 1568.97 Q1584.32 1568.97 1579.33 1564 Q1574.36 1559.04 1574.36 1550.57 Q1574.36 1541.82 1579.07 1536.69 Q1583.82 1531.54 1591.84 1531.54 Q1599.03 1531.54 1603.2 1536.18 Q1607.4 1540.8 1607.4 1548.76 M1601.54 1547.04 Q1601.48 1542.23 1598.84 1539.37 Q1596.23 1536.5 1591.9 1536.5 Q1587 1536.5 1584.04 1539.27 Q1581.11 1542.04 1580.66 1547.07 L1601.54 1547.04 Z" fill="#000000" fill-rule="evenodd" fill-opacity="1" /><path clip-path="url(#clip810)" d="M 0 0 M1634.2 1537.87 Q1633.21 1537.3 1632.04 1537.04 Q1630.89 1536.76 1629.49 1536.76 Q1624.52 1536.76 1621.85 1540 Q1619.21 1543.22 1619.21 1549.27 L1619.21 1568.04 L1613.32 1568.04 L1613.32 1532.4 L1619.21 1532.4 L1619.21 1537.93 Q1621.05 1534.69 1624.01 1533.13 Q1626.97 1531.54 1631.21 1531.54 Q1631.81 1531.54 1632.54 1531.63 Q1633.28 1531.7 1634.17 1531.85 L1634.2 1537.87 Z" fill="#000000" fill-rule="evenodd" fill-opacity="1" /><path clip-path="url(#clip810)" d="M 0 0 M1656.54 1550.12 Q1649.45 1550.12 1646.71 1551.75 Q1643.97 1553.37 1643.97 1557.29 Q1643.97 1560.4 1646.01 1562.25 Q1648.08 1564.07 1651.61 1564.07 Q1656.48 1564.07 1659.41 1560.63 Q1662.37 1557.16 1662.37 1551.43 L1662.37 1550.12 L1656.54 1550.12 M1668.22 1547.71 L1668.22 1568.04 L1662.37 1568.04 L1662.37 1562.63 Q1660.36 1565.88 1657.37 1567.44 Q1654.38 1568.97 1650.05 1568.97 Q1644.58 1568.97 1641.33 1565.91 Q1638.11 1562.82 1638.11 1557.67 Q1638.11 1551.65 1642.13 1548.6 Q1646.17 1545.54 1654.16 1545.54 L1662.37 1545.54 L1662.37 1544.97 Q1662.37 1540.93 1659.69 1538.73 Q1657.05 1536.5 1652.25 1536.5 Q1649.19 1536.5 1646.29 1537.23 Q1643.4 1537.97 1640.72 1539.43 L1640.72 1534.02 Q1643.94 1532.78 1646.96 1532.17 Q1649.99 1531.54 1652.85 1531.54 Q1660.59 1531.54 1664.41 1535.55 Q1668.22 1539.56 1668.22 1547.71 Z" fill="#000000" fill-rule="evenodd" fill-opacity="1" /><path clip-path="url(#clip810)" d="M 0 0 M1680.16 1522.27 L1680.16 1532.4 L1692.22 1532.4 L1692.22 1536.95 L1680.16 1536.95 L1680.16 1556.3 Q1680.16 1560.66 1681.34 1561.9 Q1682.55 1563.14 1686.21 1563.14 L1692.22 1563.14 L1692.22 1568.04 L1686.21 1568.04 Q1679.43 1568.04 1676.85 1565.53 Q1674.27 1562.98 1674.27 1556.3 L1674.27 1536.95 L1669.98 1536.95 L1669.98 1532.4 L1674.27 1532.4 L1674.27 1522.27 L1680.16 1522.27 Z" fill="#000000" fill-rule="evenodd" fill-opacity="1" /><path clip-path="url(#clip810)" d="M 0 0 M1698.37 1532.4 L1704.22 1532.4 L1704.22 1568.04 L1698.37 1568.04 L1698.37 1532.4 M1698.37 1518.52 L1704.22 1518.52 L1704.22 1525.93 L1698.37 1525.93 L1698.37 1518.52 Z" fill="#000000" fill-rule="evenodd" fill-opacity="1" /><path clip-path="url(#clip810)" d="M 0 0 M1724.18 1536.5 Q1719.47 1536.5 1716.73 1540.19 Q1713.99 1543.85 1713.99 1550.25 Q1713.99 1556.65 1716.7 1560.34 Q1719.44 1564 1724.18 1564 Q1728.86 1564 1731.6 1560.31 Q1734.33 1556.62 1734.33 1550.25 Q1734.33 1543.92 1731.6 1540.23 Q1728.86 1536.5 1724.18 1536.5 M1724.18 1531.54 Q1731.82 1531.54 1736.18 1536.5 Q1740.54 1541.47 1740.54 1550.25 Q1740.54 1559 1736.18 1564 Q1731.82 1568.97 1724.18 1568.97 Q1716.51 1568.97 1712.15 1564 Q1707.82 1559 1707.82 1550.25 Q1707.82 1541.47 1712.15 1536.5 Q1716.51 1531.54 1724.18 1531.54 Z" fill="#000000" fill-rule="evenodd" fill-opacity="1" /><path clip-path="url(#clip810)" d="M 0 0 M1776.31 1546.53 L1776.31 1568.04 L1770.46 1568.04 L1770.46 1546.72 Q1770.46 1541.66 1768.48 1539.14 Q1766.51 1536.63 1762.56 1536.63 Q1757.82 1536.63 1755.08 1539.65 Q1752.35 1542.68 1752.35 1547.9 L1752.35 1568.04 L1746.46 1568.04 L1746.46 1532.4 L1752.35 1532.4 L1752.35 1537.93 Q1754.45 1534.72 1757.28 1533.13 Q1760.15 1531.54 1763.87 1531.54 Q1770.01 1531.54 1773.16 1535.36 Q1776.31 1539.14 1776.31 1546.53 Z" fill="#000000" fill-rule="evenodd" fill-opacity="1" /><path clip-path="url(#clip810)" d="M 0 0 M1805.18 1533.45 L1805.18 1538.98 Q1802.7 1537.71 1800.03 1537.07 Q1797.35 1536.44 1794.49 1536.44 Q1790.13 1536.44 1787.93 1537.77 Q1785.77 1539.11 1785.77 1541.79 Q1785.77 1543.82 1787.33 1545 Q1788.89 1546.15 1793.6 1547.2 L1795.6 1547.64 Q1801.84 1548.98 1804.45 1551.43 Q1807.09 1553.85 1807.09 1558.21 Q1807.09 1563.17 1803.15 1566.07 Q1799.23 1568.97 1792.36 1568.97 Q1789.49 1568.97 1786.37 1568.39 Q1783.28 1567.85 1779.85 1566.74 L1779.85 1560.69 Q1783.09 1562.38 1786.24 1563.24 Q1789.4 1564.07 1792.48 1564.07 Q1796.62 1564.07 1798.85 1562.66 Q1801.08 1561.23 1801.08 1558.65 Q1801.08 1556.27 1799.45 1554.99 Q1797.86 1553.72 1792.42 1552.54 L1790.38 1552.07 Q1784.94 1550.92 1782.52 1548.56 Q1780.1 1546.18 1780.1 1542.04 Q1780.1 1537.01 1783.67 1534.27 Q1787.23 1531.54 1793.79 1531.54 Q1797.03 1531.54 1799.9 1532.01 Q1802.76 1532.49 1805.18 1533.45 Z" fill="#000000" fill-rule="evenodd" fill-opacity="1" /><polyline clip-path="url(#clip812)" style="stroke:#000000; stroke-width:2; stroke-opacity:0.1; fill:none" points="
  242.916,1318.6 2352.76,1318.6 
  "/>
<polyline clip-path="url(#clip812)" style="stroke:#000000; stroke-width:2; stroke-opacity:0.1; fill:none" points="
  242.916,999.992 2352.76,999.992 
  "/>
<polyline clip-path="url(#clip812)" style="stroke:#000000; stroke-width:2; stroke-opacity:0.1; fill:none" points="
  242.916,681.387 2352.76,681.387 
  "/>
<polyline clip-path="url(#clip812)" style="stroke:#000000; stroke-width:2; stroke-opacity:0.1; fill:none" points="
  242.916,362.783 2352.76,362.783 
  "/>
<polyline clip-path="url(#clip810)" style="stroke:#000000; stroke-width:4; stroke-opacity:1; fill:none" points="
  242.916,1423.18 242.916,183.952 
  "/>
<polyline clip-path="url(#clip810)" style="stroke:#000000; stroke-width:4; stroke-opacity:1; fill:none" points="
  242.916,1318.6 268.234,1318.6 
  "/>
<polyline clip-path="url(#clip810)" style="stroke:#000000; stroke-width:4; stroke-opacity:1; fill:none" points="
  242.916,999.992 268.234,999.992 
  "/>
<polyline clip-path="url(#clip810)" style="stroke:#000000; stroke-width:4; stroke-opacity:1; fill:none" points="
  242.916,681.387 268.234,681.387 
  "/>
<polyline clip-path="url(#clip810)" style="stroke:#000000; stroke-width:4; stroke-opacity:1; fill:none" points="
  242.916,362.783 268.234,362.783 
  "/>
<path clip-path="url(#clip810)" d="M 0 0 M115.232 1338.39 L122.871 1338.39 L122.871 1312.02 L114.561 1313.69 L114.561 1309.43 L122.825 1307.76 L127.501 1307.76 L127.501 1338.39 L135.14 1338.39 L135.14 1342.32 L115.232 1342.32 L115.232 1338.39 Z" fill="#000000" fill-rule="evenodd" fill-opacity="1" /><path clip-path="url(#clip810)" d="M 0 0 M150.209 1310.84 Q146.598 1310.84 144.769 1314.41 Q142.964 1317.95 142.964 1325.08 Q142.964 1332.19 144.769 1335.75 Q146.598 1339.29 150.209 1339.29 Q153.843 1339.29 155.649 1335.75 Q157.478 1332.19 157.478 1325.08 Q157.478 1317.95 155.649 1314.41 Q153.843 1310.84 150.209 1310.84 M150.209 1307.14 Q156.019 1307.14 159.075 1311.75 Q162.153 1316.33 162.153 1325.08 Q162.153 1333.81 159.075 1338.41 Q156.019 1343 150.209 1343 Q144.399 1343 141.32 1338.41 Q138.265 1333.81 138.265 1325.08 Q138.265 1316.33 141.32 1311.75 Q144.399 1307.14 150.209 1307.14 Z" fill="#000000" fill-rule="evenodd" fill-opacity="1" /><path clip-path="url(#clip810)" d="M 0 0 M162.153 1301.24 L186.265 1301.24 L186.265 1304.44 L162.153 1304.44 L162.153 1301.24 Z" fill="#000000" fill-rule="evenodd" fill-opacity="1" /><path clip-path="url(#clip810)" d="M 0 0 M193.656 1311.72 L206.916 1311.72 L206.916 1314.91 L189.086 1314.91 L189.086 1311.72 Q191.249 1309.48 194.973 1305.72 Q198.716 1301.94 199.675 1300.85 Q201.499 1298.8 202.214 1297.38 Q202.947 1295.96 202.947 1294.58 Q202.947 1292.34 201.368 1290.93 Q199.807 1289.52 197.286 1289.52 Q195.5 1289.52 193.506 1290.14 Q191.531 1290.76 189.274 1292.02 L189.274 1288.19 Q191.569 1287.27 193.562 1286.8 Q195.556 1286.33 197.211 1286.33 Q201.575 1286.33 204.17 1288.51 Q206.765 1290.69 206.765 1294.34 Q206.765 1296.07 206.107 1297.63 Q205.468 1299.17 203.756 1301.28 Q203.286 1301.82 200.766 1304.44 Q198.246 1307.03 193.656 1311.72 Z" fill="#000000" fill-rule="evenodd" fill-opacity="1" /><path clip-path="url(#clip810)" d="M 0 0 M114.931 1019.78 L122.57 1019.78 L122.57 993.419 L114.26 995.085 L114.26 990.826 L122.524 989.159 L127.2 989.159 L127.2 1019.78 L134.839 1019.78 L134.839 1023.72 L114.931 1023.72 L114.931 1019.78 Z" fill="#000000" fill-rule="evenodd" fill-opacity="1" /><path clip-path="url(#clip810)" d="M 0 0 M149.908 992.238 Q146.297 992.238 144.468 995.803 Q142.663 999.345 142.663 1006.47 Q142.663 1013.58 144.468 1017.15 Q146.297 1020.69 149.908 1020.69 Q153.542 1020.69 155.348 1017.15 Q157.177 1013.58 157.177 1006.47 Q157.177 999.345 155.348 995.803 Q153.542 992.238 149.908 992.238 M149.908 988.534 Q155.718 988.534 158.774 993.141 Q161.852 997.724 161.852 1006.47 Q161.852 1015.2 158.774 1019.81 Q155.718 1024.39 149.908 1024.39 Q144.098 1024.39 141.019 1019.81 Q137.964 1015.2 137.964 1006.47 Q137.964 997.724 141.019 993.141 Q144.098 988.534 149.908 988.534 Z" fill="#000000" fill-rule="evenodd" fill-opacity="1" /><path clip-path="url(#clip810)" d="M 0 0 M161.852 982.636 L185.964 982.636 L185.964 985.833 L161.852 985.833 L161.852 982.636 Z" fill="#000000" fill-rule="evenodd" fill-opacity="1" /><path clip-path="url(#clip810)" d="M 0 0 M190.741 993.112 L196.948 993.112 L196.948 971.69 L190.196 973.044 L190.196 969.583 L196.91 968.229 L200.709 968.229 L200.709 993.112 L206.916 993.112 L206.916 996.309 L190.741 996.309 L190.741 993.112 Z" fill="#000000" fill-rule="evenodd" fill-opacity="1" /><path clip-path="url(#clip810)" d="M 0 0 M140.585 701.18 L148.224 701.18 L148.224 674.814 L139.914 676.481 L139.914 672.222 L148.178 670.555 L152.854 670.555 L152.854 701.18 L160.493 701.18 L160.493 705.115 L140.585 705.115 L140.585 701.18 Z" fill="#000000" fill-rule="evenodd" fill-opacity="1" /><path clip-path="url(#clip810)" d="M 0 0 M175.562 673.634 Q171.951 673.634 170.122 677.198 Q168.317 680.74 168.317 687.87 Q168.317 694.976 170.122 698.541 Q171.951 702.083 175.562 702.083 Q179.196 702.083 181.002 698.541 Q182.83 694.976 182.83 687.87 Q182.83 680.74 181.002 677.198 Q179.196 673.634 175.562 673.634 M175.562 669.93 Q181.372 669.93 184.428 674.536 Q187.506 679.12 187.506 687.87 Q187.506 696.596 184.428 701.203 Q181.372 705.786 175.562 705.786 Q169.752 705.786 166.673 701.203 Q163.618 696.596 163.618 687.87 Q163.618 679.12 166.673 674.536 Q169.752 669.93 175.562 669.93 Z" fill="#000000" fill-rule="evenodd" fill-opacity="1" /><path clip-path="url(#clip810)" d="M 0 0 M197.211 652.126 Q194.277 652.126 192.791 655.022 Q191.324 657.9 191.324 663.693 Q191.324 669.467 192.791 672.363 Q194.277 675.241 197.211 675.241 Q200.164 675.241 201.631 672.363 Q203.117 669.467 203.117 663.693 Q203.117 657.9 201.631 655.022 Q200.164 652.126 197.211 652.126 M197.211 649.117 Q201.932 649.117 204.414 652.859 Q206.916 656.583 206.916 663.693 Q206.916 670.783 204.414 674.526 Q201.932 678.25 197.211 678.25 Q192.49 678.25 189.989 674.526 Q187.506 670.783 187.506 663.693 Q187.506 656.583 189.989 652.859 Q192.49 649.117 197.211 649.117 Z" fill="#000000" fill-rule="evenodd" fill-opacity="1" /><path clip-path="url(#clip810)" d="M 0 0 M143.275 382.575 L150.914 382.575 L150.914 356.21 L142.603 357.876 L142.603 353.617 L150.867 351.95 L155.543 351.95 L155.543 382.575 L163.182 382.575 L163.182 386.51 L143.275 386.51 L143.275 382.575 Z" fill="#000000" fill-rule="evenodd" fill-opacity="1" /><path clip-path="url(#clip810)" d="M 0 0 M178.251 355.029 Q174.64 355.029 172.812 358.594 Q171.006 362.136 171.006 369.265 Q171.006 376.372 172.812 379.936 Q174.64 383.478 178.251 383.478 Q181.886 383.478 183.691 379.936 Q185.52 376.372 185.52 369.265 Q185.52 362.136 183.691 358.594 Q181.886 355.029 178.251 355.029 M178.251 351.325 Q184.062 351.325 187.117 355.932 Q190.196 360.515 190.196 369.265 Q190.196 377.992 187.117 382.598 Q184.062 387.182 178.251 387.182 Q172.441 387.182 169.363 382.598 Q166.307 377.992 166.307 369.265 Q166.307 360.515 169.363 355.932 Q172.441 351.325 178.251 351.325 Z" fill="#000000" fill-rule="evenodd" fill-opacity="1" /><path clip-path="url(#clip810)" d="M 0 0 M190.741 355.903 L196.948 355.903 L196.948 334.481 L190.196 335.835 L190.196 332.374 L196.91 331.02 L200.709 331.02 L200.709 355.903 L206.916 355.903 L206.916 359.1 L190.741 359.1 L190.741 355.903 Z" fill="#000000" fill-rule="evenodd" fill-opacity="1" /><path clip-path="url(#clip810)" d="M 0 0 M18.0438 1052.72 L24.314 1052.72 Q22.5634 1056.38 21.704 1059.63 Q20.8447 1062.87 20.8447 1065.9 Q20.8447 1071.15 22.8817 1074.01 Q24.9187 1076.85 28.6745 1076.85 Q31.8255 1076.85 33.4488 1074.97 Q35.0402 1073.06 36.0269 1067.77 L36.8226 1063.89 Q38.1912 1056.7 41.6605 1053.29 Q45.098 1049.86 50.8908 1049.86 Q57.7976 1049.86 61.3624 1054.5 Q64.9272 1059.12 64.9272 1068.06 Q64.9272 1071.43 64.1633 1075.25 Q63.3994 1079.04 61.9035 1083.12 L55.2831 1083.12 Q57.4793 1079.2 58.5933 1075.45 Q59.7073 1071.69 59.7073 1068.06 Q59.7073 1062.55 57.543 1059.56 Q55.3786 1056.57 51.3682 1056.57 Q47.8671 1056.57 45.8937 1058.74 Q43.9204 1060.87 42.9337 1065.77 L42.1698 1069.68 Q40.7375 1076.88 37.682 1080.09 Q34.6264 1083.31 29.1837 1083.31 Q22.8817 1083.31 19.2532 1078.88 Q15.6248 1074.43 15.6248 1066.63 Q15.6248 1063.29 16.2295 1059.82 Q16.8343 1056.35 18.0438 1052.72 Z" fill="#000000" fill-rule="evenodd" fill-opacity="1" /><path clip-path="url(#clip810)" d="M 0 0 M49.9359 1044.32 L28.3562 1044.32 L28.3562 1038.46 L49.7131 1038.46 Q54.7739 1038.46 57.3202 1036.49 Q59.8346 1034.51 59.8346 1030.57 Q59.8346 1025.82 56.8109 1023.09 Q53.7872 1020.32 48.5673 1020.32 L28.3562 1020.32 L28.3562 1014.46 L64.0042 1014.46 L64.0042 1020.32 L58.5296 1020.32 Q61.7762 1022.45 63.3676 1025.28 Q64.9272 1028.08 64.9272 1031.81 Q64.9272 1037.95 61.1078 1041.13 Q57.2883 1044.32 49.9359 1044.32 M27.4968 1029.58 L27.4968 1029.58 Z" fill="#000000" fill-rule="evenodd" fill-opacity="1" /><path clip-path="url(#clip810)" d="M 0 0 M35.1993 980.564 Q31.2526 978.368 29.3747 975.313 Q27.4968 972.257 27.4968 968.12 Q27.4968 962.55 31.4117 959.526 Q35.2948 956.502 42.4881 956.502 L64.0042 956.502 L64.0042 962.39 L42.679 962.39 Q37.5546 962.39 35.072 964.205 Q32.5894 966.019 32.5894 969.743 Q32.5894 974.294 35.6131 976.936 Q38.6368 979.578 43.8567 979.578 L64.0042 979.578 L64.0042 985.466 L42.679 985.466 Q37.5228 985.466 35.072 987.28 Q32.5894 989.095 32.5894 992.882 Q32.5894 997.37 35.6449 1000.01 Q38.6686 1002.65 43.8567 1002.65 L64.0042 1002.65 L64.0042 1008.54 L28.3562 1008.54 L28.3562 1002.65 L33.8944 1002.65 Q30.616 1000.65 29.0564 997.847 Q27.4968 995.046 27.4968 991.195 Q27.4968 987.312 29.4702 984.607 Q31.4436 981.869 35.1993 980.564 Z" fill="#000000" fill-rule="evenodd" fill-opacity="1" /><path clip-path="url(#clip810)" d="M 0 0 M18.0438 900.898 L24.314 900.898 Q22.5634 904.558 21.704 907.804 Q20.8447 911.051 20.8447 914.075 Q20.8447 919.326 22.8817 922.191 Q24.9187 925.024 28.6745 925.024 Q31.8255 925.024 33.4488 923.146 Q35.0402 921.236 36.0269 915.953 L36.8226 912.069 Q38.1912 904.876 41.6605 901.471 Q45.098 898.033 50.8908 898.033 Q57.7976 898.033 61.3624 902.68 Q64.9272 907.295 64.9272 916.239 Q64.9272 919.613 64.1633 923.432 Q63.3994 927.22 61.9035 931.294 L55.2831 931.294 Q57.4793 927.379 58.5933 923.623 Q59.7073 919.867 59.7073 916.239 Q59.7073 910.733 57.543 907.741 Q55.3786 904.749 51.3682 904.749 Q47.8671 904.749 45.8937 906.913 Q43.9204 909.046 42.9337 913.947 L42.1698 917.862 Q40.7375 925.055 37.682 928.27 Q34.6264 931.485 29.1837 931.485 Q22.8817 931.485 19.2532 927.061 Q15.6248 922.605 15.6248 914.807 Q15.6248 911.465 16.2295 907.995 Q16.8343 904.526 18.0438 900.898 Z" fill="#000000" fill-rule="evenodd" fill-opacity="1" /><path clip-path="url(#clip810)" d="M 0 0 M46.212 888.389 Q52.6732 888.389 56.3653 885.747 Q60.0256 883.074 60.0256 878.427 Q60.0256 873.78 56.3653 871.106 Q52.6732 868.433 46.212 868.433 Q39.7508 868.433 36.0905 871.106 Q32.3984 873.78 32.3984 878.427 Q32.3984 883.074 36.0905 885.747 Q39.7508 888.389 46.212 888.389 M58.657 868.433 Q61.8398 870.279 63.3994 873.111 Q64.9272 875.912 64.9272 879.859 Q64.9272 886.32 59.771 890.394 Q54.6147 894.436 46.212 894.436 Q37.8093 894.436 32.6531 890.394 Q27.4968 886.32 27.4968 879.859 Q27.4968 875.912 29.0564 873.111 Q30.5842 870.279 33.7671 868.433 L28.3562 868.433 L28.3562 862.576 L77.5631 862.576 L77.5631 868.433 L58.657 868.433 Z" fill="#000000" fill-rule="evenodd" fill-opacity="1" /><path clip-path="url(#clip810)" d="M 0 0 M49.9359 857.038 L28.3562 857.038 L28.3562 851.181 L49.7131 851.181 Q54.7739 851.181 57.3202 849.208 Q59.8346 847.235 59.8346 843.288 Q59.8346 838.546 56.8109 835.808 Q53.7872 833.039 48.5673 833.039 L28.3562 833.039 L28.3562 827.183 L64.0042 827.183 L64.0042 833.039 L58.5296 833.039 Q61.7762 835.172 63.3676 838.004 Q64.9272 840.805 64.9272 844.529 Q64.9272 850.672 61.1078 853.855 Q57.2883 857.038 49.9359 857.038 M27.4968 842.301 L27.4968 842.301 Z" fill="#000000" fill-rule="evenodd" fill-opacity="1" /><path clip-path="url(#clip810)" d="M 0 0 M46.0847 804.839 Q46.0847 811.937 47.7079 814.674 Q49.3312 817.411 53.2461 817.411 Q56.3653 817.411 58.2114 815.374 Q60.0256 813.306 60.0256 809.773 Q60.0256 804.903 56.5881 801.975 Q53.1188 799.015 47.3897 799.015 L46.0847 799.015 L46.0847 804.839 M43.6657 793.158 L64.0042 793.158 L64.0042 799.015 L58.5933 799.015 Q61.8398 801.02 63.3994 804.012 Q64.9272 807.003 64.9272 811.332 Q64.9272 816.807 61.8716 820.053 Q58.7843 823.268 53.6281 823.268 Q47.6125 823.268 44.5569 819.257 Q41.5014 815.215 41.5014 807.226 L41.5014 799.015 L40.9285 799.015 Q36.8862 799.015 34.6901 801.688 Q32.4621 804.33 32.4621 809.136 Q32.4621 812.192 33.1941 815.088 Q33.9262 817.984 35.3903 820.658 L29.9795 820.658 Q28.7381 817.443 28.1334 814.42 Q27.4968 811.396 27.4968 808.531 Q27.4968 800.797 31.5072 796.977 Q35.5176 793.158 43.6657 793.158 Z" fill="#000000" fill-rule="evenodd" fill-opacity="1" /><path clip-path="url(#clip810)" d="M 0 0 M33.8307 766.358 Q33.2578 767.345 33.0032 768.523 Q32.7167 769.669 32.7167 771.069 Q32.7167 776.034 35.9632 778.708 Q39.1779 781.35 45.2253 781.35 L64.0042 781.35 L64.0042 787.238 L28.3562 787.238 L28.3562 781.35 L33.8944 781.35 Q30.6479 779.504 29.0883 776.544 Q27.4968 773.584 27.4968 769.35 Q27.4968 768.746 27.5923 768.014 Q27.656 767.281 27.8151 766.39 L33.8307 766.358 Z" fill="#000000" fill-rule="evenodd" fill-opacity="1" /><path clip-path="url(#clip810)" d="M 0 0 M44.7161 731.156 L47.5806 731.156 L47.5806 758.083 Q53.6281 757.701 56.8109 754.455 Q59.9619 751.176 59.9619 745.352 Q59.9619 741.978 59.1344 738.827 Q58.3069 735.644 56.6518 732.525 L62.1899 732.525 Q63.5267 735.676 64.227 738.986 Q64.9272 742.296 64.9272 745.702 Q64.9272 754.232 59.9619 759.229 Q54.9967 764.194 46.5303 764.194 Q37.7774 764.194 32.6531 759.483 Q27.4968 754.741 27.4968 746.72 Q27.4968 739.527 32.1438 735.357 Q36.7589 731.156 44.7161 731.156 M42.9973 737.013 Q38.1912 737.076 35.3266 739.718 Q32.4621 742.328 32.4621 746.657 Q32.4621 751.558 35.2312 754.518 Q38.0002 757.446 43.0292 757.892 L42.9973 737.013 Z" fill="#000000" fill-rule="evenodd" fill-opacity="1" /><path clip-path="url(#clip810)" d="M 0 0 M33.7671 701.556 L14.479 701.556 L14.479 695.699 L64.0042 695.699 L64.0042 701.556 L58.657 701.556 Q61.8398 703.402 63.3994 706.234 Q64.9272 709.035 64.9272 712.982 Q64.9272 719.443 59.771 723.517 Q54.6147 727.559 46.212 727.559 Q37.8093 727.559 32.6531 723.517 Q27.4968 719.443 27.4968 712.982 Q27.4968 709.035 29.0564 706.234 Q30.5842 703.402 33.7671 701.556 M46.212 721.512 Q52.6732 721.512 56.3653 718.87 Q60.0256 716.197 60.0256 711.55 Q60.0256 706.903 56.3653 704.229 Q52.6732 701.556 46.212 701.556 Q39.7508 701.556 36.0905 704.229 Q32.3984 706.903 32.3984 711.55 Q32.3984 716.197 36.0905 718.87 Q39.7508 721.512 46.212 721.512 Z" fill="#000000" fill-rule="evenodd" fill-opacity="1" /><path clip-path="url(#clip810)" d="M 0 0 M16.4842 668.581 L16.4842 638.535 L21.895 638.535 L21.895 662.152 L35.9632 662.152 L35.9632 639.522 L41.3741 639.522 L41.3741 662.152 L58.5933 662.152 L58.5933 637.962 L64.0042 637.962 L64.0042 668.581 L16.4842 668.581 Z" fill="#000000" fill-rule="evenodd" fill-opacity="1" /><path clip-path="url(#clip810)" d="M 0 0 M33.8307 611.163 Q33.2578 612.149 33.0032 613.327 Q32.7167 614.473 32.7167 615.873 Q32.7167 620.838 35.9632 623.512 Q39.1779 626.154 45.2253 626.154 L64.0042 626.154 L64.0042 632.042 L28.3562 632.042 L28.3562 626.154 L33.8944 626.154 Q30.6479 624.308 29.0883 621.348 Q27.4968 618.388 27.4968 614.154 Q27.4968 613.55 27.5923 612.818 Q27.656 612.086 27.8151 611.194 L33.8307 611.163 Z" fill="#000000" fill-rule="evenodd" fill-opacity="1" /><path clip-path="url(#clip810)" d="M 0 0 M33.8307 585.509 Q33.2578 586.495 33.0032 587.673 Q32.7167 588.819 32.7167 590.219 Q32.7167 595.185 35.9632 597.858 Q39.1779 600.5 45.2253 600.5 L64.0042 600.5 L64.0042 606.388 L28.3562 606.388 L28.3562 600.5 L33.8944 600.5 Q30.6479 598.654 29.0883 595.694 Q27.4968 592.734 27.4968 588.501 Q27.4968 587.896 27.5923 587.164 Q27.656 586.432 27.8151 585.541 L33.8307 585.509 Z" fill="#000000" fill-rule="evenodd" fill-opacity="1" /><path clip-path="url(#clip810)" d="M 0 0 M32.4621 566.984 Q32.4621 571.695 36.1542 574.432 Q39.8145 577.17 46.212 577.17 Q52.6095 577.17 56.3017 574.464 Q59.9619 571.727 59.9619 566.984 Q59.9619 562.306 56.2698 559.568 Q52.5777 556.831 46.212 556.831 Q39.8781 556.831 36.186 559.568 Q32.4621 562.306 32.4621 566.984 M27.4968 566.984 Q27.4968 559.346 32.4621 554.985 Q37.4273 550.625 46.212 550.625 Q54.9649 550.625 59.9619 554.985 Q64.9272 559.346 64.9272 566.984 Q64.9272 574.655 59.9619 579.016 Q54.9649 583.344 46.212 583.344 Q37.4273 583.344 32.4621 579.016 Q27.4968 574.655 27.4968 566.984 Z" fill="#000000" fill-rule="evenodd" fill-opacity="1" /><path clip-path="url(#clip810)" d="M 0 0 M33.8307 523.825 Q33.2578 524.812 33.0032 525.989 Q32.7167 527.135 32.7167 528.536 Q32.7167 533.501 35.9632 536.174 Q39.1779 538.816 45.2253 538.816 L64.0042 538.816 L64.0042 544.705 L28.3562 544.705 L28.3562 538.816 L33.8944 538.816 Q30.6479 536.97 29.0883 534.01 Q27.4968 531.05 27.4968 526.817 Q27.4968 526.212 27.5923 525.48 Q27.656 524.748 27.8151 523.857 L33.8307 523.825 Z" fill="#000000" fill-rule="evenodd" fill-opacity="1" /><path clip-path="url(#clip810)" d="M 0 0 M869.757 12.096 L877.939 12.096 L877.939 65.6895 L907.39 65.6895 L907.39 72.576 L869.757 72.576 L869.757 12.096 Z" fill="#000000" fill-rule="evenodd" fill-opacity="1" /><path clip-path="url(#clip810)" d="M 0 0 M931.33 32.4315 Q925.335 32.4315 921.851 37.1306 Q918.367 41.7891 918.367 49.9314 Q918.367 58.0738 921.811 62.7728 Q925.295 67.4314 931.33 67.4314 Q937.285 67.4314 940.769 62.7323 Q944.253 58.0333 944.253 49.9314 Q944.253 41.8701 940.769 37.1711 Q937.285 32.4315 931.33 32.4315 M931.33 26.1121 Q941.053 26.1121 946.602 32.4315 Q952.152 38.7509 952.152 49.9314 Q952.152 61.0714 946.602 67.4314 Q941.053 73.7508 931.33 73.7508 Q921.568 73.7508 916.018 67.4314 Q910.509 61.0714 910.509 49.9314 Q910.509 38.7509 916.018 32.4315 Q921.568 26.1121 931.33 26.1121 Z" fill="#000000" fill-rule="evenodd" fill-opacity="1" /><path clip-path="url(#clip810)" d="M 0 0 M988.894 28.5427 L988.894 35.5912 Q985.734 33.9709 982.331 33.1607 Q978.928 32.3505 975.283 32.3505 Q969.733 32.3505 966.938 34.0519 Q964.183 35.7533 964.183 39.156 Q964.183 41.7486 966.168 43.2475 Q968.153 44.7058 974.148 46.0426 L976.7 46.6097 Q984.64 48.3111 987.962 51.4303 Q991.324 54.509 991.324 60.0587 Q991.324 66.3781 986.301 70.0644 Q981.319 73.7508 972.569 73.7508 Q968.923 73.7508 964.953 73.0216 Q961.023 72.3329 956.649 70.9151 L956.649 63.2184 Q960.78 65.3654 964.791 66.4591 Q968.801 67.5124 972.731 67.5124 Q977.997 67.5124 980.832 65.73 Q983.668 63.9071 983.668 60.6258 Q983.668 57.5877 981.602 55.9673 Q979.577 54.3469 972.65 52.8481 L970.057 52.2405 Q963.13 50.7821 960.051 47.7845 Q956.973 44.7463 956.973 39.4801 Q956.973 33.0797 961.51 29.5959 Q966.047 26.1121 974.391 26.1121 Q978.523 26.1121 982.169 26.7198 Q985.815 27.3274 988.894 28.5427 Z" fill="#000000" fill-rule="evenodd" fill-opacity="1" /><path clip-path="url(#clip810)" d="M 0 0 M1028.07 28.5427 L1028.07 35.5912 Q1024.91 33.9709 1021.5 33.1607 Q1018.1 32.3505 1014.45 32.3505 Q1008.91 32.3505 1006.11 34.0519 Q1003.36 35.7533 1003.36 39.156 Q1003.36 41.7486 1005.34 43.2475 Q1007.33 44.7058 1013.32 46.0426 L1015.87 46.6097 Q1023.81 48.3111 1027.13 51.4303 Q1030.5 54.509 1030.5 60.0587 Q1030.5 66.3781 1025.47 70.0644 Q1020.49 73.7508 1011.74 73.7508 Q1008.09 73.7508 1004.13 73.0216 Q1000.2 72.3329 995.821 70.9151 L995.821 63.2184 Q999.953 65.3654 1003.96 66.4591 Q1007.97 67.5124 1011.9 67.5124 Q1017.17 67.5124 1020 65.73 Q1022.84 63.9071 1022.84 60.6258 Q1022.84 57.5877 1020.77 55.9673 Q1018.75 54.3469 1011.82 52.8481 L1009.23 52.2405 Q1002.3 50.7821 999.224 47.7845 Q996.145 44.7463 996.145 39.4801 Q996.145 33.0797 1000.68 29.5959 Q1005.22 26.1121 1013.56 26.1121 Q1017.7 26.1121 1021.34 26.7198 Q1024.99 27.3274 1028.07 28.5427 Z" fill="#000000" fill-rule="evenodd" fill-opacity="1" /><path clip-path="url(#clip810)" d="M 0 0 M1059.34 27.2059 L1067.24 27.2059 L1081.42 65.2844 L1095.59 27.2059 L1103.49 27.2059 L1086.48 72.576 L1076.35 72.576 L1059.34 27.2059 Z" fill="#000000" fill-rule="evenodd" fill-opacity="1" /><path clip-path="url(#clip810)" d="M 0 0 M1140.24 28.5427 L1140.24 35.5912 Q1137.08 33.9709 1133.67 33.1607 Q1130.27 32.3505 1126.62 32.3505 Q1121.07 32.3505 1118.28 34.0519 Q1115.52 35.7533 1115.52 39.156 Q1115.52 41.7486 1117.51 43.2475 Q1119.49 44.7058 1125.49 46.0426 L1128.04 46.6097 Q1135.98 48.3111 1139.3 51.4303 Q1142.67 54.509 1142.67 60.0587 Q1142.67 66.3781 1137.64 70.0644 Q1132.66 73.7508 1123.91 73.7508 Q1120.26 73.7508 1116.29 73.0216 Q1112.37 72.3329 1107.99 70.9151 L1107.99 63.2184 Q1112.12 65.3654 1116.13 66.4591 Q1120.14 67.5124 1124.07 67.5124 Q1129.34 67.5124 1132.17 65.73 Q1135.01 63.9071 1135.01 60.6258 Q1135.01 57.5877 1132.94 55.9673 Q1130.92 54.3469 1123.99 52.8481 L1121.4 52.2405 Q1114.47 50.7821 1111.39 47.7845 Q1108.31 44.7463 1108.31 39.4801 Q1108.31 33.0797 1112.85 29.5959 Q1117.39 26.1121 1125.73 26.1121 Q1129.87 26.1121 1133.51 26.7198 Q1137.16 27.3274 1140.24 28.5427 Z" fill="#000000" fill-rule="evenodd" fill-opacity="1" /><path clip-path="url(#clip810)" d="M 0 0 M1218.42 63.9476 L1218.42 47.7034 L1205.05 47.7034 L1205.05 40.9789 L1226.52 40.9789 L1226.52 66.9452 Q1221.78 70.3075 1216.07 72.0494 Q1210.36 73.7508 1203.88 73.7508 Q1189.7 73.7508 1181.68 65.4869 Q1173.7 57.1826 1173.7 42.3968 Q1173.7 27.5705 1181.68 19.3066 Q1189.7 11.0023 1203.88 11.0023 Q1209.79 11.0023 1215.1 12.4606 Q1220.44 13.9189 1224.94 16.7545 L1224.94 25.464 Q1220.4 21.6156 1215.3 19.6712 Q1210.19 17.7268 1204.56 17.7268 Q1193.46 17.7268 1187.87 23.9246 Q1182.32 30.1225 1182.32 42.3968 Q1182.32 54.6305 1187.87 60.8284 Q1193.46 67.0263 1204.56 67.0263 Q1208.9 67.0263 1212.3 66.2971 Q1215.7 65.5274 1218.42 63.9476 Z" fill="#000000" fill-rule="evenodd" fill-opacity="1" /><path clip-path="url(#clip810)" d="M 0 0 M1260.63 34.1734 Q1259.37 33.4443 1257.87 33.1202 Q1256.42 32.7556 1254.63 32.7556 Q1248.31 32.7556 1244.91 36.8875 Q1241.55 40.9789 1241.55 48.6757 L1241.55 72.576 L1234.05 72.576 L1234.05 27.2059 L1241.55 27.2059 L1241.55 34.2544 Q1243.9 30.1225 1247.67 28.1376 Q1251.43 26.1121 1256.82 26.1121 Q1257.59 26.1121 1258.52 26.2337 Q1259.45 26.3147 1260.59 26.5172 L1260.63 34.1734 Z" fill="#000000" fill-rule="evenodd" fill-opacity="1" /><path clip-path="url(#clip810)" d="M 0 0 M1289.07 49.7694 Q1280.03 49.7694 1276.55 51.8354 Q1273.06 53.9013 1273.06 58.8839 Q1273.06 62.8538 1275.66 65.2034 Q1278.29 67.5124 1282.79 67.5124 Q1288.98 67.5124 1292.71 63.1374 Q1296.48 58.7219 1296.48 51.4303 L1296.48 49.7694 L1289.07 49.7694 M1303.93 46.6907 L1303.93 72.576 L1296.48 72.576 L1296.48 65.6895 Q1293.93 69.8214 1290.12 71.8063 Q1286.31 73.7508 1280.8 73.7508 Q1273.83 73.7508 1269.7 69.8619 Q1265.61 65.9325 1265.61 59.3701 Q1265.61 51.7138 1270.72 47.825 Q1275.86 43.9361 1286.03 43.9361 L1296.48 43.9361 L1296.48 43.2069 Q1296.48 38.0623 1293.08 35.2672 Q1289.71 32.4315 1283.6 32.4315 Q1279.71 32.4315 1276.02 33.3632 Q1272.34 34.295 1268.93 36.1584 L1268.93 29.2718 Q1273.02 27.692 1276.87 26.9223 Q1280.72 26.1121 1284.37 26.1121 Q1294.21 26.1121 1299.07 31.2163 Q1303.93 36.3204 1303.93 46.6907 Z" fill="#000000" fill-rule="evenodd" fill-opacity="1" /><path clip-path="url(#clip810)" d="M 0 0 M1341.61 34.0924 L1341.61 9.54393 L1349.06 9.54393 L1349.06 72.576 L1341.61 72.576 L1341.61 65.7705 Q1339.26 69.8214 1335.65 71.8063 Q1332.09 73.7508 1327.06 73.7508 Q1318.84 73.7508 1313.65 67.1883 Q1308.51 60.6258 1308.51 49.9314 Q1308.51 39.2371 1313.65 32.6746 Q1318.84 26.1121 1327.06 26.1121 Q1332.09 26.1121 1335.65 28.0971 Q1339.26 30.0415 1341.61 34.0924 M1316.21 49.9314 Q1316.21 58.1548 1319.57 62.8538 Q1322.97 67.5124 1328.89 67.5124 Q1334.8 67.5124 1338.2 62.8538 Q1341.61 58.1548 1341.61 49.9314 Q1341.61 41.7081 1338.2 37.0496 Q1334.8 32.3505 1328.89 32.3505 Q1322.97 32.3505 1319.57 37.0496 Q1316.21 41.7081 1316.21 49.9314 Z" fill="#000000" fill-rule="evenodd" fill-opacity="1" /><path clip-path="url(#clip810)" d="M 0 0 M1356.88 27.2059 L1364.33 27.2059 L1364.33 72.576 L1356.88 72.576 L1356.88 27.2059 M1356.88 9.54393 L1364.33 9.54393 L1364.33 18.9825 L1356.88 18.9825 L1356.88 9.54393 Z" fill="#000000" fill-rule="evenodd" fill-opacity="1" /><path clip-path="url(#clip810)" d="M 0 0 M1410.96 48.0275 L1410.96 51.6733 L1376.69 51.6733 Q1377.17 59.3701 1381.3 63.421 Q1385.48 67.4314 1392.89 67.4314 Q1397.18 67.4314 1401.19 66.3781 Q1405.25 65.3249 1409.22 63.2184 L1409.22 70.267 Q1405.21 71.9684 1400.99 72.8596 Q1396.78 73.7508 1392.44 73.7508 Q1381.59 73.7508 1375.23 67.4314 Q1368.91 61.1119 1368.91 50.3365 Q1368.91 39.1965 1374.9 32.6746 Q1380.94 26.1121 1391.15 26.1121 Q1400.3 26.1121 1405.61 32.0264 Q1410.96 37.9003 1410.96 48.0275 M1403.5 45.84 Q1403.42 39.7232 1400.06 36.0774 Q1396.74 32.4315 1391.23 32.4315 Q1384.99 32.4315 1381.22 35.9558 Q1377.5 39.4801 1376.93 45.8805 L1403.5 45.84 Z" fill="#000000" fill-rule="evenodd" fill-opacity="1" /><path clip-path="url(#clip810)" d="M 0 0 M1456.49 45.1919 L1456.49 72.576 L1449.04 72.576 L1449.04 45.4349 Q1449.04 38.994 1446.52 35.7938 Q1444.01 32.5936 1438.99 32.5936 Q1432.95 32.5936 1429.47 36.4419 Q1425.99 40.2903 1425.99 46.9338 L1425.99 72.576 L1418.49 72.576 L1418.49 27.2059 L1425.99 27.2059 L1425.99 34.2544 Q1428.66 30.163 1432.27 28.1376 Q1435.91 26.1121 1440.65 26.1121 Q1448.47 26.1121 1452.48 30.9732 Q1456.49 35.7938 1456.49 45.1919 Z" fill="#000000" fill-rule="evenodd" fill-opacity="1" /><path clip-path="url(#clip810)" d="M 0 0 M1471.68 14.324 L1471.68 27.2059 L1487.03 27.2059 L1487.03 32.9987 L1471.68 32.9987 L1471.68 57.6282 Q1471.68 63.1779 1473.18 64.7578 Q1474.72 66.3376 1479.38 66.3376 L1487.03 66.3376 L1487.03 72.576 L1479.38 72.576 Q1470.75 72.576 1467.47 69.3758 Q1464.19 66.1351 1464.19 57.6282 L1464.19 32.9987 L1458.72 32.9987 L1458.72 27.2059 L1464.19 27.2059 L1464.19 14.324 L1471.68 14.324 Z" fill="#000000" fill-rule="evenodd" fill-opacity="1" /><path clip-path="url(#clip810)" d="M 0 0 M1557.8 14.0809 L1557.8 22.0612 Q1553.14 19.8332 1549.01 18.7395 Q1544.88 17.6457 1541.03 17.6457 Q1534.35 17.6457 1530.7 20.2383 Q1527.1 22.8309 1527.1 27.611 Q1527.1 31.6214 1529.49 33.6873 Q1531.92 35.7128 1538.64 36.9686 L1543.58 37.9813 Q1552.74 39.7232 1557.07 44.1387 Q1561.45 48.5136 1561.45 55.8863 Q1561.45 64.6767 1555.53 69.2137 Q1549.66 73.7508 1538.28 73.7508 Q1533.98 73.7508 1529.12 72.7785 Q1524.3 71.8063 1519.12 69.9024 L1519.12 61.4765 Q1524.1 64.2716 1528.88 65.6895 Q1533.66 67.1073 1538.28 67.1073 Q1545.29 67.1073 1549.09 64.3527 Q1552.9 61.598 1552.9 56.4939 Q1552.9 52.0379 1550.15 49.5264 Q1547.43 47.0148 1541.19 45.759 L1536.21 44.7868 Q1527.06 42.9639 1522.96 39.075 Q1518.87 35.1862 1518.87 28.2591 Q1518.87 20.2383 1524.5 15.6203 Q1530.18 11.0023 1540.1 11.0023 Q1544.35 11.0023 1548.77 11.7719 Q1553.18 12.5416 1557.8 14.0809 Z" fill="#000000" fill-rule="evenodd" fill-opacity="1" /><path clip-path="url(#clip810)" d="M 0 0 M1576.64 14.324 L1576.64 27.2059 L1591.99 27.2059 L1591.99 32.9987 L1576.64 32.9987 L1576.64 57.6282 Q1576.64 63.1779 1578.14 64.7578 Q1579.68 66.3376 1584.34 66.3376 L1591.99 66.3376 L1591.99 72.576 L1584.34 72.576 Q1575.71 72.576 1572.43 69.3758 Q1569.15 66.1351 1569.15 57.6282 L1569.15 32.9987 L1563.68 32.9987 L1563.68 27.2059 L1569.15 27.2059 L1569.15 14.324 L1576.64 14.324 Z" fill="#000000" fill-rule="evenodd" fill-opacity="1" /><path clip-path="url(#clip810)" d="M 0 0 M1638.62 48.0275 L1638.62 51.6733 L1604.35 51.6733 Q1604.83 59.3701 1608.97 63.421 Q1613.14 67.4314 1620.55 67.4314 Q1624.85 67.4314 1628.86 66.3781 Q1632.91 65.3249 1636.88 63.2184 L1636.88 70.267 Q1632.87 71.9684 1628.65 72.8596 Q1624.44 73.7508 1620.11 73.7508 Q1609.25 73.7508 1602.89 67.4314 Q1596.57 61.1119 1596.57 50.3365 Q1596.57 39.1965 1602.57 32.6746 Q1608.6 26.1121 1618.81 26.1121 Q1627.96 26.1121 1633.27 32.0264 Q1638.62 37.9003 1638.62 48.0275 M1631.16 45.84 Q1631.08 39.7232 1627.72 36.0774 Q1624.4 32.4315 1618.89 32.4315 Q1612.65 32.4315 1608.88 35.9558 Q1605.16 39.4801 1604.59 45.8805 L1631.16 45.84 Z" fill="#000000" fill-rule="evenodd" fill-opacity="1" /><path clip-path="url(#clip810)" d="M 0 0 M1653.65 65.7705 L1653.65 89.8329 L1646.15 89.8329 L1646.15 27.2059 L1653.65 27.2059 L1653.65 34.0924 Q1656 30.0415 1659.56 28.0971 Q1663.17 26.1121 1668.15 26.1121 Q1676.41 26.1121 1681.56 32.6746 Q1686.74 39.2371 1686.74 49.9314 Q1686.74 60.6258 1681.56 67.1883 Q1676.41 73.7508 1668.15 73.7508 Q1663.17 73.7508 1659.56 71.8063 Q1656 69.8214 1653.65 65.7705 M1679.01 49.9314 Q1679.01 41.7081 1675.6 37.0496 Q1672.24 32.3505 1666.33 32.3505 Q1660.41 32.3505 1657.01 37.0496 Q1653.65 41.7081 1653.65 49.9314 Q1653.65 58.1548 1657.01 62.8538 Q1660.41 67.5124 1666.33 67.5124 Q1672.24 67.5124 1675.6 62.8538 Q1679.01 58.1548 1679.01 49.9314 Z" fill="#000000" fill-rule="evenodd" fill-opacity="1" /><path clip-path="url(#clip810)" d="M 0 0 M1723.48 28.5427 L1723.48 35.5912 Q1720.32 33.9709 1716.92 33.1607 Q1713.52 32.3505 1709.87 32.3505 Q1704.32 32.3505 1701.53 34.0519 Q1698.77 35.7533 1698.77 39.156 Q1698.77 41.7486 1700.76 43.2475 Q1702.74 44.7058 1708.74 46.0426 L1711.29 46.6097 Q1719.23 48.3111 1722.55 51.4303 Q1725.92 54.509 1725.92 60.0587 Q1725.92 66.3781 1720.89 70.0644 Q1715.91 73.7508 1707.16 73.7508 Q1703.51 73.7508 1699.54 73.0216 Q1695.61 72.3329 1691.24 70.9151 L1691.24 63.2184 Q1695.37 65.3654 1699.38 66.4591 Q1703.39 67.5124 1707.32 67.5124 Q1712.59 67.5124 1715.42 65.73 Q1718.26 63.9071 1718.26 60.6258 Q1718.26 57.5877 1716.19 55.9673 Q1714.17 54.3469 1707.24 52.8481 L1704.65 52.2405 Q1697.72 50.7821 1694.64 47.7845 Q1691.56 44.7463 1691.56 39.4801 Q1691.56 33.0797 1696.1 29.5959 Q1700.64 26.1121 1708.98 26.1121 Q1713.11 26.1121 1716.76 26.7198 Q1720.41 27.3274 1723.48 28.5427 Z" fill="#000000" fill-rule="evenodd" fill-opacity="1" /><path clip-path="url(#clip810)" d="M 0 0 M1046.58 102.816 L1054.76 102.816 L1054.76 127.608 L1084.5 127.608 L1084.5 102.816 L1092.68 102.816 L1092.68 163.296 L1084.5 163.296 L1084.5 134.494 L1054.76 134.494 L1054.76 163.296 L1046.58 163.296 L1046.58 102.816 Z" fill="#000000" fill-rule="evenodd" fill-opacity="1" /><path clip-path="url(#clip810)" d="M 0 0 M1118.08 123.152 Q1112.08 123.152 1108.6 127.851 Q1105.11 132.509 1105.11 140.651 Q1105.11 148.794 1108.56 153.493 Q1112.04 158.151 1118.08 158.151 Q1124.03 158.151 1127.52 153.452 Q1131 148.753 1131 140.651 Q1131 132.59 1127.52 127.891 Q1124.03 123.152 1118.08 123.152 M1118.08 116.832 Q1127.8 116.832 1133.35 123.152 Q1138.9 129.471 1138.9 140.651 Q1138.9 151.791 1133.35 158.151 Q1127.8 164.471 1118.08 164.471 Q1108.31 164.471 1102.76 158.151 Q1097.26 151.791 1097.26 140.651 Q1097.26 129.471 1102.76 123.152 Q1108.31 116.832 1118.08 116.832 Z" fill="#000000" fill-rule="evenodd" fill-opacity="1" /><path clip-path="url(#clip810)" d="M 0 0 M1164.3 123.152 Q1158.3 123.152 1154.82 127.851 Q1151.33 132.509 1151.33 140.651 Q1151.33 148.794 1154.78 153.493 Q1158.26 158.151 1164.3 158.151 Q1170.25 158.151 1173.74 153.452 Q1177.22 148.753 1177.22 140.651 Q1177.22 132.59 1173.74 127.891 Q1170.25 123.152 1164.3 123.152 M1164.3 116.832 Q1174.02 116.832 1179.57 123.152 Q1185.12 129.471 1185.12 140.651 Q1185.12 151.791 1179.57 158.151 Q1174.02 164.471 1164.3 164.471 Q1154.54 164.471 1148.99 158.151 Q1143.48 151.791 1143.48 140.651 Q1143.48 129.471 1148.99 123.152 Q1154.54 116.832 1164.3 116.832 Z" fill="#000000" fill-rule="evenodd" fill-opacity="1" /><path clip-path="url(#clip810)" d="M 0 0 M1192.65 100.264 L1200.15 100.264 L1200.15 137.492 L1222.39 117.926 L1231.91 117.926 L1207.85 139.153 L1232.92 163.296 L1223.2 163.296 L1200.15 141.138 L1200.15 163.296 L1192.65 163.296 L1192.65 100.264 Z" fill="#000000" fill-rule="evenodd" fill-opacity="1" /><path clip-path="url(#clip810)" d="M 0 0 M1276.59 138.748 L1276.59 142.393 L1242.32 142.393 Q1242.8 150.09 1246.94 154.141 Q1251.11 158.151 1258.52 158.151 Q1262.82 158.151 1266.83 157.098 Q1270.88 156.045 1274.85 153.938 L1274.85 160.987 Q1270.84 162.688 1266.62 163.58 Q1262.41 164.471 1258.08 164.471 Q1247.22 164.471 1240.86 158.151 Q1234.54 151.832 1234.54 141.057 Q1234.54 129.917 1240.54 123.395 Q1246.57 116.832 1256.78 116.832 Q1265.94 116.832 1271.24 122.746 Q1276.59 128.62 1276.59 138.748 M1269.14 136.56 Q1269.05 130.443 1265.69 126.797 Q1262.37 123.152 1256.86 123.152 Q1250.62 123.152 1246.86 126.676 Q1243.13 130.2 1242.56 136.601 L1269.14 136.56 Z" fill="#000000" fill-rule="evenodd" fill-opacity="1" /><path clip-path="url(#clip810)" d="M 0 0 M1280.64 137.249 L1302.47 137.249 L1302.47 143.892 L1280.64 143.892 L1280.64 137.249 Z" fill="#000000" fill-rule="evenodd" fill-opacity="1" /><path clip-path="url(#clip810)" d="M 0 0 M1315.23 102.816 L1323.42 102.816 L1323.42 159.083 Q1323.42 170.021 1319.24 174.963 Q1315.11 179.905 1305.92 179.905 L1302.8 179.905 L1302.8 173.018 L1305.35 173.018 Q1310.78 173.018 1313.01 169.98 Q1315.23 166.942 1315.23 159.083 L1315.23 102.816 Z" fill="#000000" fill-rule="evenodd" fill-opacity="1" /><path clip-path="url(#clip810)" d="M 0 0 M1370.04 138.748 L1370.04 142.393 L1335.77 142.393 Q1336.26 150.09 1340.39 154.141 Q1344.56 158.151 1351.98 158.151 Q1356.27 158.151 1360.28 157.098 Q1364.33 156.045 1368.3 153.938 L1368.3 160.987 Q1364.29 162.688 1360.08 163.58 Q1355.87 164.471 1351.53 164.471 Q1340.67 164.471 1334.31 158.151 Q1327.99 151.832 1327.99 141.057 Q1327.99 129.917 1333.99 123.395 Q1340.03 116.832 1350.23 116.832 Q1359.39 116.832 1364.7 122.746 Q1370.04 128.62 1370.04 138.748 M1362.59 136.56 Q1362.51 130.443 1359.15 126.797 Q1355.82 123.152 1350.32 123.152 Q1344.08 123.152 1340.31 126.676 Q1336.58 130.2 1336.02 136.601 L1362.59 136.56 Z" fill="#000000" fill-rule="evenodd" fill-opacity="1" /><path clip-path="url(#clip810)" d="M 0 0 M1416.67 138.748 L1416.67 142.393 L1382.4 142.393 Q1382.88 150.09 1387.02 154.141 Q1391.19 158.151 1398.6 158.151 Q1402.9 158.151 1406.91 157.098 Q1410.96 156.045 1414.93 153.938 L1414.93 160.987 Q1410.92 162.688 1406.7 163.58 Q1402.49 164.471 1398.16 164.471 Q1387.3 164.471 1380.94 158.151 Q1374.62 151.832 1374.62 141.057 Q1374.62 129.917 1380.62 123.395 Q1386.65 116.832 1396.86 116.832 Q1406.02 116.832 1411.32 122.746 Q1416.67 128.62 1416.67 138.748 M1409.22 136.56 Q1409.13 130.443 1405.77 126.797 Q1402.45 123.152 1396.94 123.152 Q1390.7 123.152 1386.94 126.676 Q1383.21 130.2 1382.64 136.601 L1409.22 136.56 Z" fill="#000000" fill-rule="evenodd" fill-opacity="1" /><path clip-path="url(#clip810)" d="M 0 0 M1419.14 117.926 L1427.04 117.926 L1441.22 156.004 L1455.4 117.926 L1463.3 117.926 L1446.28 163.296 L1436.15 163.296 L1419.14 117.926 Z" fill="#000000" fill-rule="evenodd" fill-opacity="1" /><path clip-path="url(#clip810)" d="M 0 0 M1509.92 138.748 L1509.92 142.393 L1475.65 142.393 Q1476.14 150.09 1480.27 154.141 Q1484.44 158.151 1491.85 158.151 Q1496.15 158.151 1500.16 157.098 Q1504.21 156.045 1508.18 153.938 L1508.18 160.987 Q1504.17 162.688 1499.96 163.58 Q1495.74 164.471 1491.41 164.471 Q1480.55 164.471 1474.19 158.151 Q1467.87 151.832 1467.87 141.057 Q1467.87 129.917 1473.87 123.395 Q1479.9 116.832 1490.11 116.832 Q1499.27 116.832 1504.57 122.746 Q1509.92 128.62 1509.92 138.748 M1502.47 136.56 Q1502.39 130.443 1499.02 126.797 Q1495.7 123.152 1490.19 123.152 Q1483.95 123.152 1480.19 126.676 Q1476.46 130.2 1475.89 136.601 L1502.47 136.56 Z" fill="#000000" fill-rule="evenodd" fill-opacity="1" /><path clip-path="url(#clip810)" d="M 0 0 M1546.66 119.263 L1546.66 126.311 Q1543.5 124.691 1540.1 123.881 Q1536.7 123.071 1533.05 123.071 Q1527.5 123.071 1524.71 124.772 Q1521.95 126.473 1521.95 129.876 Q1521.95 132.469 1523.94 133.967 Q1525.92 135.426 1531.92 136.763 L1534.47 137.33 Q1542.41 139.031 1545.73 142.15 Q1549.09 145.229 1549.09 150.779 Q1549.09 157.098 1544.07 160.784 Q1539.09 164.471 1530.34 164.471 Q1526.69 164.471 1522.72 163.742 Q1518.79 163.053 1514.42 161.635 L1514.42 153.938 Q1518.55 156.085 1522.56 157.179 Q1526.57 158.232 1530.5 158.232 Q1535.77 158.232 1538.6 156.45 Q1541.44 154.627 1541.44 151.346 Q1541.44 148.308 1539.37 146.687 Q1537.35 145.067 1530.42 143.568 L1527.83 142.96 Q1520.9 141.502 1517.82 138.504 Q1514.74 135.466 1514.74 130.2 Q1514.74 123.8 1519.28 120.316 Q1523.82 116.832 1532.16 116.832 Q1536.29 116.832 1539.94 117.44 Q1543.58 118.047 1546.66 119.263 Z" fill="#000000" fill-rule="evenodd" fill-opacity="1" /><polyline clip-path="url(#clip812)" style="stroke:#009af9; stroke-width:12; stroke-opacity:1; fill:none" points="
  302.628,351.665 359.497,351.665 
  "/>
<circle clip-path="url(#clip812)" cx="302.628" cy="351.665" r="10" fill="#009af9" fill-rule="evenodd" fill-opacity="1" stroke="#000000" stroke-opacity="1" stroke-width="3.2"/>
<circle clip-path="url(#clip812)" cx="359.497" cy="351.665" r="10" fill="#009af9" fill-rule="evenodd" fill-opacity="1" stroke="#000000" stroke-opacity="1" stroke-width="3.2"/>
<polyline clip-path="url(#clip812)" style="stroke:#e26f46; stroke-width:12; stroke-opacity:1; fill:none" points="
  302.628,219.025 359.497,224.594 416.366,233.165 473.235,245.021 530.104,260.594 586.973,248.067 643.842,251.72 700.711,257.29 757.58,264.892 814.449,277.459 
  871.318,291.275 928.187,311.172 985.056,336.785 1041.93,369.7 1098.79,412.512 1155.66,378.477 1212.53,390.545 1269.4,408.572 1326.27,433.772 1383.14,462.679 
  1440.01,505.665 1496.88,554.898 1553.75,619.556 1610.62,710.579 1667.48,891.406 1724.35,741.85 1781.22,772.094 1838.09,811.651 1894.96,904.57 1951.83,1034.84 
  2008.7,1388.11 2065.57,1121.83 2122.44,908.585 2179.31,795.734 2236.17,908.585 2293.04,908.585 
  "/>
<circle clip-path="url(#clip812)" cx="302.628" cy="219.025" r="10" fill="#e26f46" fill-rule="evenodd" fill-opacity="1" stroke="#000000" stroke-opacity="1" stroke-width="3.2"/>
<circle clip-path="url(#clip812)" cx="359.497" cy="224.594" r="10" fill="#e26f46" fill-rule="evenodd" fill-opacity="1" stroke="#000000" stroke-opacity="1" stroke-width="3.2"/>
<circle clip-path="url(#clip812)" cx="416.366" cy="233.165" r="10" fill="#e26f46" fill-rule="evenodd" fill-opacity="1" stroke="#000000" stroke-opacity="1" stroke-width="3.2"/>
<circle clip-path="url(#clip812)" cx="473.235" cy="245.021" r="10" fill="#e26f46" fill-rule="evenodd" fill-opacity="1" stroke="#000000" stroke-opacity="1" stroke-width="3.2"/>
<circle clip-path="url(#clip812)" cx="530.104" cy="260.594" r="10" fill="#e26f46" fill-rule="evenodd" fill-opacity="1" stroke="#000000" stroke-opacity="1" stroke-width="3.2"/>
<circle clip-path="url(#clip812)" cx="586.973" cy="248.067" r="10" fill="#e26f46" fill-rule="evenodd" fill-opacity="1" stroke="#000000" stroke-opacity="1" stroke-width="3.2"/>
<circle clip-path="url(#clip812)" cx="643.842" cy="251.72" r="10" fill="#e26f46" fill-rule="evenodd" fill-opacity="1" stroke="#000000" stroke-opacity="1" stroke-width="3.2"/>
<circle clip-path="url(#clip812)" cx="700.711" cy="257.29" r="10" fill="#e26f46" fill-rule="evenodd" fill-opacity="1" stroke="#000000" stroke-opacity="1" stroke-width="3.2"/>
<circle clip-path="url(#clip812)" cx="757.58" cy="264.892" r="10" fill="#e26f46" fill-rule="evenodd" fill-opacity="1" stroke="#000000" stroke-opacity="1" stroke-width="3.2"/>
<circle clip-path="url(#clip812)" cx="814.449" cy="277.459" r="10" fill="#e26f46" fill-rule="evenodd" fill-opacity="1" stroke="#000000" stroke-opacity="1" stroke-width="3.2"/>
<circle clip-path="url(#clip812)" cx="871.318" cy="291.275" r="10" fill="#e26f46" fill-rule="evenodd" fill-opacity="1" stroke="#000000" stroke-opacity="1" stroke-width="3.2"/>
<circle clip-path="url(#clip812)" cx="928.187" cy="311.172" r="10" fill="#e26f46" fill-rule="evenodd" fill-opacity="1" stroke="#000000" stroke-opacity="1" stroke-width="3.2"/>
<circle clip-path="url(#clip812)" cx="985.056" cy="336.785" r="10" fill="#e26f46" fill-rule="evenodd" fill-opacity="1" stroke="#000000" stroke-opacity="1" stroke-width="3.2"/>
<circle clip-path="url(#clip812)" cx="1041.93" cy="369.7" r="10" fill="#e26f46" fill-rule="evenodd" fill-opacity="1" stroke="#000000" stroke-opacity="1" stroke-width="3.2"/>
<circle clip-path="url(#clip812)" cx="1098.79" cy="412.512" r="10" fill="#e26f46" fill-rule="evenodd" fill-opacity="1" stroke="#000000" stroke-opacity="1" stroke-width="3.2"/>
<circle clip-path="url(#clip812)" cx="1155.66" cy="378.477" r="10" fill="#e26f46" fill-rule="evenodd" fill-opacity="1" stroke="#000000" stroke-opacity="1" stroke-width="3.2"/>
<circle clip-path="url(#clip812)" cx="1212.53" cy="390.545" r="10" fill="#e26f46" fill-rule="evenodd" fill-opacity="1" stroke="#000000" stroke-opacity="1" stroke-width="3.2"/>
<circle clip-path="url(#clip812)" cx="1269.4" cy="408.572" r="10" fill="#e26f46" fill-rule="evenodd" fill-opacity="1" stroke="#000000" stroke-opacity="1" stroke-width="3.2"/>
<circle clip-path="url(#clip812)" cx="1326.27" cy="433.772" r="10" fill="#e26f46" fill-rule="evenodd" fill-opacity="1" stroke="#000000" stroke-opacity="1" stroke-width="3.2"/>
<circle clip-path="url(#clip812)" cx="1383.14" cy="462.679" r="10" fill="#e26f46" fill-rule="evenodd" fill-opacity="1" stroke="#000000" stroke-opacity="1" stroke-width="3.2"/>
<circle clip-path="url(#clip812)" cx="1440.01" cy="505.665" r="10" fill="#e26f46" fill-rule="evenodd" fill-opacity="1" stroke="#000000" stroke-opacity="1" stroke-width="3.2"/>
<circle clip-path="url(#clip812)" cx="1496.88" cy="554.898" r="10" fill="#e26f46" fill-rule="evenodd" fill-opacity="1" stroke="#000000" stroke-opacity="1" stroke-width="3.2"/>
<circle clip-path="url(#clip812)" cx="1553.75" cy="619.556" r="10" fill="#e26f46" fill-rule="evenodd" fill-opacity="1" stroke="#000000" stroke-opacity="1" stroke-width="3.2"/>
<circle clip-path="url(#clip812)" cx="1610.62" cy="710.579" r="10" fill="#e26f46" fill-rule="evenodd" fill-opacity="1" stroke="#000000" stroke-opacity="1" stroke-width="3.2"/>
<circle clip-path="url(#clip812)" cx="1667.48" cy="891.406" r="10" fill="#e26f46" fill-rule="evenodd" fill-opacity="1" stroke="#000000" stroke-opacity="1" stroke-width="3.2"/>
<circle clip-path="url(#clip812)" cx="1724.35" cy="741.85" r="10" fill="#e26f46" fill-rule="evenodd" fill-opacity="1" stroke="#000000" stroke-opacity="1" stroke-width="3.2"/>
<circle clip-path="url(#clip812)" cx="1781.22" cy="772.094" r="10" fill="#e26f46" fill-rule="evenodd" fill-opacity="1" stroke="#000000" stroke-opacity="1" stroke-width="3.2"/>
<circle clip-path="url(#clip812)" cx="1838.09" cy="811.651" r="10" fill="#e26f46" fill-rule="evenodd" fill-opacity="1" stroke="#000000" stroke-opacity="1" stroke-width="3.2"/>
<circle clip-path="url(#clip812)" cx="1894.96" cy="904.57" r="10" fill="#e26f46" fill-rule="evenodd" fill-opacity="1" stroke="#000000" stroke-opacity="1" stroke-width="3.2"/>
<circle clip-path="url(#clip812)" cx="1951.83" cy="1034.84" r="10" fill="#e26f46" fill-rule="evenodd" fill-opacity="1" stroke="#000000" stroke-opacity="1" stroke-width="3.2"/>
<circle clip-path="url(#clip812)" cx="2008.7" cy="1388.11" r="10" fill="#e26f46" fill-rule="evenodd" fill-opacity="1" stroke="#000000" stroke-opacity="1" stroke-width="3.2"/>
<circle clip-path="url(#clip812)" cx="2065.57" cy="1121.83" r="10" fill="#e26f46" fill-rule="evenodd" fill-opacity="1" stroke="#000000" stroke-opacity="1" stroke-width="3.2"/>
<circle clip-path="url(#clip812)" cx="2122.44" cy="908.585" r="10" fill="#e26f46" fill-rule="evenodd" fill-opacity="1" stroke="#000000" stroke-opacity="1" stroke-width="3.2"/>
<circle clip-path="url(#clip812)" cx="2179.31" cy="795.734" r="10" fill="#e26f46" fill-rule="evenodd" fill-opacity="1" stroke="#000000" stroke-opacity="1" stroke-width="3.2"/>
<circle clip-path="url(#clip812)" cx="2236.17" cy="908.585" r="10" fill="#e26f46" fill-rule="evenodd" fill-opacity="1" stroke="#000000" stroke-opacity="1" stroke-width="3.2"/>
<circle clip-path="url(#clip812)" cx="2293.04" cy="908.585" r="10" fill="#e26f46" fill-rule="evenodd" fill-opacity="1" stroke="#000000" stroke-opacity="1" stroke-width="3.2"/>
<polyline clip-path="url(#clip812)" style="stroke:#3da44d; stroke-width:12; stroke-opacity:1; fill:none" points="
  302.628,249.776 359.497,249.776 
  "/>
<circle clip-path="url(#clip812)" cx="302.628" cy="249.776" r="10" fill="#3da44d" fill-rule="evenodd" fill-opacity="1" stroke="#000000" stroke-opacity="1" stroke-width="3.2"/>
<circle clip-path="url(#clip812)" cx="359.497" cy="249.776" r="10" fill="#3da44d" fill-rule="evenodd" fill-opacity="1" stroke="#000000" stroke-opacity="1" stroke-width="3.2"/>
<path clip-path="url(#clip810)" d="
M1762.42 467.18 L2282.43 467.18 L2282.43 225.26 L1762.42 225.26  Z
  " fill="#ffffff" fill-rule="evenodd" fill-opacity="1"/>
<polyline clip-path="url(#clip810)" style="stroke:#000000; stroke-width:4; stroke-opacity:1; fill:none" points="
  1762.42,467.18 2282.43,467.18 2282.43,225.26 1762.42,225.26 1762.42,467.18 
  "/>
<polyline clip-path="url(#clip810)" style="stroke:#009af9; stroke-width:4; stroke-opacity:1; fill:none" points="
  1785.87,285.74 1926.52,285.74 
  "/>
<circle clip-path="url(#clip810)" cx="1856.19" cy="285.74" r="23" fill="#009af9" fill-rule="evenodd" fill-opacity="1" stroke="#000000" stroke-opacity="1" stroke-width="6.82667"/>
<path clip-path="url(#clip810)" d="M 0 0 M1949.97 268.46 L1954.64 268.46 L1954.64 303.02 L1949.97 303.02 L1949.97 268.46 Z" fill="#000000" fill-rule="evenodd" fill-opacity="1" /><path clip-path="url(#clip810)" d="M 0 0 M1980.66 287.372 L1980.66 303.02 L1976.4 303.02 L1976.4 287.511 Q1976.4 283.83 1974.97 282.001 Q1973.53 280.173 1970.66 280.173 Q1967.21 280.173 1965.22 282.372 Q1963.23 284.571 1963.23 288.367 L1963.23 303.02 L1958.95 303.02 L1958.95 277.094 L1963.23 277.094 L1963.23 281.122 Q1964.76 278.784 1966.82 277.626 Q1968.9 276.469 1971.61 276.469 Q1976.08 276.469 1978.37 279.247 Q1980.66 282.001 1980.66 287.372 Z" fill="#000000" fill-rule="evenodd" fill-opacity="1" /><path clip-path="url(#clip810)" d="M 0 0 M1985.13 277.094 L1989.39 277.094 L1989.39 303.02 L1985.13 303.02 L1985.13 277.094 M1985.13 267.001 L1989.39 267.001 L1989.39 272.395 L1985.13 272.395 L1985.13 267.001 Z" fill="#000000" fill-rule="evenodd" fill-opacity="1" /><path clip-path="url(#clip810)" d="M 0 0 M1998.07 269.733 L1998.07 277.094 L2006.84 277.094 L2006.84 280.404 L1998.07 280.404 L1998.07 294.478 Q1998.07 297.649 1998.92 298.552 Q1999.8 299.455 2002.47 299.455 L2006.84 299.455 L2006.84 303.02 L2002.47 303.02 Q1997.53 303.02 1995.66 301.191 Q1993.78 299.339 1993.78 294.478 L1993.78 280.404 L1990.66 280.404 L1990.66 277.094 L1993.78 277.094 L1993.78 269.733 L1998.07 269.733 Z" fill="#000000" fill-rule="evenodd" fill-opacity="1" /><path clip-path="url(#clip810)" d="M 0 0 M2011.31 277.094 L2015.57 277.094 L2015.57 303.02 L2011.31 303.02 L2011.31 277.094 M2011.31 267.001 L2015.57 267.001 L2015.57 272.395 L2011.31 272.395 L2011.31 267.001 Z" fill="#000000" fill-rule="evenodd" fill-opacity="1" /><path clip-path="url(#clip810)" d="M 0 0 M2031.82 289.987 Q2026.65 289.987 2024.66 291.168 Q2022.67 292.348 2022.67 295.196 Q2022.67 297.464 2024.15 298.807 Q2025.66 300.126 2028.23 300.126 Q2031.77 300.126 2033.9 297.626 Q2036.05 295.103 2036.05 290.936 L2036.05 289.987 L2031.82 289.987 M2040.31 288.228 L2040.31 303.02 L2036.05 303.02 L2036.05 299.085 Q2034.59 301.446 2032.42 302.58 Q2030.24 303.691 2027.09 303.691 Q2023.11 303.691 2020.75 301.469 Q2018.41 299.223 2018.41 295.473 Q2018.41 291.098 2021.33 288.876 Q2024.27 286.654 2030.08 286.654 L2036.05 286.654 L2036.05 286.237 Q2036.05 283.298 2034.11 281.7 Q2032.19 280.08 2028.69 280.08 Q2026.47 280.08 2024.36 280.612 Q2022.26 281.145 2020.31 282.21 L2020.31 278.274 Q2022.65 277.372 2024.85 276.932 Q2027.05 276.469 2029.13 276.469 Q2034.76 276.469 2037.53 279.386 Q2040.31 282.302 2040.31 288.228 Z" fill="#000000" fill-rule="evenodd" fill-opacity="1" /><path clip-path="url(#clip810)" d="M 0 0 M2044.78 267.001 L2049.04 267.001 L2049.04 303.02 L2044.78 303.02 L2044.78 267.001 Z" fill="#000000" fill-rule="evenodd" fill-opacity="1" /><path clip-path="url(#clip810)" d="M 0 0 M2092.33 298.089 L2092.33 288.807 L2084.69 288.807 L2084.69 284.964 L2096.96 284.964 L2096.96 299.802 Q2094.25 301.723 2090.98 302.719 Q2087.72 303.691 2084.02 303.691 Q2075.91 303.691 2071.33 298.969 Q2066.77 294.223 2066.77 285.774 Q2066.77 277.302 2071.33 272.58 Q2075.91 267.835 2084.02 267.835 Q2087.4 267.835 2090.43 268.668 Q2093.48 269.501 2096.05 271.122 L2096.05 276.099 Q2093.46 273.9 2090.54 272.788 Q2087.63 271.677 2084.41 271.677 Q2078.07 271.677 2074.87 275.219 Q2071.7 278.761 2071.7 285.774 Q2071.7 292.765 2074.87 296.307 Q2078.07 299.848 2084.41 299.848 Q2086.89 299.848 2088.83 299.432 Q2090.77 298.992 2092.33 298.089 Z" fill="#000000" fill-rule="evenodd" fill-opacity="1" /><path clip-path="url(#clip810)" d="M 0 0 M2100.98 292.788 L2100.98 277.094 L2105.24 277.094 L2105.24 292.626 Q2105.24 296.307 2106.68 298.159 Q2108.11 299.987 2110.98 299.987 Q2114.43 299.987 2116.42 297.788 Q2118.44 295.589 2118.44 291.793 L2118.44 277.094 L2122.7 277.094 L2122.7 303.02 L2118.44 303.02 L2118.44 299.038 Q2116.89 301.399 2114.83 302.557 Q2112.79 303.691 2110.08 303.691 Q2105.61 303.691 2103.3 300.913 Q2100.98 298.135 2100.98 292.788 M2111.7 276.469 L2111.7 276.469 Z" fill="#000000" fill-rule="evenodd" fill-opacity="1" /><path clip-path="url(#clip810)" d="M 0 0 M2149.34 288.992 L2149.34 291.075 L2129.76 291.075 Q2130.03 295.473 2132.39 297.788 Q2134.78 300.08 2139.02 300.08 Q2141.47 300.08 2143.76 299.478 Q2146.08 298.876 2148.34 297.673 L2148.34 301.7 Q2146.05 302.672 2143.64 303.182 Q2141.24 303.691 2138.76 303.691 Q2132.56 303.691 2128.92 300.08 Q2125.31 296.469 2125.31 290.311 Q2125.31 283.946 2128.74 280.219 Q2132.19 276.469 2138.02 276.469 Q2143.25 276.469 2146.28 279.849 Q2149.34 283.205 2149.34 288.992 M2145.08 287.742 Q2145.03 284.247 2143.11 282.163 Q2141.21 280.08 2138.07 280.08 Q2134.5 280.08 2132.35 282.094 Q2130.22 284.108 2129.89 287.765 L2145.08 287.742 Z" fill="#000000" fill-rule="evenodd" fill-opacity="1" /><path clip-path="url(#clip810)" d="M 0 0 M2170.33 277.858 L2170.33 281.886 Q2168.53 280.96 2166.58 280.497 Q2164.64 280.034 2162.56 280.034 Q2159.39 280.034 2157.79 281.006 Q2156.21 281.978 2156.21 283.923 Q2156.21 285.404 2157.35 286.261 Q2158.48 287.094 2161.91 287.858 L2163.37 288.182 Q2167.9 289.154 2169.8 290.936 Q2171.72 292.696 2171.72 295.867 Q2171.72 299.478 2168.85 301.585 Q2166.01 303.691 2161.01 303.691 Q2158.92 303.691 2156.65 303.274 Q2154.41 302.881 2151.91 302.071 L2151.91 297.673 Q2154.27 298.899 2156.56 299.524 Q2158.85 300.126 2161.1 300.126 Q2164.11 300.126 2165.73 299.108 Q2167.35 298.066 2167.35 296.191 Q2167.35 294.455 2166.17 293.529 Q2165.01 292.603 2161.05 291.747 L2159.57 291.399 Q2155.61 290.566 2153.85 288.853 Q2152.09 287.117 2152.09 284.108 Q2152.09 280.45 2154.69 278.46 Q2157.28 276.469 2162.05 276.469 Q2164.41 276.469 2166.49 276.816 Q2168.58 277.163 2170.33 277.858 Z" fill="#000000" fill-rule="evenodd" fill-opacity="1" /><path clip-path="url(#clip810)" d="M 0 0 M2192.72 277.858 L2192.72 281.886 Q2190.91 280.96 2188.97 280.497 Q2187.02 280.034 2184.94 280.034 Q2181.77 280.034 2180.17 281.006 Q2178.6 281.978 2178.6 283.923 Q2178.6 285.404 2179.73 286.261 Q2180.87 287.094 2184.29 287.858 L2185.75 288.182 Q2190.29 289.154 2192.19 290.936 Q2194.11 292.696 2194.11 295.867 Q2194.11 299.478 2191.24 301.585 Q2188.39 303.691 2183.39 303.691 Q2181.31 303.691 2179.04 303.274 Q2176.79 302.881 2174.29 302.071 L2174.29 297.673 Q2176.65 298.899 2178.95 299.524 Q2181.24 300.126 2183.48 300.126 Q2186.49 300.126 2188.11 299.108 Q2189.73 298.066 2189.73 296.191 Q2189.73 294.455 2188.55 293.529 Q2187.39 292.603 2183.44 291.747 L2181.95 291.399 Q2178 290.566 2176.24 288.853 Q2174.48 287.117 2174.48 284.108 Q2174.48 280.45 2177.07 278.46 Q2179.66 276.469 2184.43 276.469 Q2186.79 276.469 2188.88 276.816 Q2190.96 277.163 2192.72 277.858 Z" fill="#000000" fill-rule="evenodd" fill-opacity="1" /><path clip-path="url(#clip810)" d="M 0 0 M2215.06 299.085 L2222.7 299.085 L2222.7 272.719 L2214.39 274.386 L2214.39 270.126 L2222.65 268.46 L2227.33 268.46 L2227.33 299.085 L2234.96 299.085 L2234.96 303.02 L2215.06 303.02 L2215.06 299.085 Z" fill="#000000" fill-rule="evenodd" fill-opacity="1" /><polyline clip-path="url(#clip810)" style="stroke:#e26f46; stroke-width:4; stroke-opacity:1; fill:none" points="
  1785.87,346.22 1926.52,346.22 
  "/>
<circle clip-path="url(#clip810)" cx="1856.19" cy="346.22" r="23" fill="#e26f46" fill-rule="evenodd" fill-opacity="1" stroke="#000000" stroke-opacity="1" stroke-width="6.82667"/>
<path clip-path="url(#clip810)" d="M 0 0 M1949.97 328.94 L1954.64 328.94 L1954.64 363.5 L1949.97 363.5 L1949.97 328.94 Z" fill="#000000" fill-rule="evenodd" fill-opacity="1" /><path clip-path="url(#clip810)" d="M 0 0 M1980.66 347.852 L1980.66 363.5 L1976.4 363.5 L1976.4 347.991 Q1976.4 344.31 1974.97 342.481 Q1973.53 340.653 1970.66 340.653 Q1967.21 340.653 1965.22 342.852 Q1963.23 345.051 1963.23 348.847 L1963.23 363.5 L1958.95 363.5 L1958.95 337.574 L1963.23 337.574 L1963.23 341.602 Q1964.76 339.264 1966.82 338.106 Q1968.9 336.949 1971.61 336.949 Q1976.08 336.949 1978.37 339.727 Q1980.66 342.481 1980.66 347.852 Z" fill="#000000" fill-rule="evenodd" fill-opacity="1" /><path clip-path="url(#clip810)" d="M 0 0 M1985.13 337.574 L1989.39 337.574 L1989.39 363.5 L1985.13 363.5 L1985.13 337.574 M1985.13 327.481 L1989.39 327.481 L1989.39 332.875 L1985.13 332.875 L1985.13 327.481 Z" fill="#000000" fill-rule="evenodd" fill-opacity="1" /><path clip-path="url(#clip810)" d="M 0 0 M1998.07 330.213 L1998.07 337.574 L2006.84 337.574 L2006.84 340.884 L1998.07 340.884 L1998.07 354.958 Q1998.07 358.129 1998.92 359.032 Q1999.8 359.935 2002.47 359.935 L2006.84 359.935 L2006.84 363.5 L2002.47 363.5 Q1997.53 363.5 1995.66 361.671 Q1993.78 359.819 1993.78 354.958 L1993.78 340.884 L1990.66 340.884 L1990.66 337.574 L1993.78 337.574 L1993.78 330.213 L1998.07 330.213 Z" fill="#000000" fill-rule="evenodd" fill-opacity="1" /><path clip-path="url(#clip810)" d="M 0 0 M2011.31 337.574 L2015.57 337.574 L2015.57 363.5 L2011.31 363.5 L2011.31 337.574 M2011.31 327.481 L2015.57 327.481 L2015.57 332.875 L2011.31 332.875 L2011.31 327.481 Z" fill="#000000" fill-rule="evenodd" fill-opacity="1" /><path clip-path="url(#clip810)" d="M 0 0 M2031.82 350.467 Q2026.65 350.467 2024.66 351.648 Q2022.67 352.828 2022.67 355.676 Q2022.67 357.944 2024.15 359.287 Q2025.66 360.606 2028.23 360.606 Q2031.77 360.606 2033.9 358.106 Q2036.05 355.583 2036.05 351.416 L2036.05 350.467 L2031.82 350.467 M2040.31 348.708 L2040.31 363.5 L2036.05 363.5 L2036.05 359.565 Q2034.59 361.926 2032.42 363.06 Q2030.24 364.171 2027.09 364.171 Q2023.11 364.171 2020.75 361.949 Q2018.41 359.703 2018.41 355.953 Q2018.41 351.578 2021.33 349.356 Q2024.27 347.134 2030.08 347.134 L2036.05 347.134 L2036.05 346.717 Q2036.05 343.778 2034.11 342.18 Q2032.19 340.56 2028.69 340.56 Q2026.47 340.56 2024.36 341.092 Q2022.26 341.625 2020.31 342.69 L2020.31 338.754 Q2022.65 337.852 2024.85 337.412 Q2027.05 336.949 2029.13 336.949 Q2034.76 336.949 2037.53 339.866 Q2040.31 342.782 2040.31 348.708 Z" fill="#000000" fill-rule="evenodd" fill-opacity="1" /><path clip-path="url(#clip810)" d="M 0 0 M2044.78 327.481 L2049.04 327.481 L2049.04 363.5 L2044.78 363.5 L2044.78 327.481 Z" fill="#000000" fill-rule="evenodd" fill-opacity="1" /><path clip-path="url(#clip810)" d="M 0 0 M2092.33 358.569 L2092.33 349.287 L2084.69 349.287 L2084.69 345.444 L2096.96 345.444 L2096.96 360.282 Q2094.25 362.203 2090.98 363.199 Q2087.72 364.171 2084.02 364.171 Q2075.91 364.171 2071.33 359.449 Q2066.77 354.703 2066.77 346.254 Q2066.77 337.782 2071.33 333.06 Q2075.91 328.315 2084.02 328.315 Q2087.4 328.315 2090.43 329.148 Q2093.48 329.981 2096.05 331.602 L2096.05 336.579 Q2093.46 334.38 2090.54 333.268 Q2087.63 332.157 2084.41 332.157 Q2078.07 332.157 2074.87 335.699 Q2071.7 339.241 2071.7 346.254 Q2071.7 353.245 2074.87 356.787 Q2078.07 360.328 2084.41 360.328 Q2086.89 360.328 2088.83 359.912 Q2090.77 359.472 2092.33 358.569 Z" fill="#000000" fill-rule="evenodd" fill-opacity="1" /><path clip-path="url(#clip810)" d="M 0 0 M2100.98 353.268 L2100.98 337.574 L2105.24 337.574 L2105.24 353.106 Q2105.24 356.787 2106.68 358.639 Q2108.11 360.467 2110.98 360.467 Q2114.43 360.467 2116.42 358.268 Q2118.44 356.069 2118.44 352.273 L2118.44 337.574 L2122.7 337.574 L2122.7 363.5 L2118.44 363.5 L2118.44 359.518 Q2116.89 361.879 2114.83 363.037 Q2112.79 364.171 2110.08 364.171 Q2105.61 364.171 2103.3 361.393 Q2100.98 358.615 2100.98 353.268 M2111.7 336.949 L2111.7 336.949 Z" fill="#000000" fill-rule="evenodd" fill-opacity="1" /><path clip-path="url(#clip810)" d="M 0 0 M2149.34 349.472 L2149.34 351.555 L2129.76 351.555 Q2130.03 355.953 2132.39 358.268 Q2134.78 360.56 2139.02 360.56 Q2141.47 360.56 2143.76 359.958 Q2146.08 359.356 2148.34 358.153 L2148.34 362.18 Q2146.05 363.152 2143.64 363.662 Q2141.24 364.171 2138.76 364.171 Q2132.56 364.171 2128.92 360.56 Q2125.31 356.949 2125.31 350.791 Q2125.31 344.426 2128.74 340.699 Q2132.19 336.949 2138.02 336.949 Q2143.25 336.949 2146.28 340.329 Q2149.34 343.685 2149.34 349.472 M2145.08 348.222 Q2145.03 344.727 2143.11 342.643 Q2141.21 340.56 2138.07 340.56 Q2134.5 340.56 2132.35 342.574 Q2130.22 344.588 2129.89 348.245 L2145.08 348.222 Z" fill="#000000" fill-rule="evenodd" fill-opacity="1" /><path clip-path="url(#clip810)" d="M 0 0 M2170.33 338.338 L2170.33 342.366 Q2168.53 341.44 2166.58 340.977 Q2164.64 340.514 2162.56 340.514 Q2159.39 340.514 2157.79 341.486 Q2156.21 342.458 2156.21 344.403 Q2156.21 345.884 2157.35 346.741 Q2158.48 347.574 2161.91 348.338 L2163.37 348.662 Q2167.9 349.634 2169.8 351.416 Q2171.72 353.176 2171.72 356.347 Q2171.72 359.958 2168.85 362.065 Q2166.01 364.171 2161.01 364.171 Q2158.92 364.171 2156.65 363.754 Q2154.41 363.361 2151.91 362.551 L2151.91 358.153 Q2154.27 359.379 2156.56 360.004 Q2158.85 360.606 2161.1 360.606 Q2164.11 360.606 2165.73 359.588 Q2167.35 358.546 2167.35 356.671 Q2167.35 354.935 2166.17 354.009 Q2165.01 353.083 2161.05 352.227 L2159.57 351.879 Q2155.61 351.046 2153.85 349.333 Q2152.09 347.597 2152.09 344.588 Q2152.09 340.93 2154.69 338.94 Q2157.28 336.949 2162.05 336.949 Q2164.41 336.949 2166.49 337.296 Q2168.58 337.643 2170.33 338.338 Z" fill="#000000" fill-rule="evenodd" fill-opacity="1" /><path clip-path="url(#clip810)" d="M 0 0 M2192.72 338.338 L2192.72 342.366 Q2190.91 341.44 2188.97 340.977 Q2187.02 340.514 2184.94 340.514 Q2181.77 340.514 2180.17 341.486 Q2178.6 342.458 2178.6 344.403 Q2178.6 345.884 2179.73 346.741 Q2180.87 347.574 2184.29 348.338 L2185.75 348.662 Q2190.29 349.634 2192.19 351.416 Q2194.11 353.176 2194.11 356.347 Q2194.11 359.958 2191.24 362.065 Q2188.39 364.171 2183.39 364.171 Q2181.31 364.171 2179.04 363.754 Q2176.79 363.361 2174.29 362.551 L2174.29 358.153 Q2176.65 359.379 2178.95 360.004 Q2181.24 360.606 2183.48 360.606 Q2186.49 360.606 2188.11 359.588 Q2189.73 358.546 2189.73 356.671 Q2189.73 354.935 2188.55 354.009 Q2187.39 353.083 2183.44 352.227 L2181.95 351.879 Q2178 351.046 2176.24 349.333 Q2174.48 347.597 2174.48 344.588 Q2174.48 340.93 2177.07 338.94 Q2179.66 336.949 2184.43 336.949 Q2186.79 336.949 2188.88 337.296 Q2190.96 337.643 2192.72 338.338 Z" fill="#000000" fill-rule="evenodd" fill-opacity="1" /><path clip-path="url(#clip810)" d="M 0 0 M2218.27 359.565 L2234.59 359.565 L2234.59 363.5 L2212.65 363.5 L2212.65 359.565 Q2215.31 356.81 2219.89 352.18 Q2224.5 347.528 2225.68 346.185 Q2227.93 343.662 2228.81 341.926 Q2229.71 340.167 2229.71 338.477 Q2229.71 335.722 2227.76 333.986 Q2225.84 332.25 2222.74 332.25 Q2220.54 332.25 2218.09 333.014 Q2215.66 333.778 2212.88 335.329 L2212.88 330.606 Q2215.7 329.472 2218.16 328.893 Q2220.61 328.315 2222.65 328.315 Q2228.02 328.315 2231.21 331 Q2234.41 333.685 2234.41 338.176 Q2234.41 340.305 2233.6 342.227 Q2232.81 344.125 2230.7 346.717 Q2230.13 347.389 2227.02 350.606 Q2223.92 353.801 2218.27 359.565 Z" fill="#000000" fill-rule="evenodd" fill-opacity="1" /><polyline clip-path="url(#clip810)" style="stroke:#3da44d; stroke-width:4; stroke-opacity:1; fill:none" points="
  1785.87,406.7 1926.52,406.7 
  "/>
<circle clip-path="url(#clip810)" cx="1856.19" cy="406.7" r="23" fill="#3da44d" fill-rule="evenodd" fill-opacity="1" stroke="#000000" stroke-opacity="1" stroke-width="6.82667"/>
<path clip-path="url(#clip810)" d="M 0 0 M1949.97 389.42 L1954.64 389.42 L1954.64 423.98 L1949.97 423.98 L1949.97 389.42 Z" fill="#000000" fill-rule="evenodd" fill-opacity="1" /><path clip-path="url(#clip810)" d="M 0 0 M1980.66 408.332 L1980.66 423.98 L1976.4 423.98 L1976.4 408.471 Q1976.4 404.79 1974.97 402.961 Q1973.53 401.133 1970.66 401.133 Q1967.21 401.133 1965.22 403.332 Q1963.23 405.531 1963.23 409.327 L1963.23 423.98 L1958.95 423.98 L1958.95 398.054 L1963.23 398.054 L1963.23 402.082 Q1964.76 399.744 1966.82 398.586 Q1968.9 397.429 1971.61 397.429 Q1976.08 397.429 1978.37 400.207 Q1980.66 402.961 1980.66 408.332 Z" fill="#000000" fill-rule="evenodd" fill-opacity="1" /><path clip-path="url(#clip810)" d="M 0 0 M1985.13 398.054 L1989.39 398.054 L1989.39 423.98 L1985.13 423.98 L1985.13 398.054 M1985.13 387.961 L1989.39 387.961 L1989.39 393.355 L1985.13 393.355 L1985.13 387.961 Z" fill="#000000" fill-rule="evenodd" fill-opacity="1" /><path clip-path="url(#clip810)" d="M 0 0 M1998.07 390.693 L1998.07 398.054 L2006.84 398.054 L2006.84 401.364 L1998.07 401.364 L1998.07 415.438 Q1998.07 418.609 1998.92 419.512 Q1999.8 420.415 2002.47 420.415 L2006.84 420.415 L2006.84 423.98 L2002.47 423.98 Q1997.53 423.98 1995.66 422.151 Q1993.78 420.299 1993.78 415.438 L1993.78 401.364 L1990.66 401.364 L1990.66 398.054 L1993.78 398.054 L1993.78 390.693 L1998.07 390.693 Z" fill="#000000" fill-rule="evenodd" fill-opacity="1" /><path clip-path="url(#clip810)" d="M 0 0 M2011.31 398.054 L2015.57 398.054 L2015.57 423.98 L2011.31 423.98 L2011.31 398.054 M2011.31 387.961 L2015.57 387.961 L2015.57 393.355 L2011.31 393.355 L2011.31 387.961 Z" fill="#000000" fill-rule="evenodd" fill-opacity="1" /><path clip-path="url(#clip810)" d="M 0 0 M2031.82 410.947 Q2026.65 410.947 2024.66 412.128 Q2022.67 413.308 2022.67 416.156 Q2022.67 418.424 2024.15 419.767 Q2025.66 421.086 2028.23 421.086 Q2031.77 421.086 2033.9 418.586 Q2036.05 416.063 2036.05 411.896 L2036.05 410.947 L2031.82 410.947 M2040.31 409.188 L2040.31 423.98 L2036.05 423.98 L2036.05 420.045 Q2034.59 422.406 2032.42 423.54 Q2030.24 424.651 2027.09 424.651 Q2023.11 424.651 2020.75 422.429 Q2018.41 420.183 2018.41 416.433 Q2018.41 412.058 2021.33 409.836 Q2024.27 407.614 2030.08 407.614 L2036.05 407.614 L2036.05 407.197 Q2036.05 404.258 2034.11 402.66 Q2032.19 401.04 2028.69 401.04 Q2026.47 401.04 2024.36 401.572 Q2022.26 402.105 2020.31 403.17 L2020.31 399.234 Q2022.65 398.332 2024.85 397.892 Q2027.05 397.429 2029.13 397.429 Q2034.76 397.429 2037.53 400.346 Q2040.31 403.262 2040.31 409.188 Z" fill="#000000" fill-rule="evenodd" fill-opacity="1" /><path clip-path="url(#clip810)" d="M 0 0 M2044.78 387.961 L2049.04 387.961 L2049.04 423.98 L2044.78 423.98 L2044.78 387.961 Z" fill="#000000" fill-rule="evenodd" fill-opacity="1" /><path clip-path="url(#clip810)" d="M 0 0 M2092.33 419.049 L2092.33 409.767 L2084.69 409.767 L2084.69 405.924 L2096.96 405.924 L2096.96 420.762 Q2094.25 422.683 2090.98 423.679 Q2087.72 424.651 2084.02 424.651 Q2075.91 424.651 2071.33 419.929 Q2066.77 415.183 2066.77 406.734 Q2066.77 398.262 2071.33 393.54 Q2075.91 388.795 2084.02 388.795 Q2087.4 388.795 2090.43 389.628 Q2093.48 390.461 2096.05 392.082 L2096.05 397.059 Q2093.46 394.86 2090.54 393.748 Q2087.63 392.637 2084.41 392.637 Q2078.07 392.637 2074.87 396.179 Q2071.7 399.721 2071.7 406.734 Q2071.7 413.725 2074.87 417.267 Q2078.07 420.808 2084.41 420.808 Q2086.89 420.808 2088.83 420.392 Q2090.77 419.952 2092.33 419.049 Z" fill="#000000" fill-rule="evenodd" fill-opacity="1" /><path clip-path="url(#clip810)" d="M 0 0 M2100.98 413.748 L2100.98 398.054 L2105.24 398.054 L2105.24 413.586 Q2105.24 417.267 2106.68 419.119 Q2108.11 420.947 2110.98 420.947 Q2114.43 420.947 2116.42 418.748 Q2118.44 416.549 2118.44 412.753 L2118.44 398.054 L2122.7 398.054 L2122.7 423.98 L2118.44 423.98 L2118.44 419.998 Q2116.89 422.359 2114.83 423.517 Q2112.79 424.651 2110.08 424.651 Q2105.61 424.651 2103.3 421.873 Q2100.98 419.095 2100.98 413.748 M2111.7 397.429 L2111.7 397.429 Z" fill="#000000" fill-rule="evenodd" fill-opacity="1" /><path clip-path="url(#clip810)" d="M 0 0 M2149.34 409.952 L2149.34 412.035 L2129.76 412.035 Q2130.03 416.433 2132.39 418.748 Q2134.78 421.04 2139.02 421.04 Q2141.47 421.04 2143.76 420.438 Q2146.08 419.836 2148.34 418.633 L2148.34 422.66 Q2146.05 423.632 2143.64 424.142 Q2141.24 424.651 2138.76 424.651 Q2132.56 424.651 2128.92 421.04 Q2125.31 417.429 2125.31 411.271 Q2125.31 404.906 2128.74 401.179 Q2132.19 397.429 2138.02 397.429 Q2143.25 397.429 2146.28 400.809 Q2149.34 404.165 2149.34 409.952 M2145.08 408.702 Q2145.03 405.207 2143.11 403.123 Q2141.21 401.04 2138.07 401.04 Q2134.5 401.04 2132.35 403.054 Q2130.22 405.068 2129.89 408.725 L2145.08 408.702 Z" fill="#000000" fill-rule="evenodd" fill-opacity="1" /><path clip-path="url(#clip810)" d="M 0 0 M2170.33 398.818 L2170.33 402.846 Q2168.53 401.92 2166.58 401.457 Q2164.64 400.994 2162.56 400.994 Q2159.39 400.994 2157.79 401.966 Q2156.21 402.938 2156.21 404.883 Q2156.21 406.364 2157.35 407.221 Q2158.48 408.054 2161.91 408.818 L2163.37 409.142 Q2167.9 410.114 2169.8 411.896 Q2171.72 413.656 2171.72 416.827 Q2171.72 420.438 2168.85 422.545 Q2166.01 424.651 2161.01 424.651 Q2158.92 424.651 2156.65 424.234 Q2154.41 423.841 2151.91 423.031 L2151.91 418.633 Q2154.27 419.859 2156.56 420.484 Q2158.85 421.086 2161.1 421.086 Q2164.11 421.086 2165.73 420.068 Q2167.35 419.026 2167.35 417.151 Q2167.35 415.415 2166.17 414.489 Q2165.01 413.563 2161.05 412.707 L2159.57 412.359 Q2155.61 411.526 2153.85 409.813 Q2152.09 408.077 2152.09 405.068 Q2152.09 401.41 2154.69 399.42 Q2157.28 397.429 2162.05 397.429 Q2164.41 397.429 2166.49 397.776 Q2168.58 398.123 2170.33 398.818 Z" fill="#000000" fill-rule="evenodd" fill-opacity="1" /><path clip-path="url(#clip810)" d="M 0 0 M2192.72 398.818 L2192.72 402.846 Q2190.91 401.92 2188.97 401.457 Q2187.02 400.994 2184.94 400.994 Q2181.77 400.994 2180.17 401.966 Q2178.6 402.938 2178.6 404.883 Q2178.6 406.364 2179.73 407.221 Q2180.87 408.054 2184.29 408.818 L2185.75 409.142 Q2190.29 410.114 2192.19 411.896 Q2194.11 413.656 2194.11 416.827 Q2194.11 420.438 2191.24 422.545 Q2188.39 424.651 2183.39 424.651 Q2181.31 424.651 2179.04 424.234 Q2176.79 423.841 2174.29 423.031 L2174.29 418.633 Q2176.65 419.859 2178.95 420.484 Q2181.24 421.086 2183.48 421.086 Q2186.49 421.086 2188.11 420.068 Q2189.73 419.026 2189.73 417.151 Q2189.73 415.415 2188.55 414.489 Q2187.39 413.563 2183.44 412.707 L2181.95 412.359 Q2178 411.526 2176.24 409.813 Q2174.48 408.077 2174.48 405.068 Q2174.48 401.41 2177.07 399.42 Q2179.66 397.429 2184.43 397.429 Q2186.79 397.429 2188.88 397.776 Q2190.96 398.123 2192.72 398.818 Z" fill="#000000" fill-rule="evenodd" fill-opacity="1" /><path clip-path="url(#clip810)" d="M 0 0 M2228.41 405.346 Q2231.77 406.063 2233.64 408.332 Q2235.54 410.6 2235.54 413.933 Q2235.54 419.049 2232.02 421.85 Q2228.51 424.651 2222.02 424.651 Q2219.85 424.651 2217.53 424.211 Q2215.24 423.795 2212.79 422.938 L2212.79 418.424 Q2214.73 419.558 2217.05 420.137 Q2219.36 420.716 2221.89 420.716 Q2226.28 420.716 2228.58 418.98 Q2230.89 417.244 2230.89 413.933 Q2230.89 410.878 2228.74 409.165 Q2226.61 407.429 2222.79 407.429 L2218.76 407.429 L2218.76 403.586 L2222.97 403.586 Q2226.42 403.586 2228.25 402.221 Q2230.08 400.832 2230.08 398.239 Q2230.08 395.577 2228.18 394.165 Q2226.31 392.73 2222.79 392.73 Q2220.87 392.73 2218.67 393.147 Q2216.47 393.563 2213.83 394.443 L2213.83 390.276 Q2216.49 389.535 2218.81 389.165 Q2221.14 388.795 2223.2 388.795 Q2228.53 388.795 2231.63 391.225 Q2234.73 393.633 2234.73 397.753 Q2234.73 400.623 2233.09 402.614 Q2231.45 404.582 2228.41 405.346 Z" fill="#000000" fill-rule="evenodd" fill-opacity="1" /></svg>
