<?xml version="1.0" encoding="utf-8"?>
<svg xmlns="http://www.w3.org/2000/svg" xmlns:xlink="http://www.w3.org/1999/xlink" width="600" height="400" viewBox="0 0 2400 1600">
<defs>
  <clipPath id="clip010">
    <rect x="0" y="0" width="2400" height="1600"/>
  </clipPath>
</defs>
<path clip-path="url(#clip010)" d="
M0 1600 L2400 1600 L2400 0 L0 0  Z
  " fill="#ffffff" fill-rule="evenodd" fill-opacity="1"/>
<defs>
  <clipPath id="clip011">
    <rect x="480" y="0" width="1681" height="1600"/>
  </clipPath>
</defs>
<path clip-path="url(#clip010)" d="
M273.14 1423.18 L2352.76 1423.18 L2352.76 183.952 L273.14 183.952  Z
  " fill="#ffffff" fill-rule="evenodd" fill-opacity="1"/>
<defs>
  <clipPath id="clip012">
    <rect x="273" y="183" width="2081" height="1240"/>
  </clipPath>
</defs>
<polyline clip-path="url(#clip012)" style="stroke:#000000; stroke-width:2; stroke-opacity:0.1; fill:none" points="
  331.997,1423.18 331.997,183.952 
  "/>
<polyline clip-path="url(#clip012)" style="stroke:#000000; stroke-width:2; stroke-opacity:0.1; fill:none" points="
  876.97,1423.18 876.97,183.952 
  "/>
<polyline clip-path="url(#clip012)" style="stroke:#000000; stroke-width:2; stroke-opacity:0.1; fill:none" points="
  1421.94,1423.18 1421.94,183.952 
  "/>
<polyline clip-path="url(#clip012)" style="stroke:#000000; stroke-width:2; stroke-opacity:0.1; fill:none" points="
  1966.92,1423.18 1966.92,183.952 
  "/>
<polyline clip-path="url(#clip010)" style="stroke:#000000; stroke-width:4; stroke-opacity:1; fill:none" points="
  273.14,1423.18 2352.76,1423.18 
  "/>
<polyline clip-path="url(#clip010)" style="stroke:#000000; stroke-width:4; stroke-opacity:1; fill:none" points="
  331.997,1423.18 331.997,1408.31 
  "/>
<polyline clip-path="url(#clip010)" style="stroke:#000000; stroke-width:4; stroke-opacity:1; fill:none" points="
  876.97,1423.18 876.97,1408.31 
  "/>
<polyline clip-path="url(#clip010)" style="stroke:#000000; stroke-width:4; stroke-opacity:1; fill:none" points="
  1421.94,1423.18 1421.94,1408.31 
  "/>
<polyline clip-path="url(#clip010)" style="stroke:#000000; stroke-width:4; stroke-opacity:1; fill:none" points="
  1966.92,1423.18 1966.92,1408.31 
  "/>
<path clip-path="url(#clip010)" d="M 0 0 M331.997 1452.37 Q328.386 1452.37 326.557 1455.94 Q324.752 1459.48 324.752 1466.61 Q324.752 1473.71 326.557 1477.28 Q328.386 1480.82 331.997 1480.82 Q335.631 1480.82 337.437 1477.28 Q339.266 1473.71 339.266 1466.61 Q339.266 1459.48 337.437 1455.94 Q335.631 1452.37 331.997 1452.37 M331.997 1448.67 Q337.807 1448.67 340.863 1453.27 Q343.941 1457.86 343.941 1466.61 Q343.941 1475.33 340.863 1479.94 Q337.807 1484.52 331.997 1484.52 Q326.187 1484.52 323.108 1479.94 Q320.053 1475.33 320.053 1466.61 Q320.053 1457.86 323.108 1453.27 Q326.187 1448.67 331.997 1448.67 Z" fill="#000000" fill-rule="evenodd" fill-opacity="1" /><path clip-path="url(#clip010)" d="M 0 0 M867.248 1449.29 L885.604 1449.29 L885.604 1453.23 L871.53 1453.23 L871.53 1461.7 Q872.549 1461.35 873.567 1461.19 Q874.586 1461 875.604 1461 Q881.391 1461 884.771 1464.18 Q888.15 1467.35 888.15 1472.76 Q888.15 1478.34 884.678 1481.44 Q881.206 1484.52 874.886 1484.52 Q872.711 1484.52 870.442 1484.15 Q868.197 1483.78 865.789 1483.04 L865.789 1478.34 Q867.873 1479.48 870.095 1480.03 Q872.317 1480.59 874.794 1480.59 Q878.798 1480.59 881.136 1478.48 Q883.474 1476.38 883.474 1472.76 Q883.474 1469.15 881.136 1467.05 Q878.798 1464.94 874.794 1464.94 Q872.919 1464.94 871.044 1465.36 Q869.192 1465.77 867.248 1466.65 L867.248 1449.29 Z" fill="#000000" fill-rule="evenodd" fill-opacity="1" /><path clip-path="url(#clip010)" d="M 0 0 M1398.82 1479.92 L1406.46 1479.92 L1406.46 1453.55 L1398.15 1455.22 L1398.15 1450.96 L1406.41 1449.29 L1411.09 1449.29 L1411.09 1479.92 L1418.72 1479.92 L1418.72 1483.85 L1398.82 1483.85 L1398.82 1479.92 Z" fill="#000000" fill-rule="evenodd" fill-opacity="1" /><path clip-path="url(#clip010)" d="M 0 0 M1433.79 1452.37 Q1430.18 1452.37 1428.35 1455.94 Q1426.55 1459.48 1426.55 1466.61 Q1426.55 1473.71 1428.35 1477.28 Q1430.18 1480.82 1433.79 1480.82 Q1437.43 1480.82 1439.23 1477.28 Q1441.06 1473.71 1441.06 1466.61 Q1441.06 1459.48 1439.23 1455.94 Q1437.43 1452.37 1433.79 1452.37 M1433.79 1448.67 Q1439.6 1448.67 1442.66 1453.27 Q1445.74 1457.86 1445.74 1466.61 Q1445.74 1475.33 1442.66 1479.94 Q1439.6 1484.52 1433.79 1484.52 Q1427.98 1484.52 1424.91 1479.94 Q1421.85 1475.33 1421.85 1466.61 Q1421.85 1457.86 1424.91 1453.27 Q1427.98 1448.67 1433.79 1448.67 Z" fill="#000000" fill-rule="evenodd" fill-opacity="1" /><path clip-path="url(#clip010)" d="M 0 0 M1944.29 1479.92 L1951.93 1479.92 L1951.93 1453.55 L1943.62 1455.22 L1943.62 1450.96 L1951.88 1449.29 L1956.56 1449.29 L1956.56 1479.92 L1964.2 1479.92 L1964.2 1483.85 L1944.29 1483.85 L1944.29 1479.92 Z" fill="#000000" fill-rule="evenodd" fill-opacity="1" /><path clip-path="url(#clip010)" d="M 0 0 M1969.31 1449.29 L1987.67 1449.29 L1987.67 1453.23 L1973.59 1453.23 L1973.59 1461.7 Q1974.61 1461.35 1975.63 1461.19 Q1976.65 1461 1977.67 1461 Q1983.45 1461 1986.83 1464.18 Q1990.21 1467.35 1990.21 1472.76 Q1990.21 1478.34 1986.74 1481.44 Q1983.27 1484.52 1976.95 1484.52 Q1974.77 1484.52 1972.51 1484.15 Q1970.26 1483.78 1967.85 1483.04 L1967.85 1478.34 Q1969.94 1479.48 1972.16 1480.03 Q1974.38 1480.59 1976.86 1480.59 Q1980.86 1480.59 1983.2 1478.48 Q1985.54 1476.38 1985.54 1472.76 Q1985.54 1469.15 1983.2 1467.05 Q1980.86 1464.94 1976.86 1464.94 Q1974.98 1464.94 1973.11 1465.36 Q1971.26 1465.77 1969.31 1466.65 L1969.31 1449.29 Z" fill="#000000" fill-rule="evenodd" fill-opacity="1" /><path clip-path="url(#clip010)" d="M 0 0 M803.691 1520.52 L810.121 1520.52 L810.121 1540 L833.483 1540 L833.483 1520.52 L839.912 1520.52 L839.912 1568.04 L833.483 1568.04 L833.483 1545.41 L810.121 1545.41 L810.121 1568.04 L803.691 1568.04 L803.691 1520.52 Z" fill="#000000" fill-rule="evenodd" fill-opacity="1" /><path clip-path="url(#clip010)" d="M 0 0 M859.869 1536.5 Q855.158 1536.5 852.421 1540.19 Q849.684 1543.85 849.684 1550.25 Q849.684 1556.65 852.389 1560.34 Q855.126 1564 859.869 1564 Q864.548 1564 867.285 1560.31 Q870.022 1556.62 870.022 1550.25 Q870.022 1543.92 867.285 1540.23 Q864.548 1536.5 859.869 1536.5 M859.869 1531.54 Q867.508 1531.54 871.868 1536.5 Q876.229 1541.47 876.229 1550.25 Q876.229 1559 871.868 1564 Q867.508 1568.97 859.869 1568.97 Q852.198 1568.97 847.838 1564 Q843.509 1559 843.509 1550.25 Q843.509 1541.47 847.838 1536.5 Q852.198 1531.54 859.869 1531.54 Z" fill="#000000" fill-rule="evenodd" fill-opacity="1" /><path clip-path="url(#clip010)" d="M 0 0 M896.185 1536.5 Q891.475 1536.5 888.737 1540.19 Q886 1543.85 886 1550.25 Q886 1556.65 888.705 1560.34 Q891.443 1564 896.185 1564 Q900.864 1564 903.601 1560.31 Q906.338 1556.62 906.338 1550.25 Q906.338 1543.92 903.601 1540.23 Q900.864 1536.5 896.185 1536.5 M896.185 1531.54 Q903.824 1531.54 908.184 1536.5 Q912.545 1541.47 912.545 1550.25 Q912.545 1559 908.184 1564 Q903.824 1568.97 896.185 1568.97 Q888.514 1568.97 884.154 1564 Q879.825 1559 879.825 1550.25 Q879.825 1541.47 884.154 1536.5 Q888.514 1531.54 896.185 1531.54 Z" fill="#000000" fill-rule="evenodd" fill-opacity="1" /><path clip-path="url(#clip010)" d="M 0 0 M918.465 1518.52 L924.353 1518.52 L924.353 1547.77 L941.827 1532.4 L949.307 1532.4 L930.401 1549.07 L950.103 1568.04 L942.464 1568.04 L924.353 1550.63 L924.353 1568.04 L918.465 1568.04 L918.465 1518.52 Z" fill="#000000" fill-rule="evenodd" fill-opacity="1" /><path clip-path="url(#clip010)" d="M 0 0 M984.414 1548.76 L984.414 1551.62 L957.487 1551.62 Q957.869 1557.67 961.115 1560.85 Q964.394 1564 970.218 1564 Q973.592 1564 976.743 1563.17 Q979.926 1562.35 983.045 1560.69 L983.045 1566.23 Q979.894 1567.57 976.584 1568.27 Q973.274 1568.97 969.868 1568.97 Q961.338 1568.97 956.341 1564 Q951.376 1559.04 951.376 1550.57 Q951.376 1541.82 956.086 1536.69 Q960.829 1531.54 968.85 1531.54 Q976.043 1531.54 980.212 1536.18 Q984.414 1540.8 984.414 1548.76 M978.557 1547.04 Q978.494 1542.23 975.852 1539.37 Q973.242 1536.5 968.913 1536.5 Q964.012 1536.5 961.052 1539.27 Q958.123 1542.04 957.678 1547.07 L978.557 1547.04 Z" fill="#000000" fill-rule="evenodd" fill-opacity="1" /><path clip-path="url(#clip010)" d="M 0 0 M987.597 1547.58 L1004.75 1547.58 L1004.75 1552.8 L987.597 1552.8 L987.597 1547.58 Z" fill="#000000" fill-rule="evenodd" fill-opacity="1" /><path clip-path="url(#clip010)" d="M 0 0 M1014.78 1520.52 L1021.21 1520.52 L1021.21 1564.73 Q1021.21 1573.33 1017.93 1577.21 Q1014.68 1581.09 1007.46 1581.09 L1005.01 1581.09 L1005.01 1575.68 L1007.01 1575.68 Q1011.28 1575.68 1013.03 1573.3 Q1014.78 1570.91 1014.78 1564.73 L1014.78 1520.52 Z" fill="#000000" fill-rule="evenodd" fill-opacity="1" /><path clip-path="url(#clip010)" d="M 0 0 M1057.84 1548.76 L1057.84 1551.62 L1030.92 1551.62 Q1031.3 1557.67 1034.54 1560.85 Q1037.82 1564 1043.65 1564 Q1047.02 1564 1050.17 1563.17 Q1053.35 1562.35 1056.47 1560.69 L1056.47 1566.23 Q1053.32 1567.57 1050.01 1568.27 Q1046.7 1568.97 1043.3 1568.97 Q1034.77 1568.97 1029.77 1564 Q1024.8 1559.04 1024.8 1550.57 Q1024.8 1541.82 1029.51 1536.69 Q1034.26 1531.54 1042.28 1531.54 Q1049.47 1531.54 1053.64 1536.18 Q1057.84 1540.8 1057.84 1548.76 M1051.99 1547.04 Q1051.92 1542.23 1049.28 1539.37 Q1046.67 1536.5 1042.34 1536.5 Q1037.44 1536.5 1034.48 1539.27 Q1031.55 1542.04 1031.11 1547.07 L1051.99 1547.04 Z" fill="#000000" fill-rule="evenodd" fill-opacity="1" /><path clip-path="url(#clip010)" d="M 0 0 M1094.48 1548.76 L1094.48 1551.62 L1067.55 1551.62 Q1067.93 1557.67 1071.18 1560.85 Q1074.46 1564 1080.28 1564 Q1083.66 1564 1086.81 1563.17 Q1089.99 1562.35 1093.11 1560.69 L1093.11 1566.23 Q1089.96 1567.57 1086.65 1568.27 Q1083.34 1568.97 1079.93 1568.97 Q1071.4 1568.97 1066.4 1564 Q1061.44 1559.04 1061.44 1550.57 Q1061.44 1541.82 1066.15 1536.69 Q1070.89 1531.54 1078.91 1531.54 Q1086.11 1531.54 1090.28 1536.18 Q1094.48 1540.8 1094.48 1548.76 M1088.62 1547.04 Q1088.56 1542.23 1085.92 1539.37 Q1083.31 1536.5 1078.98 1536.5 Q1074.07 1536.5 1071.11 1539.27 Q1068.19 1542.04 1067.74 1547.07 L1088.62 1547.04 Z" fill="#000000" fill-rule="evenodd" fill-opacity="1" /><path clip-path="url(#clip010)" d="M 0 0 M1096.42 1532.4 L1102.63 1532.4 L1113.76 1562.31 L1124.9 1532.4 L1131.11 1532.4 L1117.74 1568.04 L1109.79 1568.04 L1096.42 1532.4 Z" fill="#000000" fill-rule="evenodd" fill-opacity="1" /><path clip-path="url(#clip010)" d="M 0 0 M1167.75 1548.76 L1167.75 1551.62 L1140.82 1551.62 Q1141.2 1557.67 1144.45 1560.85 Q1147.73 1564 1153.55 1564 Q1156.92 1564 1160.08 1563.17 Q1163.26 1562.35 1166.38 1560.69 L1166.38 1566.23 Q1163.23 1567.57 1159.92 1568.27 Q1156.61 1568.97 1153.2 1568.97 Q1144.67 1568.97 1139.67 1564 Q1134.71 1559.04 1134.71 1550.57 Q1134.71 1541.82 1139.42 1536.69 Q1144.16 1531.54 1152.18 1531.54 Q1159.38 1531.54 1163.54 1536.18 Q1167.75 1540.8 1167.75 1548.76 M1161.89 1547.04 Q1161.83 1542.23 1159.18 1539.37 Q1156.57 1536.5 1152.25 1536.5 Q1147.34 1536.5 1144.38 1539.27 Q1141.46 1542.04 1141.01 1547.07 L1161.89 1547.04 Z" fill="#000000" fill-rule="evenodd" fill-opacity="1" /><path clip-path="url(#clip010)" d="M 0 0 M1196.61 1533.45 L1196.61 1538.98 Q1194.13 1537.71 1191.46 1537.07 Q1188.78 1536.44 1185.92 1536.44 Q1181.56 1536.44 1179.36 1537.77 Q1177.2 1539.11 1177.2 1541.79 Q1177.2 1543.82 1178.76 1545 Q1180.32 1546.15 1185.03 1547.2 L1187.03 1547.64 Q1193.27 1548.98 1195.88 1551.43 Q1198.52 1553.85 1198.52 1558.21 Q1198.52 1563.17 1194.58 1566.07 Q1190.66 1568.97 1183.79 1568.97 Q1180.92 1568.97 1177.8 1568.39 Q1174.72 1567.85 1171.28 1566.74 L1171.28 1560.69 Q1174.53 1562.38 1177.68 1563.24 Q1180.83 1564.07 1183.92 1564.07 Q1188.05 1564.07 1190.28 1562.66 Q1192.51 1561.23 1192.51 1558.65 Q1192.51 1556.27 1190.89 1554.99 Q1189.29 1553.72 1183.85 1552.54 L1181.81 1552.07 Q1176.37 1550.92 1173.95 1548.56 Q1171.53 1546.18 1171.53 1542.04 Q1171.53 1537.01 1175.1 1534.27 Q1178.66 1531.54 1185.22 1531.54 Q1188.47 1531.54 1191.33 1532.01 Q1194.2 1532.49 1196.61 1533.45 Z" fill="#000000" fill-rule="evenodd" fill-opacity="1" /><path clip-path="url(#clip010)" d="M 0 0 M1244.93 1524.88 Q1237.93 1524.88 1233.79 1530.1 Q1229.68 1535.32 1229.68 1544.33 Q1229.68 1553.31 1233.79 1558.53 Q1237.93 1563.75 1244.93 1563.75 Q1251.93 1563.75 1256.01 1558.53 Q1260.11 1553.31 1260.11 1544.33 Q1260.11 1535.32 1256.01 1530.1 Q1251.93 1524.88 1244.93 1524.88 M1244.93 1519.66 Q1254.92 1519.66 1260.91 1526.38 Q1266.89 1533.06 1266.89 1544.33 Q1266.89 1555.57 1260.91 1562.28 Q1254.92 1568.97 1244.93 1568.97 Q1234.9 1568.97 1228.89 1562.28 Q1222.91 1555.6 1222.91 1544.33 Q1222.91 1533.06 1228.89 1526.38 Q1234.9 1519.66 1244.93 1519.66 Z" fill="#000000" fill-rule="evenodd" fill-opacity="1" /><path clip-path="url(#clip010)" d="M 0 0 M1272.43 1553.98 L1272.43 1532.4 L1278.29 1532.4 L1278.29 1553.75 Q1278.29 1558.81 1280.26 1561.36 Q1282.23 1563.87 1286.18 1563.87 Q1290.92 1563.87 1293.66 1560.85 Q1296.43 1557.83 1296.43 1552.61 L1296.43 1532.4 L1302.29 1532.4 L1302.29 1568.04 L1296.43 1568.04 L1296.43 1562.57 Q1294.3 1565.82 1291.46 1567.41 Q1288.66 1568.97 1284.94 1568.97 Q1278.8 1568.97 1275.61 1565.15 Q1272.43 1561.33 1272.43 1553.98 M1287.17 1531.54 L1287.17 1531.54 Z" fill="#000000" fill-rule="evenodd" fill-opacity="1" /><path clip-path="url(#clip010)" d="M 0 0 M1314.22 1522.27 L1314.22 1532.4 L1326.28 1532.4 L1326.28 1536.95 L1314.22 1536.95 L1314.22 1556.3 Q1314.22 1560.66 1315.4 1561.9 Q1316.61 1563.14 1320.27 1563.14 L1326.28 1563.14 L1326.28 1568.04 L1320.27 1568.04 Q1313.49 1568.04 1310.91 1565.53 Q1308.33 1562.98 1308.33 1556.3 L1308.33 1536.95 L1304.04 1536.95 L1304.04 1532.4 L1308.33 1532.4 L1308.33 1522.27 L1314.22 1522.27 Z" fill="#000000" fill-rule="evenodd" fill-opacity="1" /><path clip-path="url(#clip010)" d="M 0 0 M1362.92 1548.76 L1362.92 1551.62 L1335.99 1551.62 Q1336.37 1557.67 1339.62 1560.85 Q1342.9 1564 1348.72 1564 Q1352.1 1564 1355.25 1563.17 Q1358.43 1562.35 1361.55 1560.69 L1361.55 1566.23 Q1358.4 1567.57 1355.09 1568.27 Q1351.78 1568.97 1348.37 1568.97 Q1339.84 1568.97 1334.85 1564 Q1329.88 1559.04 1329.88 1550.57 Q1329.88 1541.82 1334.59 1536.69 Q1339.33 1531.54 1347.35 1531.54 Q1354.55 1531.54 1358.72 1536.18 Q1362.92 1540.8 1362.92 1548.76 M1357.06 1547.04 Q1357 1542.23 1354.36 1539.37 Q1351.75 1536.5 1347.42 1536.5 Q1342.52 1536.5 1339.56 1539.27 Q1336.63 1542.04 1336.18 1547.07 L1357.06 1547.04 Z" fill="#000000" fill-rule="evenodd" fill-opacity="1" /><path clip-path="url(#clip010)" d="M 0 0 M1389.72 1537.87 Q1388.73 1537.3 1387.55 1537.04 Q1386.41 1536.76 1385.01 1536.76 Q1380.04 1536.76 1377.37 1540 Q1374.73 1543.22 1374.73 1549.27 L1374.73 1568.04 L1368.84 1568.04 L1368.84 1532.4 L1374.73 1532.4 L1374.73 1537.93 Q1376.57 1534.69 1379.53 1533.13 Q1382.49 1531.54 1386.73 1531.54 Q1387.33 1531.54 1388.06 1531.63 Q1388.8 1531.7 1389.69 1531.85 L1389.72 1537.87 Z" fill="#000000" fill-rule="evenodd" fill-opacity="1" /><path clip-path="url(#clip010)" d="M 0 0 M1388.73 1547.58 L1405.89 1547.58 L1405.89 1552.8 L1388.73 1552.8 L1388.73 1547.58 Z" fill="#000000" fill-rule="evenodd" fill-opacity="1" /><path clip-path="url(#clip010)" d="M 0 0 M1412.03 1518.52 L1417.89 1518.52 L1417.89 1568.04 L1412.03 1568.04 L1412.03 1518.52 Z" fill="#000000" fill-rule="evenodd" fill-opacity="1" /><path clip-path="url(#clip010)" d="M 0 0 M1437.84 1536.5 Q1433.13 1536.5 1430.4 1540.19 Q1427.66 1543.85 1427.66 1550.25 Q1427.66 1556.65 1430.36 1560.34 Q1433.1 1564 1437.84 1564 Q1442.52 1564 1445.26 1560.31 Q1448 1556.62 1448 1550.25 Q1448 1543.92 1445.26 1540.23 Q1442.52 1536.5 1437.84 1536.5 M1437.84 1531.54 Q1445.48 1531.54 1449.84 1536.5 Q1454.2 1541.47 1454.2 1550.25 Q1454.2 1559 1449.84 1564 Q1445.48 1568.97 1437.84 1568.97 Q1430.17 1568.97 1425.81 1564 Q1421.48 1559 1421.48 1550.25 Q1421.48 1541.47 1425.81 1536.5 Q1430.17 1531.54 1437.84 1531.54 Z" fill="#000000" fill-rule="evenodd" fill-opacity="1" /><path clip-path="url(#clip010)" d="M 0 0 M1474.16 1536.5 Q1469.45 1536.5 1466.71 1540.19 Q1463.97 1543.85 1463.97 1550.25 Q1463.97 1556.65 1466.68 1560.34 Q1469.42 1564 1474.16 1564 Q1478.84 1564 1481.58 1560.31 Q1484.31 1556.62 1484.31 1550.25 Q1484.31 1543.92 1481.58 1540.23 Q1478.84 1536.5 1474.16 1536.5 M1474.16 1531.54 Q1481.8 1531.54 1486.16 1536.5 Q1490.52 1541.47 1490.52 1550.25 Q1490.52 1559 1486.16 1564 Q1481.8 1568.97 1474.16 1568.97 Q1466.49 1568.97 1462.13 1564 Q1457.8 1559 1457.8 1550.25 Q1457.8 1541.47 1462.13 1536.5 Q1466.49 1531.54 1474.16 1531.54 Z" fill="#000000" fill-rule="evenodd" fill-opacity="1" /><path clip-path="url(#clip010)" d="M 0 0 M1502.33 1562.7 L1502.33 1581.6 L1496.44 1581.6 L1496.44 1532.4 L1502.33 1532.4 L1502.33 1537.81 Q1504.17 1534.62 1506.97 1533.1 Q1509.81 1531.54 1513.72 1531.54 Q1520.22 1531.54 1524.26 1536.69 Q1528.33 1541.85 1528.33 1550.25 Q1528.33 1558.65 1524.26 1563.81 Q1520.22 1568.97 1513.72 1568.97 Q1509.81 1568.97 1506.97 1567.44 Q1504.17 1565.88 1502.33 1562.7 M1522.25 1550.25 Q1522.25 1543.79 1519.58 1540.13 Q1516.94 1536.44 1512.29 1536.44 Q1507.64 1536.44 1504.97 1540.13 Q1502.33 1543.79 1502.33 1550.25 Q1502.33 1556.71 1504.97 1560.4 Q1507.64 1564.07 1512.29 1564.07 Q1516.94 1564.07 1519.58 1560.4 Q1522.25 1556.71 1522.25 1550.25 Z" fill="#000000" fill-rule="evenodd" fill-opacity="1" /><path clip-path="url(#clip010)" d="M 0 0 M1555.45 1520.52 L1561.88 1520.52 L1561.88 1568.04 L1555.45 1568.04 L1555.45 1520.52 Z" fill="#000000" fill-rule="evenodd" fill-opacity="1" /><path clip-path="url(#clip010)" d="M 0 0 M1573.81 1522.27 L1573.81 1532.4 L1585.88 1532.4 L1585.88 1536.95 L1573.81 1536.95 L1573.81 1556.3 Q1573.81 1560.66 1574.99 1561.9 Q1576.2 1563.14 1579.86 1563.14 L1585.88 1563.14 L1585.88 1568.04 L1579.86 1568.04 Q1573.08 1568.04 1570.5 1565.53 Q1567.93 1562.98 1567.93 1556.3 L1567.93 1536.95 L1563.63 1536.95 L1563.63 1532.4 L1567.93 1532.4 L1567.93 1522.27 L1573.81 1522.27 Z" fill="#000000" fill-rule="evenodd" fill-opacity="1" /><path clip-path="url(#clip010)" d="M 0 0 M1622.51 1548.76 L1622.51 1551.62 L1595.59 1551.62 Q1595.97 1557.67 1599.21 1560.85 Q1602.49 1564 1608.32 1564 Q1611.69 1564 1614.84 1563.17 Q1618.02 1562.35 1621.14 1560.69 L1621.14 1566.23 Q1617.99 1567.57 1614.68 1568.27 Q1611.37 1568.97 1607.97 1568.97 Q1599.44 1568.97 1594.44 1564 Q1589.47 1559.04 1589.47 1550.57 Q1589.47 1541.82 1594.18 1536.69 Q1598.93 1531.54 1606.95 1531.54 Q1614.14 1531.54 1618.31 1536.18 Q1622.51 1540.8 1622.51 1548.76 M1616.66 1547.04 Q1616.59 1542.23 1613.95 1539.37 Q1611.34 1536.5 1607.01 1536.5 Q1602.11 1536.5 1599.15 1539.27 Q1596.22 1542.04 1595.78 1547.07 L1616.66 1547.04 Z" fill="#000000" fill-rule="evenodd" fill-opacity="1" /><path clip-path="url(#clip010)" d="M 0 0 M1649.31 1537.87 Q1648.33 1537.3 1647.15 1537.04 Q1646 1536.76 1644.6 1536.76 Q1639.64 1536.76 1636.96 1540 Q1634.32 1543.22 1634.32 1549.27 L1634.32 1568.04 L1628.43 1568.04 L1628.43 1532.4 L1634.32 1532.4 L1634.32 1537.93 Q1636.17 1534.69 1639.13 1533.13 Q1642.09 1531.54 1646.32 1531.54 Q1646.92 1531.54 1647.66 1531.63 Q1648.39 1531.7 1649.28 1531.85 L1649.31 1537.87 Z" fill="#000000" fill-rule="evenodd" fill-opacity="1" /><path clip-path="url(#clip010)" d="M 0 0 M1671.66 1550.12 Q1664.56 1550.12 1661.82 1551.75 Q1659.08 1553.37 1659.08 1557.29 Q1659.08 1560.4 1661.12 1562.25 Q1663.19 1564.07 1666.72 1564.07 Q1671.59 1564.07 1674.52 1560.63 Q1677.48 1557.16 1677.48 1551.43 L1677.48 1550.12 L1671.66 1550.12 M1683.34 1547.71 L1683.34 1568.04 L1677.48 1568.04 L1677.48 1562.63 Q1675.47 1565.88 1672.48 1567.44 Q1669.49 1568.97 1665.16 1568.97 Q1659.69 1568.97 1656.44 1565.91 Q1653.23 1562.82 1653.23 1557.67 Q1653.23 1551.65 1657.24 1548.6 Q1661.28 1545.54 1669.27 1545.54 L1677.48 1545.54 L1677.48 1544.97 Q1677.48 1540.93 1674.81 1538.73 Q1672.16 1536.5 1667.36 1536.5 Q1664.3 1536.5 1661.41 1537.23 Q1658.51 1537.97 1655.84 1539.43 L1655.84 1534.02 Q1659.05 1532.78 1662.08 1532.17 Q1665.1 1531.54 1667.96 1531.54 Q1675.7 1531.54 1679.52 1535.55 Q1683.34 1539.56 1683.34 1547.71 Z" fill="#000000" fill-rule="evenodd" fill-opacity="1" /><path clip-path="url(#clip010)" d="M 0 0 M1695.27 1522.27 L1695.27 1532.4 L1707.34 1532.4 L1707.34 1536.95 L1695.27 1536.95 L1695.27 1556.3 Q1695.27 1560.66 1696.45 1561.9 Q1697.66 1563.14 1701.32 1563.14 L1707.34 1563.14 L1707.34 1568.04 L1701.32 1568.04 Q1694.54 1568.04 1691.96 1565.53 Q1689.38 1562.98 1689.38 1556.3 L1689.38 1536.95 L1685.09 1536.95 L1685.09 1532.4 L1689.38 1532.4 L1689.38 1522.27 L1695.27 1522.27 Z" fill="#000000" fill-rule="evenodd" fill-opacity="1" /><path clip-path="url(#clip010)" d="M 0 0 M1713.48 1532.4 L1719.33 1532.4 L1719.33 1568.04 L1713.48 1568.04 L1713.48 1532.4 M1713.48 1518.52 L1719.33 1518.52 L1719.33 1525.93 L1713.48 1525.93 L1713.48 1518.52 Z" fill="#000000" fill-rule="evenodd" fill-opacity="1" /><path clip-path="url(#clip010)" d="M 0 0 M1739.29 1536.5 Q1734.58 1536.5 1731.84 1540.19 Q1729.11 1543.85 1729.11 1550.25 Q1729.11 1556.65 1731.81 1560.34 Q1734.55 1564 1739.29 1564 Q1743.97 1564 1746.71 1560.31 Q1749.44 1556.62 1749.44 1550.25 Q1749.44 1543.92 1746.71 1540.23 Q1743.97 1536.5 1739.29 1536.5 M1739.29 1531.54 Q1746.93 1531.54 1751.29 1536.5 Q1755.65 1541.47 1755.65 1550.25 Q1755.65 1559 1751.29 1564 Q1746.93 1568.97 1739.29 1568.97 Q1731.62 1568.97 1727.26 1564 Q1722.93 1559 1722.93 1550.25 Q1722.93 1541.47 1727.26 1536.5 Q1731.62 1531.54 1739.29 1531.54 Z" fill="#000000" fill-rule="evenodd" fill-opacity="1" /><path clip-path="url(#clip010)" d="M 0 0 M1791.43 1546.53 L1791.43 1568.04 L1785.57 1568.04 L1785.57 1546.72 Q1785.57 1541.66 1783.6 1539.14 Q1781.62 1536.63 1777.68 1536.63 Q1772.93 1536.63 1770.2 1539.65 Q1767.46 1542.68 1767.46 1547.9 L1767.46 1568.04 L1761.57 1568.04 L1761.57 1532.4 L1767.46 1532.4 L1767.46 1537.93 Q1769.56 1534.72 1772.39 1533.13 Q1775.26 1531.54 1778.98 1531.54 Q1785.12 1531.54 1788.28 1535.36 Q1791.43 1539.14 1791.43 1546.53 Z" fill="#000000" fill-rule="evenodd" fill-opacity="1" /><path clip-path="url(#clip010)" d="M 0 0 M1820.29 1533.45 L1820.29 1538.98 Q1817.81 1537.71 1815.14 1537.07 Q1812.46 1536.44 1809.6 1536.44 Q1805.24 1536.44 1803.04 1537.77 Q1800.88 1539.11 1800.88 1541.79 Q1800.88 1543.82 1802.44 1545 Q1804 1546.15 1808.71 1547.2 L1810.71 1547.64 Q1816.95 1548.98 1819.56 1551.43 Q1822.2 1553.85 1822.2 1558.21 Q1822.2 1563.17 1818.26 1566.07 Q1814.34 1568.97 1807.47 1568.97 Q1804.6 1568.97 1801.48 1568.39 Q1798.4 1567.85 1794.96 1566.74 L1794.96 1560.69 Q1798.21 1562.38 1801.36 1563.24 Q1804.51 1564.07 1807.6 1564.07 Q1811.73 1564.07 1813.96 1562.66 Q1816.19 1561.23 1816.19 1558.65 Q1816.19 1556.27 1814.57 1554.99 Q1812.97 1553.72 1807.53 1552.54 L1805.49 1552.07 Q1800.05 1550.92 1797.63 1548.56 Q1795.21 1546.18 1795.21 1542.04 Q1795.21 1537.01 1798.78 1534.27 Q1802.34 1531.54 1808.9 1531.54 Q1812.15 1531.54 1815.01 1532.01 Q1817.88 1532.49 1820.29 1533.45 Z" fill="#000000" fill-rule="evenodd" fill-opacity="1" /><polyline clip-path="url(#clip012)" style="stroke:#000000; stroke-width:2; stroke-opacity:0.1; fill:none" points="
  273.14,1301.91 2352.76,1301.91 
  "/>
<polyline clip-path="url(#clip012)" style="stroke:#000000; stroke-width:2; stroke-opacity:0.1; fill:none" points="
  273.14,1118.45 2352.76,1118.45 
  "/>
<polyline clip-path="url(#clip012)" style="stroke:#000000; stroke-width:2; stroke-opacity:0.1; fill:none" points="
  273.14,934.983 2352.76,934.983 
  "/>
<polyline clip-path="url(#clip012)" style="stroke:#000000; stroke-width:2; stroke-opacity:0.1; fill:none" points="
  273.14,751.518 2352.76,751.518 
  "/>
<polyline clip-path="url(#clip012)" style="stroke:#000000; stroke-width:2; stroke-opacity:0.1; fill:none" points="
  273.14,568.053 2352.76,568.053 
  "/>
<polyline clip-path="url(#clip012)" style="stroke:#000000; stroke-width:2; stroke-opacity:0.1; fill:none" points="
  273.14,384.588 2352.76,384.588 
  "/>
<polyline clip-path="url(#clip012)" style="stroke:#000000; stroke-width:2; stroke-opacity:0.1; fill:none" points="
  273.14,201.123 2352.76,201.123 
  "/>
<polyline clip-path="url(#clip010)" style="stroke:#000000; stroke-width:4; stroke-opacity:1; fill:none" points="
  273.14,1423.18 273.14,183.952 
  "/>
<polyline clip-path="url(#clip010)" style="stroke:#000000; stroke-width:4; stroke-opacity:1; fill:none" points="
  273.14,1301.91 298.095,1301.91 
  "/>
<polyline clip-path="url(#clip010)" style="stroke:#000000; stroke-width:4; stroke-opacity:1; fill:none" points="
  273.14,1118.45 298.095,1118.45 
  "/>
<polyline clip-path="url(#clip010)" style="stroke:#000000; stroke-width:4; stroke-opacity:1; fill:none" points="
  273.14,934.983 298.095,934.983 
  "/>
<polyline clip-path="url(#clip010)" style="stroke:#000000; stroke-width:4; stroke-opacity:1; fill:none" points="
  273.14,751.518 298.095,751.518 
  "/>
<polyline clip-path="url(#clip010)" style="stroke:#000000; stroke-width:4; stroke-opacity:1; fill:none" points="
  273.14,568.053 298.095,568.053 
  "/>
<polyline clip-path="url(#clip010)" style="stroke:#000000; stroke-width:4; stroke-opacity:1; fill:none" points="
  273.14,384.588 298.095,384.588 
  "/>
<polyline clip-path="url(#clip010)" style="stroke:#000000; stroke-width:4; stroke-opacity:1; fill:none" points="
  273.14,201.123 298.095,201.123 
  "/>
<path clip-path="url(#clip010)" d="M 0 0 M115.928 1321.71 L123.567 1321.71 L123.567 1295.34 L115.257 1297.01 L115.257 1292.75 L123.521 1291.08 L128.197 1291.08 L128.197 1321.71 L135.836 1321.71 L135.836 1325.64 L115.928 1325.64 L115.928 1321.71 Z" fill="#000000" fill-rule="evenodd" fill-opacity="1" /><path clip-path="url(#clip010)" d="M 0 0 M150.905 1294.16 Q147.294 1294.16 145.465 1297.72 Q143.66 1301.27 143.66 1308.4 Q143.66 1315.5 145.465 1319.07 Q147.294 1322.61 150.905 1322.61 Q154.539 1322.61 156.345 1319.07 Q158.173 1315.5 158.173 1308.4 Q158.173 1301.27 156.345 1297.72 Q154.539 1294.16 150.905 1294.16 M150.905 1290.46 Q156.715 1290.46 159.771 1295.06 Q162.849 1299.65 162.849 1308.4 Q162.849 1317.12 159.771 1321.73 Q156.715 1326.31 150.905 1326.31 Q145.095 1326.31 142.016 1321.73 Q138.961 1317.12 138.961 1308.4 Q138.961 1299.65 142.016 1295.06 Q145.095 1290.46 150.905 1290.46 Z" fill="#000000" fill-rule="evenodd" fill-opacity="1" /><path clip-path="url(#clip010)" d="M 0 0 M162.849 1284.56 L186.961 1284.56 L186.961 1287.75 L162.849 1287.75 L162.849 1284.56 Z" fill="#000000" fill-rule="evenodd" fill-opacity="1" /><path clip-path="url(#clip010)" d="M 0 0 M191.738 1295.03 L197.945 1295.03 L197.945 1273.61 L191.193 1274.96 L191.193 1271.5 L197.907 1270.15 L201.706 1270.15 L201.706 1295.03 L207.913 1295.03 L207.913 1298.23 L191.738 1298.23 L191.738 1295.03 Z" fill="#000000" fill-rule="evenodd" fill-opacity="1" /><path clip-path="url(#clip010)" d="M 0 0 M212.032 1293.45 L216 1293.45 L216 1298.23 L212.032 1298.23 L212.032 1293.45 Z" fill="#000000" fill-rule="evenodd" fill-opacity="1" /><path clip-path="url(#clip010)" d="M 0 0 M220.157 1270.15 L235.071 1270.15 L235.071 1273.35 L223.636 1273.35 L223.636 1280.23 Q224.464 1279.95 225.291 1279.82 Q226.119 1279.67 226.946 1279.67 Q231.648 1279.67 234.394 1282.24 Q237.14 1284.82 237.14 1289.22 Q237.14 1293.75 234.319 1296.27 Q231.498 1298.78 226.363 1298.78 Q224.595 1298.78 222.752 1298.47 Q220.928 1298.17 218.972 1297.57 L218.972 1293.75 Q220.664 1294.68 222.47 1295.13 Q224.275 1295.58 226.288 1295.58 Q229.542 1295.58 231.441 1293.87 Q233.341 1292.16 233.341 1289.22 Q233.341 1286.29 231.441 1284.58 Q229.542 1282.86 226.288 1282.86 Q224.764 1282.86 223.241 1283.2 Q221.736 1283.54 220.157 1284.26 L220.157 1270.15 Z" fill="#000000" fill-rule="evenodd" fill-opacity="1" /><path clip-path="url(#clip010)" d="M 0 0 M115.12 1138.24 L122.758 1138.24 L122.758 1111.87 L114.448 1113.54 L114.448 1109.28 L122.712 1107.62 L127.388 1107.62 L127.388 1138.24 L135.027 1138.24 L135.027 1142.18 L115.12 1142.18 L115.12 1138.24 Z" fill="#000000" fill-rule="evenodd" fill-opacity="1" /><path clip-path="url(#clip010)" d="M 0 0 M150.096 1110.69 Q146.485 1110.69 144.656 1114.26 Q142.851 1117.8 142.851 1124.93 Q142.851 1132.04 144.656 1135.6 Q146.485 1139.14 150.096 1139.14 Q153.73 1139.14 155.536 1135.6 Q157.365 1132.04 157.365 1124.93 Q157.365 1117.8 155.536 1114.26 Q153.73 1110.69 150.096 1110.69 M150.096 1106.99 Q155.906 1106.99 158.962 1111.6 Q162.041 1116.18 162.041 1124.93 Q162.041 1133.66 158.962 1138.26 Q155.906 1142.85 150.096 1142.85 Q144.286 1142.85 141.207 1138.26 Q138.152 1133.66 138.152 1124.93 Q138.152 1116.18 141.207 1111.6 Q144.286 1106.99 150.096 1106.99 Z" fill="#000000" fill-rule="evenodd" fill-opacity="1" /><path clip-path="url(#clip010)" d="M 0 0 M162.041 1101.09 L186.152 1101.09 L186.152 1104.29 L162.041 1104.29 L162.041 1101.09 Z" fill="#000000" fill-rule="evenodd" fill-opacity="1" /><path clip-path="url(#clip010)" d="M 0 0 M190.929 1111.57 L197.136 1111.57 L197.136 1090.15 L190.384 1091.5 L190.384 1088.04 L197.098 1086.68 L200.897 1086.68 L200.897 1111.57 L207.104 1111.57 L207.104 1114.76 L190.929 1114.76 L190.929 1111.57 Z" fill="#000000" fill-rule="evenodd" fill-opacity="1" /><path clip-path="url(#clip010)" d="M 0 0 M211.223 1109.99 L215.191 1109.99 L215.191 1114.76 L211.223 1114.76 L211.223 1109.99 Z" fill="#000000" fill-rule="evenodd" fill-opacity="1" /><path clip-path="url(#clip010)" d="M 0 0 M227.435 1089.19 Q224.501 1089.19 223.015 1092.08 Q221.548 1094.96 221.548 1100.75 Q221.548 1106.53 223.015 1109.42 Q224.501 1112.3 227.435 1112.3 Q230.388 1112.3 231.855 1109.42 Q233.341 1106.53 233.341 1100.75 Q233.341 1094.96 231.855 1092.08 Q230.388 1089.19 227.435 1089.19 M227.435 1086.18 Q232.156 1086.18 234.639 1089.92 Q237.14 1093.64 237.14 1100.75 Q237.14 1107.84 234.639 1111.59 Q232.156 1115.31 227.435 1115.31 Q222.714 1115.31 220.213 1111.59 Q217.73 1107.84 217.73 1100.75 Q217.73 1093.64 220.213 1089.92 Q222.714 1086.18 227.435 1086.18 Z" fill="#000000" fill-rule="evenodd" fill-opacity="1" /><path clip-path="url(#clip010)" d="M 0 0 M114.931 954.775 L122.57 954.775 L122.57 928.41 L114.26 930.076 L114.26 925.817 L122.524 924.15 L127.2 924.15 L127.2 954.775 L134.839 954.775 L134.839 958.71 L114.931 958.71 L114.931 954.775 Z" fill="#000000" fill-rule="evenodd" fill-opacity="1" /><path clip-path="url(#clip010)" d="M 0 0 M149.908 927.229 Q146.297 927.229 144.468 930.794 Q142.663 934.336 142.663 941.465 Q142.663 948.572 144.468 952.136 Q146.297 955.678 149.908 955.678 Q153.542 955.678 155.348 952.136 Q157.177 948.572 157.177 941.465 Q157.177 934.336 155.348 930.794 Q153.542 927.229 149.908 927.229 M149.908 923.525 Q155.718 923.525 158.774 928.132 Q161.852 932.715 161.852 941.465 Q161.852 950.192 158.774 954.798 Q155.718 959.382 149.908 959.382 Q144.098 959.382 141.019 954.798 Q137.964 950.192 137.964 941.465 Q137.964 932.715 141.019 928.132 Q144.098 923.525 149.908 923.525 Z" fill="#000000" fill-rule="evenodd" fill-opacity="1" /><path clip-path="url(#clip010)" d="M 0 0 M161.852 917.627 L185.964 917.627 L185.964 920.824 L161.852 920.824 L161.852 917.627 Z" fill="#000000" fill-rule="evenodd" fill-opacity="1" /><path clip-path="url(#clip010)" d="M 0 0 M198.208 905.721 Q195.274 905.721 193.788 908.618 Q192.321 911.495 192.321 917.288 Q192.321 923.062 193.788 925.959 Q195.274 928.836 198.208 928.836 Q201.161 928.836 202.628 925.959 Q204.114 923.062 204.114 917.288 Q204.114 911.495 202.628 908.618 Q201.161 905.721 198.208 905.721 M198.208 902.712 Q202.929 902.712 205.411 906.455 Q207.913 910.179 207.913 917.288 Q207.913 924.379 205.411 928.122 Q202.929 931.845 198.208 931.845 Q193.487 931.845 190.986 928.122 Q188.503 924.379 188.503 917.288 Q188.503 910.179 190.986 906.455 Q193.487 902.712 198.208 902.712 Z" fill="#000000" fill-rule="evenodd" fill-opacity="1" /><path clip-path="url(#clip010)" d="M 0 0 M212.032 926.523 L216 926.523 L216 931.3 L212.032 931.3 L212.032 926.523 Z" fill="#000000" fill-rule="evenodd" fill-opacity="1" /><path clip-path="url(#clip010)" d="M 0 0 M220.157 903.22 L235.071 903.22 L235.071 906.417 L223.636 906.417 L223.636 913.301 Q224.464 913.019 225.291 912.887 Q226.119 912.737 226.946 912.737 Q231.648 912.737 234.394 915.313 Q237.14 917.89 237.14 922.291 Q237.14 926.824 234.319 929.344 Q231.498 931.845 226.363 931.845 Q224.595 931.845 222.752 931.545 Q220.928 931.244 218.972 930.642 L218.972 926.824 Q220.664 927.745 222.47 928.197 Q224.275 928.648 226.288 928.648 Q229.542 928.648 231.441 926.937 Q233.341 925.225 233.341 922.291 Q233.341 919.357 231.441 917.646 Q229.542 915.934 226.288 915.934 Q224.764 915.934 223.241 916.273 Q221.736 916.611 220.157 917.326 L220.157 903.22 Z" fill="#000000" fill-rule="evenodd" fill-opacity="1" /><path clip-path="url(#clip010)" d="M 0 0 M140.773 771.31 L148.412 771.31 L148.412 744.945 L140.102 746.611 L140.102 742.352 L148.366 740.685 L153.042 740.685 L153.042 771.31 L160.681 771.31 L160.681 775.245 L140.773 775.245 L140.773 771.31 Z" fill="#000000" fill-rule="evenodd" fill-opacity="1" /><path clip-path="url(#clip010)" d="M 0 0 M175.75 743.764 Q172.139 743.764 170.31 747.329 Q168.505 750.871 168.505 758 Q168.505 765.107 170.31 768.671 Q172.139 772.213 175.75 772.213 Q179.384 772.213 181.19 768.671 Q183.018 765.107 183.018 758 Q183.018 750.871 181.19 747.329 Q179.384 743.764 175.75 743.764 M175.75 740.06 Q181.56 740.06 184.616 744.667 Q187.694 749.25 187.694 758 Q187.694 766.727 184.616 771.333 Q181.56 775.917 175.75 775.917 Q169.94 775.917 166.861 771.333 Q163.806 766.727 163.806 758 Q163.806 749.25 166.861 744.667 Q169.94 740.06 175.75 740.06 Z" fill="#000000" fill-rule="evenodd" fill-opacity="1" /><path clip-path="url(#clip010)" d="M 0 0 M197.399 722.256 Q194.465 722.256 192.979 725.153 Q191.512 728.03 191.512 733.823 Q191.512 739.597 192.979 742.494 Q194.465 745.371 197.399 745.371 Q200.352 745.371 201.819 742.494 Q203.305 739.597 203.305 733.823 Q203.305 728.03 201.819 725.153 Q200.352 722.256 197.399 722.256 M197.399 719.247 Q202.12 719.247 204.603 722.99 Q207.104 726.714 207.104 733.823 Q207.104 740.914 204.603 744.657 Q202.12 748.38 197.399 748.38 Q192.678 748.38 190.177 744.657 Q187.694 740.914 187.694 733.823 Q187.694 726.714 190.177 722.99 Q192.678 719.247 197.399 719.247 Z" fill="#000000" fill-rule="evenodd" fill-opacity="1" /><path clip-path="url(#clip010)" d="M 0 0 M211.223 743.058 L215.191 743.058 L215.191 747.835 L211.223 747.835 L211.223 743.058 Z" fill="#000000" fill-rule="evenodd" fill-opacity="1" /><path clip-path="url(#clip010)" d="M 0 0 M227.435 722.256 Q224.501 722.256 223.015 725.153 Q221.548 728.03 221.548 733.823 Q221.548 739.597 223.015 742.494 Q224.501 745.371 227.435 745.371 Q230.388 745.371 231.855 742.494 Q233.341 739.597 233.341 733.823 Q233.341 728.03 231.855 725.153 Q230.388 722.256 227.435 722.256 M227.435 719.247 Q232.156 719.247 234.639 722.99 Q237.14 726.714 237.14 733.823 Q237.14 740.914 234.639 744.657 Q232.156 748.38 227.435 748.38 Q222.714 748.38 220.213 744.657 Q217.73 740.914 217.73 733.823 Q217.73 726.714 220.213 722.99 Q222.714 719.247 227.435 719.247 Z" fill="#000000" fill-rule="evenodd" fill-opacity="1" /><path clip-path="url(#clip010)" d="M 0 0 M141.582 587.845 L149.221 587.845 L149.221 561.48 L140.911 563.146 L140.911 558.887 L149.175 557.22 L153.851 557.22 L153.851 587.845 L161.489 587.845 L161.489 591.78 L141.582 591.78 L141.582 587.845 Z" fill="#000000" fill-rule="evenodd" fill-opacity="1" /><path clip-path="url(#clip010)" d="M 0 0 M176.559 560.299 Q172.948 560.299 171.119 563.864 Q169.313 567.406 169.313 574.535 Q169.313 581.642 171.119 585.206 Q172.948 588.748 176.559 588.748 Q180.193 588.748 181.999 585.206 Q183.827 581.642 183.827 574.535 Q183.827 567.406 181.999 563.864 Q180.193 560.299 176.559 560.299 M176.559 556.595 Q182.369 556.595 185.424 561.202 Q188.503 565.785 188.503 574.535 Q188.503 583.262 185.424 587.868 Q182.369 592.452 176.559 592.452 Q170.749 592.452 167.67 587.868 Q164.614 583.262 164.614 574.535 Q164.614 565.785 167.67 561.202 Q170.749 556.595 176.559 556.595 Z" fill="#000000" fill-rule="evenodd" fill-opacity="1" /><path clip-path="url(#clip010)" d="M 0 0 M198.208 538.792 Q195.274 538.792 193.788 541.688 Q192.321 544.566 192.321 550.358 Q192.321 556.132 193.788 559.029 Q195.274 561.906 198.208 561.906 Q201.161 561.906 202.628 559.029 Q204.114 556.132 204.114 550.358 Q204.114 544.566 202.628 541.688 Q201.161 538.792 198.208 538.792 M198.208 535.782 Q202.929 535.782 205.411 539.525 Q207.913 543.249 207.913 550.358 Q207.913 557.449 205.411 561.192 Q202.929 564.916 198.208 564.916 Q193.487 564.916 190.986 561.192 Q188.503 557.449 188.503 550.358 Q188.503 543.249 190.986 539.525 Q193.487 535.782 198.208 535.782 Z" fill="#000000" fill-rule="evenodd" fill-opacity="1" /><path clip-path="url(#clip010)" d="M 0 0 M212.032 559.593 L216 559.593 L216 564.37 L212.032 564.37 L212.032 559.593 Z" fill="#000000" fill-rule="evenodd" fill-opacity="1" /><path clip-path="url(#clip010)" d="M 0 0 M220.157 536.29 L235.071 536.29 L235.071 539.487 L223.636 539.487 L223.636 546.371 Q224.464 546.089 225.291 545.957 Q226.119 545.807 226.946 545.807 Q231.648 545.807 234.394 548.383 Q237.14 550.96 237.14 555.361 Q237.14 559.894 234.319 562.414 Q231.498 564.916 226.363 564.916 Q224.595 564.916 222.752 564.615 Q220.928 564.314 218.972 563.712 L218.972 559.894 Q220.664 560.815 222.47 561.267 Q224.275 561.718 226.288 561.718 Q229.542 561.718 231.441 560.007 Q233.341 558.295 233.341 555.361 Q233.341 552.427 231.441 550.716 Q229.542 549.004 226.288 549.004 Q224.764 549.004 223.241 549.343 Q221.736 549.681 220.157 550.396 L220.157 536.29 Z" fill="#000000" fill-rule="evenodd" fill-opacity="1" /><path clip-path="url(#clip010)" d="M 0 0 M143.463 404.38 L151.102 404.38 L151.102 378.015 L142.792 379.681 L142.792 375.422 L151.055 373.756 L155.731 373.756 L155.731 404.38 L163.37 404.38 L163.37 408.316 L143.463 408.316 L143.463 404.38 Z" fill="#000000" fill-rule="evenodd" fill-opacity="1" /><path clip-path="url(#clip010)" d="M 0 0 M178.44 376.834 Q174.828 376.834 173 380.399 Q171.194 383.941 171.194 391.07 Q171.194 398.177 173 401.741 Q174.828 405.283 178.44 405.283 Q182.074 405.283 183.879 401.741 Q185.708 398.177 185.708 391.07 Q185.708 383.941 183.879 380.399 Q182.074 376.834 178.44 376.834 M178.44 373.131 Q184.25 373.131 187.305 377.737 Q190.384 382.32 190.384 391.07 Q190.384 399.797 187.305 404.404 Q184.25 408.987 178.44 408.987 Q172.629 408.987 169.551 404.404 Q166.495 399.797 166.495 391.07 Q166.495 382.32 169.551 377.737 Q172.629 373.131 178.44 373.131 Z" fill="#000000" fill-rule="evenodd" fill-opacity="1" /><path clip-path="url(#clip010)" d="M 0 0 M190.929 377.708 L197.136 377.708 L197.136 356.286 L190.384 357.64 L190.384 354.179 L197.098 352.825 L200.897 352.825 L200.897 377.708 L207.104 377.708 L207.104 380.905 L190.929 380.905 L190.929 377.708 Z" fill="#000000" fill-rule="evenodd" fill-opacity="1" /><path clip-path="url(#clip010)" d="M 0 0 M211.223 376.128 L215.191 376.128 L215.191 380.905 L211.223 380.905 L211.223 376.128 Z" fill="#000000" fill-rule="evenodd" fill-opacity="1" /><path clip-path="url(#clip010)" d="M 0 0 M227.435 355.327 Q224.501 355.327 223.015 358.223 Q221.548 361.101 221.548 366.893 Q221.548 372.667 223.015 375.564 Q224.501 378.441 227.435 378.441 Q230.388 378.441 231.855 375.564 Q233.341 372.667 233.341 366.893 Q233.341 361.101 231.855 358.223 Q230.388 355.327 227.435 355.327 M227.435 352.317 Q232.156 352.317 234.639 356.06 Q237.14 359.784 237.14 366.893 Q237.14 373.984 234.639 377.727 Q232.156 381.451 227.435 381.451 Q222.714 381.451 220.213 377.727 Q217.73 373.984 217.73 366.893 Q217.73 359.784 220.213 356.06 Q222.714 352.317 227.435 352.317 Z" fill="#000000" fill-rule="evenodd" fill-opacity="1" /><path clip-path="url(#clip010)" d="M 0 0 M144.272 220.915 L151.91 220.915 L151.91 194.55 L143.6 196.216 L143.6 191.957 L151.864 190.291 L156.54 190.291 L156.54 220.915 L164.179 220.915 L164.179 224.851 L144.272 224.851 L144.272 220.915 Z" fill="#000000" fill-rule="evenodd" fill-opacity="1" /><path clip-path="url(#clip010)" d="M 0 0 M179.248 193.369 Q175.637 193.369 173.808 196.934 Q172.003 200.476 172.003 207.605 Q172.003 214.712 173.808 218.277 Q175.637 221.818 179.248 221.818 Q182.882 221.818 184.688 218.277 Q186.517 214.712 186.517 207.605 Q186.517 200.476 184.688 196.934 Q182.882 193.369 179.248 193.369 M179.248 189.666 Q185.058 189.666 188.114 194.272 Q191.193 198.855 191.193 207.605 Q191.193 216.332 188.114 220.939 Q185.058 225.522 179.248 225.522 Q173.438 225.522 170.359 220.939 Q167.304 216.332 167.304 207.605 Q167.304 198.855 170.359 194.272 Q173.438 189.666 179.248 189.666 Z" fill="#000000" fill-rule="evenodd" fill-opacity="1" /><path clip-path="url(#clip010)" d="M 0 0 M191.738 194.243 L197.945 194.243 L197.945 172.821 L191.193 174.175 L191.193 170.714 L197.907 169.36 L201.706 169.36 L201.706 194.243 L207.913 194.243 L207.913 197.44 L191.738 197.44 L191.738 194.243 Z" fill="#000000" fill-rule="evenodd" fill-opacity="1" /><path clip-path="url(#clip010)" d="M 0 0 M212.032 192.663 L216 192.663 L216 197.44 L212.032 197.44 L212.032 192.663 Z" fill="#000000" fill-rule="evenodd" fill-opacity="1" /><path clip-path="url(#clip010)" d="M 0 0 M220.157 169.36 L235.071 169.36 L235.071 172.557 L223.636 172.557 L223.636 179.441 Q224.464 179.159 225.291 179.027 Q226.119 178.877 226.946 178.877 Q231.648 178.877 234.394 181.454 Q237.14 184.03 237.14 188.431 Q237.14 192.964 234.319 195.484 Q231.498 197.986 226.363 197.986 Q224.595 197.986 222.752 197.685 Q220.928 197.384 218.972 196.782 L218.972 192.964 Q220.664 193.885 222.47 194.337 Q224.275 194.788 226.288 194.788 Q229.542 194.788 231.441 193.077 Q233.341 191.365 233.341 188.431 Q233.341 185.497 231.441 183.786 Q229.542 182.074 226.288 182.074 Q224.764 182.074 223.241 182.413 Q221.736 182.751 220.157 183.466 L220.157 169.36 Z" fill="#000000" fill-rule="evenodd" fill-opacity="1" /><path clip-path="url(#clip010)" d="M 0 0 M18.0438 1052.72 L24.314 1052.72 Q22.5634 1056.38 21.704 1059.63 Q20.8447 1062.87 20.8447 1065.9 Q20.8447 1071.15 22.8817 1074.01 Q24.9187 1076.85 28.6745 1076.85 Q31.8255 1076.85 33.4488 1074.97 Q35.0402 1073.06 36.0269 1067.77 L36.8226 1063.89 Q38.1912 1056.7 41.6605 1053.29 Q45.098 1049.86 50.8908 1049.86 Q57.7976 1049.86 61.3624 1054.5 Q64.9272 1059.12 64.9272 1068.06 Q64.9272 1071.43 64.1633 1075.25 Q63.3994 1079.04 61.9035 1083.12 L55.2831 1083.12 Q57.4793 1079.2 58.5933 1075.45 Q59.7073 1071.69 59.7073 1068.06 Q59.7073 1062.55 57.543 1059.56 Q55.3786 1056.57 51.3682 1056.57 Q47.8671 1056.57 45.8937 1058.74 Q43.9204 1060.87 42.9337 1065.77 L42.1698 1069.68 Q40.7375 1076.88 37.682 1080.09 Q34.6264 1083.31 29.1837 1083.31 Q22.8817 1083.31 19.2532 1078.88 Q15.6248 1074.43 15.6248 1066.63 Q15.6248 1063.29 16.2295 1059.82 Q16.8343 1056.35 18.0438 1052.72 Z" fill="#000000" fill-rule="evenodd" fill-opacity="1" /><path clip-path="url(#clip010)" d="M 0 0 M49.9359 1044.32 L28.3562 1044.32 L28.3562 1038.46 L49.7131 1038.46 Q54.7739 1038.46 57.3202 1036.49 Q59.8346 1034.51 59.8346 1030.57 Q59.8346 1025.82 56.8109 1023.09 Q53.7872 1020.32 48.5673 1020.32 L28.3562 1020.32 L28.3562 1014.46 L64.0042 1014.46 L64.0042 1020.32 L58.5296 1020.32 Q61.7762 1022.45 63.3676 1025.28 Q64.9272 1028.08 64.9272 1031.81 Q64.9272 1037.95 61.1078 1041.13 Q57.2883 1044.32 49.9359 1044.32 M27.4968 1029.58 L27.4968 1029.58 Z" fill="#000000" fill-rule="evenodd" fill-opacity="1" /><path clip-path="url(#clip010)" d="M 0 0 M35.1993 980.564 Q31.2526 978.368 29.3747 975.313 Q27.4968 972.257 27.4968 968.12 Q27.4968 962.55 31.4117 959.526 Q35.2948 956.502 42.4881 956.502 L64.0042 956.502 L64.0042 962.39 L42.679 962.39 Q37.5546 962.39 35.072 964.205 Q32.5894 966.019 32.5894 969.743 Q32.5894 974.294 35.6131 976.936 Q38.6368 979.578 43.8567 979.578 L64.0042 979.578 L64.0042 985.466 L42.679 985.466 Q37.5228 985.466 35.072 987.28 Q32.5894 989.095 32.5894 992.882 Q32.5894 997.37 35.6449 1000.01 Q38.6686 1002.65 43.8567 1002.65 L64.0042 1002.65 L64.0042 1008.54 L28.3562 1008.54 L28.3562 1002.65 L33.8944 1002.65 Q30.616 1000.65 29.0564 997.847 Q27.4968 995.046 27.4968 991.195 Q27.4968 987.312 29.4702 984.607 Q31.4436 981.869 35.1993 980.564 Z" fill="#000000" fill-rule="evenodd" fill-opacity="1" /><path clip-path="url(#clip010)" d="M 0 0 M18.0438 900.898 L24.314 900.898 Q22.5634 904.558 21.704 907.804 Q20.8447 911.051 20.8447 914.075 Q20.8447 919.326 22.8817 922.191 Q24.9187 925.024 28.6745 925.024 Q31.8255 925.024 33.4488 923.146 Q35.0402 921.236 36.0269 915.953 L36.8226 912.069 Q38.1912 904.876 41.6605 901.471 Q45.098 898.033 50.8908 898.033 Q57.7976 898.033 61.3624 902.68 Q64.9272 907.295 64.9272 916.239 Q64.9272 919.613 64.1633 923.432 Q63.3994 927.22 61.9035 931.294 L55.2831 931.294 Q57.4793 927.379 58.5933 923.623 Q59.7073 919.867 59.7073 916.239 Q59.7073 910.733 57.543 907.741 Q55.3786 904.749 51.3682 904.749 Q47.8671 904.749 45.8937 906.913 Q43.9204 909.046 42.9337 913.947 L42.1698 917.862 Q40.7375 925.055 37.682 928.27 Q34.6264 931.485 29.1837 931.485 Q22.8817 931.485 19.2532 927.061 Q15.6248 922.605 15.6248 914.807 Q15.6248 911.465 16.2295 907.995 Q16.8343 904.526 18.0438 900.898 Z" fill="#000000" fill-rule="evenodd" fill-opacity="1" /><path clip-path="url(#clip010)" d="M 0 0 M46.212 888.389 Q52.6732 888.389 56.3653 885.747 Q60.0256 883.074 60.0256 878.427 Q60.0256 873.78 56.3653 871.106 Q52.6732 868.433 46.212 868.433 Q39.7508 868.433 36.0905 871.106 Q32.3984 873.78 32.3984 878.427 Q32.3984 883.074 36.0905 885.747 Q39.7508 888.389 46.212 888.389 M58.657 868.433 Q61.8398 870.279 63.3994 873.111 Q64.9272 875.912 64.9272 879.859 Q64.9272 886.32 59.771 890.394 Q54.6147 894.436 46.212 894.436 Q37.8093 894.436 32.6531 890.394 Q27.4968 886.32 27.4968 879.859 Q27.4968 875.912 29.0564 873.111 Q30.5842 870.279 33.7671 868.433 L28.3562 868.433 L28.3562 862.576 L77.5631 862.576 L77.5631 868.433 L58.657 868.433 Z" fill="#000000" fill-rule="evenodd" fill-opacity="1" /><path clip-path="url(#clip010)" d="M 0 0 M49.9359 857.038 L28.3562 857.038 L28.3562 851.181 L49.7131 851.181 Q54.7739 851.181 57.3202 849.208 Q59.8346 847.235 59.8346 843.288 Q59.8346 838.546 56.8109 835.808 Q53.7872 833.039 48.5673 833.039 L28.3562 833.039 L28.3562 827.183 L64.0042 827.183 L64.0042 833.039 L58.5296 833.039 Q61.7762 835.172 63.3676 838.004 Q64.9272 840.805 64.9272 844.529 Q64.9272 850.672 61.1078 853.855 Q57.2883 857.038 49.9359 857.038 M27.4968 842.301 L27.4968 842.301 Z" fill="#000000" fill-rule="evenodd" fill-opacity="1" /><path clip-path="url(#clip010)" d="M 0 0 M46.0847 804.839 Q46.0847 811.937 47.7079 814.674 Q49.3312 817.411 53.2461 817.411 Q56.3653 817.411 58.2114 815.374 Q60.0256 813.306 60.0256 809.773 Q60.0256 804.903 56.5881 801.975 Q53.1188 799.015 47.3897 799.015 L46.0847 799.015 L46.0847 804.839 M43.6657 793.158 L64.0042 793.158 L64.0042 799.015 L58.5933 799.015 Q61.8398 801.02 63.3994 804.012 Q64.9272 807.003 64.9272 811.332 Q64.9272 816.807 61.8716 820.053 Q58.7843 823.268 53.6281 823.268 Q47.6125 823.268 44.5569 819.257 Q41.5014 815.215 41.5014 807.226 L41.5014 799.015 L40.9285 799.015 Q36.8862 799.015 34.6901 801.688 Q32.4621 804.33 32.4621 809.136 Q32.4621 812.192 33.1941 815.088 Q33.9262 817.984 35.3903 820.658 L29.9795 820.658 Q28.7381 817.443 28.1334 814.42 Q27.4968 811.396 27.4968 808.531 Q27.4968 800.797 31.5072 796.977 Q35.5176 793.158 43.6657 793.158 Z" fill="#000000" fill-rule="evenodd" fill-opacity="1" /><path clip-path="url(#clip010)" d="M 0 0 M33.8307 766.358 Q33.2578 767.345 33.0032 768.523 Q32.7167 769.669 32.7167 771.069 Q32.7167 776.034 35.9632 778.708 Q39.1779 781.35 45.2253 781.35 L64.0042 781.35 L64.0042 787.238 L28.3562 787.238 L28.3562 781.35 L33.8944 781.35 Q30.6479 779.504 29.0883 776.544 Q27.4968 773.584 27.4968 769.35 Q27.4968 768.746 27.5923 768.014 Q27.656 767.281 27.8151 766.39 L33.8307 766.358 Z" fill="#000000" fill-rule="evenodd" fill-opacity="1" /><path clip-path="url(#clip010)" d="M 0 0 M44.7161 731.156 L47.5806 731.156 L47.5806 758.083 Q53.6281 757.701 56.8109 754.455 Q59.9619 751.176 59.9619 745.352 Q59.9619 741.978 59.1344 738.827 Q58.3069 735.644 56.6518 732.525 L62.1899 732.525 Q63.5267 735.676 64.227 738.986 Q64.9272 742.296 64.9272 745.702 Q64.9272 754.232 59.9619 759.229 Q54.9967 764.194 46.5303 764.194 Q37.7774 764.194 32.6531 759.483 Q27.4968 754.741 27.4968 746.72 Q27.4968 739.527 32.1438 735.357 Q36.7589 731.156 44.7161 731.156 M42.9973 737.013 Q38.1912 737.076 35.3266 739.718 Q32.4621 742.328 32.4621 746.657 Q32.4621 751.558 35.2312 754.518 Q38.0002 757.446 43.0292 757.892 L42.9973 737.013 Z" fill="#000000" fill-rule="evenodd" fill-opacity="1" /><path clip-path="url(#clip010)" d="M 0 0 M33.7671 701.556 L14.479 701.556 L14.479 695.699 L64.0042 695.699 L64.0042 701.556 L58.657 701.556 Q61.8398 703.402 63.3994 706.234 Q64.9272 709.035 64.9272 712.982 Q64.9272 719.443 59.771 723.517 Q54.6147 727.559 46.212 727.559 Q37.8093 727.559 32.6531 723.517 Q27.4968 719.443 27.4968 712.982 Q27.4968 709.035 29.0564 706.234 Q30.5842 703.402 33.7671 701.556 M46.212 721.512 Q52.6732 721.512 56.3653 718.87 Q60.0256 716.197 60.0256 711.55 Q60.0256 706.903 56.3653 704.229 Q52.6732 701.556 46.212 701.556 Q39.7508 701.556 36.0905 704.229 Q32.3984 706.903 32.3984 711.55 Q32.3984 716.197 36.0905 718.87 Q39.7508 721.512 46.212 721.512 Z" fill="#000000" fill-rule="evenodd" fill-opacity="1" /><path clip-path="url(#clip010)" d="M 0 0 M16.4842 668.581 L16.4842 638.535 L21.895 638.535 L21.895 662.152 L35.9632 662.152 L35.9632 639.522 L41.3741 639.522 L41.3741 662.152 L58.5933 662.152 L58.5933 637.962 L64.0042 637.962 L64.0042 668.581 L16.4842 668.581 Z" fill="#000000" fill-rule="evenodd" fill-opacity="1" /><path clip-path="url(#clip010)" d="M 0 0 M33.8307 611.163 Q33.2578 612.149 33.0032 613.327 Q32.7167 614.473 32.7167 615.873 Q32.7167 620.838 35.9632 623.512 Q39.1779 626.154 45.2253 626.154 L64.0042 626.154 L64.0042 632.042 L28.3562 632.042 L28.3562 626.154 L33.8944 626.154 Q30.6479 624.308 29.0883 621.348 Q27.4968 618.388 27.4968 614.154 Q27.4968 613.55 27.5923 612.818 Q27.656 612.086 27.8151 611.194 L33.8307 611.163 Z" fill="#000000" fill-rule="evenodd" fill-opacity="1" /><path clip-path="url(#clip010)" d="M 0 0 M33.8307 585.509 Q33.2578 586.495 33.0032 587.673 Q32.7167 588.819 32.7167 590.219 Q32.7167 595.185 35.9632 597.858 Q39.1779 600.5 45.2253 600.5 L64.0042 600.5 L64.0042 606.388 L28.3562 606.388 L28.3562 600.5 L33.8944 600.5 Q30.6479 598.654 29.0883 595.694 Q27.4968 592.734 27.4968 588.501 Q27.4968 587.896 27.5923 587.164 Q27.656 586.432 27.8151 585.541 L33.8307 585.509 Z" fill="#000000" fill-rule="evenodd" fill-opacity="1" /><path clip-path="url(#clip010)" d="M 0 0 M32.4621 566.984 Q32.4621 571.695 36.1542 574.432 Q39.8145 577.17 46.212 577.17 Q52.6095 577.17 56.3017 574.464 Q59.9619 571.727 59.9619 566.984 Q59.9619 562.306 56.2698 559.568 Q52.5777 556.831 46.212 556.831 Q39.8781 556.831 36.186 559.568 Q32.4621 562.306 32.4621 566.984 M27.4968 566.984 Q27.4968 559.346 32.4621 554.985 Q37.4273 550.625 46.212 550.625 Q54.9649 550.625 59.9619 554.985 Q64.9272 559.346 64.9272 566.984 Q64.9272 574.655 59.9619 579.016 Q54.9649 583.344 46.212 583.344 Q37.4273 583.344 32.4621 579.016 Q27.4968 574.655 27.4968 566.984 Z" fill="#000000" fill-rule="evenodd" fill-opacity="1" /><path clip-path="url(#clip010)" d="M 0 0 M33.8307 523.825 Q33.2578 524.812 33.0032 525.989 Q32.7167 527.135 32.7167 528.536 Q32.7167 533.501 35.9632 536.174 Q39.1779 538.816 45.2253 538.816 L64.0042 538.816 L64.0042 544.705 L28.3562 544.705 L28.3562 538.816 L33.8944 538.816 Q30.6479 536.97 29.0883 534.01 Q27.4968 531.05 27.4968 526.817 Q27.4968 526.212 27.5923 525.48 Q27.656 524.748 27.8151 523.857 L33.8307 523.825 Z" fill="#000000" fill-rule="evenodd" fill-opacity="1" /><path clip-path="url(#clip010)" d="M 0 0 M884.869 12.096 L893.051 12.096 L893.051 65.6895 L922.502 65.6895 L922.502 72.576 L884.869 72.576 L884.869 12.096 Z" fill="#000000" fill-rule="evenodd" fill-opacity="1" /><path clip-path="url(#clip010)" d="M 0 0 M946.442 32.4315 Q940.447 32.4315 936.963 37.1306 Q933.479 41.7891 933.479 49.9314 Q933.479 58.0738 936.923 62.7728 Q940.407 67.4314 946.442 67.4314 Q952.397 67.4314 955.881 62.7323 Q959.365 58.0333 959.365 49.9314 Q959.365 41.8701 955.881 37.1711 Q952.397 32.4315 946.442 32.4315 M946.442 26.1121 Q956.165 26.1121 961.714 32.4315 Q967.264 38.7509 967.264 49.9314 Q967.264 61.0714 961.714 67.4314 Q956.165 73.7508 946.442 73.7508 Q936.68 73.7508 931.13 67.4314 Q925.621 61.0714 925.621 49.9314 Q925.621 38.7509 931.13 32.4315 Q936.68 26.1121 946.442 26.1121 Z" fill="#000000" fill-rule="evenodd" fill-opacity="1" /><path clip-path="url(#clip010)" d="M 0 0 M1004.01 28.5427 L1004.01 35.5912 Q1000.85 33.9709 997.443 33.1607 Q994.041 32.3505 990.395 32.3505 Q984.845 32.3505 982.05 34.0519 Q979.295 35.7533 979.295 39.156 Q979.295 41.7486 981.28 43.2475 Q983.265 44.7058 989.26 46.0426 L991.813 46.6097 Q999.752 48.3111 1003.07 51.4303 Q1006.44 54.509 1006.44 60.0587 Q1006.44 66.3781 1001.41 70.0644 Q996.431 73.7508 987.681 73.7508 Q984.035 73.7508 980.065 73.0216 Q976.136 72.3329 971.761 70.9151 L971.761 63.2184 Q975.892 65.3654 979.903 66.4591 Q983.913 67.5124 987.843 67.5124 Q993.109 67.5124 995.944 65.73 Q998.78 63.9071 998.78 60.6258 Q998.78 57.5877 996.714 55.9673 Q994.689 54.3469 987.762 52.8481 L985.169 52.2405 Q978.242 50.7821 975.163 47.7845 Q972.085 44.7463 972.085 39.4801 Q972.085 33.0797 976.622 29.5959 Q981.159 26.1121 989.504 26.1121 Q993.635 26.1121 997.281 26.7198 Q1000.93 27.3274 1004.01 28.5427 Z" fill="#000000" fill-rule="evenodd" fill-opacity="1" /><path clip-path="url(#clip010)" d="M 0 0 M1043.18 28.5427 L1043.18 35.5912 Q1040.02 33.9709 1036.62 33.1607 Q1033.21 32.3505 1029.57 32.3505 Q1024.02 32.3505 1021.22 34.0519 Q1018.47 35.7533 1018.47 39.156 Q1018.47 41.7486 1020.45 43.2475 Q1022.44 44.7058 1028.43 46.0426 L1030.98 46.6097 Q1038.92 48.3111 1042.25 51.4303 Q1045.61 54.509 1045.61 60.0587 Q1045.61 66.3781 1040.59 70.0644 Q1035.6 73.7508 1026.85 73.7508 Q1023.21 73.7508 1019.24 73.0216 Q1015.31 72.3329 1010.93 70.9151 L1010.93 63.2184 Q1015.06 65.3654 1019.08 66.4591 Q1023.09 67.5124 1027.01 67.5124 Q1032.28 67.5124 1035.12 65.73 Q1037.95 63.9071 1037.95 60.6258 Q1037.95 57.5877 1035.89 55.9673 Q1033.86 54.3469 1026.93 52.8481 L1024.34 52.2405 Q1017.41 50.7821 1014.34 47.7845 Q1011.26 44.7463 1011.26 39.4801 Q1011.26 33.0797 1015.79 29.5959 Q1020.33 26.1121 1028.68 26.1121 Q1032.81 26.1121 1036.45 26.7198 Q1040.1 27.3274 1043.18 28.5427 Z" fill="#000000" fill-rule="evenodd" fill-opacity="1" /><path clip-path="url(#clip010)" d="M 0 0 M1074.45 27.2059 L1082.35 27.2059 L1096.53 65.2844 L1110.71 27.2059 L1118.61 27.2059 L1101.59 72.576 L1091.46 72.576 L1074.45 27.2059 Z" fill="#000000" fill-rule="evenodd" fill-opacity="1" /><path clip-path="url(#clip010)" d="M 0 0 M1155.35 28.5427 L1155.35 35.5912 Q1152.19 33.9709 1148.79 33.1607 Q1145.38 32.3505 1141.74 32.3505 Q1136.19 32.3505 1133.39 34.0519 Q1130.64 35.7533 1130.64 39.156 Q1130.64 41.7486 1132.62 43.2475 Q1134.61 44.7058 1140.6 46.0426 L1143.15 46.6097 Q1151.09 48.3111 1154.42 51.4303 Q1157.78 54.509 1157.78 60.0587 Q1157.78 66.3781 1152.75 70.0644 Q1147.77 73.7508 1139.02 73.7508 Q1135.38 73.7508 1131.41 73.0216 Q1127.48 72.3329 1123.1 70.9151 L1123.1 63.2184 Q1127.23 65.3654 1131.24 66.4591 Q1135.26 67.5124 1139.18 67.5124 Q1144.45 67.5124 1147.29 65.73 Q1150.12 63.9071 1150.12 60.6258 Q1150.12 57.5877 1148.06 55.9673 Q1146.03 54.3469 1139.1 52.8481 L1136.51 52.2405 Q1129.58 50.7821 1126.51 47.7845 Q1123.43 44.7463 1123.43 39.4801 Q1123.43 33.0797 1127.96 29.5959 Q1132.5 26.1121 1140.85 26.1121 Q1144.98 26.1121 1148.62 26.7198 Q1152.27 27.3274 1155.35 28.5427 Z" fill="#000000" fill-rule="evenodd" fill-opacity="1" /><path clip-path="url(#clip010)" d="M 0 0 M1233.53 63.9476 L1233.53 47.7034 L1220.16 47.7034 L1220.16 40.9789 L1241.63 40.9789 L1241.63 66.9452 Q1236.89 70.3075 1231.18 72.0494 Q1225.47 73.7508 1218.99 73.7508 Q1204.81 73.7508 1196.79 65.4869 Q1188.81 57.1826 1188.81 42.3968 Q1188.81 27.5705 1196.79 19.3066 Q1204.81 11.0023 1218.99 11.0023 Q1224.9 11.0023 1230.21 12.4606 Q1235.56 13.9189 1240.05 16.7545 L1240.05 25.464 Q1235.51 21.6156 1230.41 19.6712 Q1225.31 17.7268 1219.68 17.7268 Q1208.58 17.7268 1202.99 23.9246 Q1197.44 30.1225 1197.44 42.3968 Q1197.44 54.6305 1202.99 60.8284 Q1208.58 67.0263 1219.68 67.0263 Q1224.01 67.0263 1227.41 66.2971 Q1230.82 65.5274 1233.53 63.9476 Z" fill="#000000" fill-rule="evenodd" fill-opacity="1" /><path clip-path="url(#clip010)" d="M 0 0 M1275.74 34.1734 Q1274.48 33.4443 1272.99 33.1202 Q1271.53 32.7556 1269.75 32.7556 Q1263.43 32.7556 1260.02 36.8875 Q1256.66 40.9789 1256.66 48.6757 L1256.66 72.576 L1249.17 72.576 L1249.17 27.2059 L1256.66 27.2059 L1256.66 34.2544 Q1259.01 30.1225 1262.78 28.1376 Q1266.54 26.1121 1271.93 26.1121 Q1272.7 26.1121 1273.63 26.2337 Q1274.57 26.3147 1275.7 26.5172 L1275.74 34.1734 Z" fill="#000000" fill-rule="evenodd" fill-opacity="1" /><path clip-path="url(#clip010)" d="M 0 0 M1304.18 49.7694 Q1295.14 49.7694 1291.66 51.8354 Q1288.18 53.9013 1288.18 58.8839 Q1288.18 62.8538 1290.77 65.2034 Q1293.4 67.5124 1297.9 67.5124 Q1304.1 67.5124 1307.82 63.1374 Q1311.59 58.7219 1311.59 51.4303 L1311.59 49.7694 L1304.18 49.7694 M1319.04 46.6907 L1319.04 72.576 L1311.59 72.576 L1311.59 65.6895 Q1309.04 69.8214 1305.23 71.8063 Q1301.42 73.7508 1295.91 73.7508 Q1288.95 73.7508 1284.81 69.8619 Q1280.72 65.9325 1280.72 59.3701 Q1280.72 51.7138 1285.83 47.825 Q1290.97 43.9361 1301.14 43.9361 L1311.59 43.9361 L1311.59 43.2069 Q1311.59 38.0623 1308.19 35.2672 Q1304.83 32.4315 1298.71 32.4315 Q1294.82 32.4315 1291.13 33.3632 Q1287.45 34.295 1284.04 36.1584 L1284.04 29.2718 Q1288.14 27.692 1291.98 26.9223 Q1295.83 26.1121 1299.48 26.1121 Q1309.32 26.1121 1314.18 31.2163 Q1319.04 36.3204 1319.04 46.6907 Z" fill="#000000" fill-rule="evenodd" fill-opacity="1" /><path clip-path="url(#clip010)" d="M 0 0 M1356.72 34.0924 L1356.72 9.54393 L1364.17 9.54393 L1364.17 72.576 L1356.72 72.576 L1356.72 65.7705 Q1354.37 69.8214 1350.76 71.8063 Q1347.2 73.7508 1342.18 73.7508 Q1333.95 73.7508 1328.77 67.1883 Q1323.62 60.6258 1323.62 49.9314 Q1323.62 39.2371 1328.77 32.6746 Q1333.95 26.1121 1342.18 26.1121 Q1347.2 26.1121 1350.76 28.0971 Q1354.37 30.0415 1356.72 34.0924 M1331.32 49.9314 Q1331.32 58.1548 1334.68 62.8538 Q1338.08 67.5124 1344 67.5124 Q1349.91 67.5124 1353.32 62.8538 Q1356.72 58.1548 1356.72 49.9314 Q1356.72 41.7081 1353.32 37.0496 Q1349.91 32.3505 1344 32.3505 Q1338.08 32.3505 1334.68 37.0496 Q1331.32 41.7081 1331.32 49.9314 Z" fill="#000000" fill-rule="evenodd" fill-opacity="1" /><path clip-path="url(#clip010)" d="M 0 0 M1371.99 27.2059 L1379.44 27.2059 L1379.44 72.576 L1371.99 72.576 L1371.99 27.2059 M1371.99 9.54393 L1379.44 9.54393 L1379.44 18.9825 L1371.99 18.9825 L1371.99 9.54393 Z" fill="#000000" fill-rule="evenodd" fill-opacity="1" /><path clip-path="url(#clip010)" d="M 0 0 M1426.07 48.0275 L1426.07 51.6733 L1391.8 51.6733 Q1392.28 59.3701 1396.42 63.421 Q1400.59 67.4314 1408 67.4314 Q1412.3 67.4314 1416.31 66.3781 Q1420.36 65.3249 1424.33 63.2184 L1424.33 70.267 Q1420.32 71.9684 1416.1 72.8596 Q1411.89 73.7508 1407.56 73.7508 Q1396.7 73.7508 1390.34 67.4314 Q1384.02 61.1119 1384.02 50.3365 Q1384.02 39.1965 1390.02 32.6746 Q1396.05 26.1121 1406.26 26.1121 Q1415.42 26.1121 1420.72 32.0264 Q1426.07 37.9003 1426.07 48.0275 M1418.62 45.84 Q1418.53 39.7232 1415.17 36.0774 Q1411.85 32.4315 1406.34 32.4315 Q1400.1 32.4315 1396.34 35.9558 Q1392.61 39.4801 1392.04 45.8805 L1418.62 45.84 Z" fill="#000000" fill-rule="evenodd" fill-opacity="1" /><path clip-path="url(#clip010)" d="M 0 0 M1471.6 45.1919 L1471.6 72.576 L1464.15 72.576 L1464.15 45.4349 Q1464.15 38.994 1461.64 35.7938 Q1459.12 32.5936 1454.1 32.5936 Q1448.07 32.5936 1444.58 36.4419 Q1441.1 40.2903 1441.1 46.9338 L1441.1 72.576 L1433.6 72.576 L1433.6 27.2059 L1441.1 27.2059 L1441.1 34.2544 Q1443.77 30.163 1447.38 28.1376 Q1451.02 26.1121 1455.76 26.1121 Q1463.58 26.1121 1467.59 30.9732 Q1471.6 35.7938 1471.6 45.1919 Z" fill="#000000" fill-rule="evenodd" fill-opacity="1" /><path clip-path="url(#clip010)" d="M 0 0 M1486.79 14.324 L1486.79 27.2059 L1502.15 27.2059 L1502.15 32.9987 L1486.79 32.9987 L1486.79 57.6282 Q1486.79 63.1779 1488.29 64.7578 Q1489.83 66.3376 1494.49 66.3376 L1502.15 66.3376 L1502.15 72.576 L1494.49 72.576 Q1485.86 72.576 1482.58 69.3758 Q1479.3 66.1351 1479.3 57.6282 L1479.3 32.9987 L1473.83 32.9987 L1473.83 27.2059 L1479.3 27.2059 L1479.3 14.324 L1486.79 14.324 Z" fill="#000000" fill-rule="evenodd" fill-opacity="1" /><path clip-path="url(#clip010)" d="M 0 0 M1572.91 14.0809 L1572.91 22.0612 Q1568.26 19.8332 1564.12 18.7395 Q1559.99 17.6457 1556.14 17.6457 Q1549.46 17.6457 1545.81 20.2383 Q1542.21 22.8309 1542.21 27.611 Q1542.21 31.6214 1544.6 33.6873 Q1547.03 35.7128 1553.75 36.9686 L1558.7 37.9813 Q1567.85 39.7232 1572.19 44.1387 Q1576.56 48.5136 1576.56 55.8863 Q1576.56 64.6767 1570.65 69.2137 Q1564.77 73.7508 1553.39 73.7508 Q1549.1 73.7508 1544.23 72.7785 Q1539.41 71.8063 1534.23 69.9024 L1534.23 61.4765 Q1539.21 64.2716 1543.99 65.6895 Q1548.77 67.1073 1553.39 67.1073 Q1560.4 67.1073 1564.21 64.3527 Q1568.01 61.598 1568.01 56.4939 Q1568.01 52.0379 1565.26 49.5264 Q1562.54 47.0148 1556.31 45.759 L1551.32 44.7868 Q1542.17 42.9639 1538.08 39.075 Q1533.99 35.1862 1533.99 28.2591 Q1533.99 20.2383 1539.62 15.6203 Q1545.29 11.0023 1555.21 11.0023 Q1559.47 11.0023 1563.88 11.7719 Q1568.3 12.5416 1572.91 14.0809 Z" fill="#000000" fill-rule="evenodd" fill-opacity="1" /><path clip-path="url(#clip010)" d="M 0 0 M1591.75 14.324 L1591.75 27.2059 L1607.1 27.2059 L1607.1 32.9987 L1591.75 32.9987 L1591.75 57.6282 Q1591.75 63.1779 1593.25 64.7578 Q1594.79 66.3376 1599.45 66.3376 L1607.1 66.3376 L1607.1 72.576 L1599.45 72.576 Q1590.82 72.576 1587.54 69.3758 Q1584.26 66.1351 1584.26 57.6282 L1584.26 32.9987 L1578.79 32.9987 L1578.79 27.2059 L1584.26 27.2059 L1584.26 14.324 L1591.75 14.324 Z" fill="#000000" fill-rule="evenodd" fill-opacity="1" /><path clip-path="url(#clip010)" d="M 0 0 M1653.73 48.0275 L1653.73 51.6733 L1619.46 51.6733 Q1619.95 59.3701 1624.08 63.421 Q1628.25 67.4314 1635.66 67.4314 Q1639.96 67.4314 1643.97 66.3781 Q1648.02 65.3249 1651.99 63.2184 L1651.99 70.267 Q1647.98 71.9684 1643.77 72.8596 Q1639.55 73.7508 1635.22 73.7508 Q1624.36 73.7508 1618 67.4314 Q1611.68 61.1119 1611.68 50.3365 Q1611.68 39.1965 1617.68 32.6746 Q1623.71 26.1121 1633.92 26.1121 Q1643.08 26.1121 1648.38 32.0264 Q1653.73 37.9003 1653.73 48.0275 M1646.28 45.84 Q1646.2 39.7232 1642.83 36.0774 Q1639.51 32.4315 1634 32.4315 Q1627.76 32.4315 1624 35.9558 Q1620.27 39.4801 1619.7 45.8805 L1646.28 45.84 Z" fill="#000000" fill-rule="evenodd" fill-opacity="1" /><path clip-path="url(#clip010)" d="M 0 0 M1668.76 65.7705 L1668.76 89.8329 L1661.26 89.8329 L1661.26 27.2059 L1668.76 27.2059 L1668.76 34.0924 Q1671.11 30.0415 1674.67 28.0971 Q1678.28 26.1121 1683.26 26.1121 Q1691.53 26.1121 1696.67 32.6746 Q1701.86 39.2371 1701.86 49.9314 Q1701.86 60.6258 1696.67 67.1883 Q1691.53 73.7508 1683.26 73.7508 Q1678.28 73.7508 1674.67 71.8063 Q1671.11 69.8214 1668.76 65.7705 M1694.12 49.9314 Q1694.12 41.7081 1690.72 37.0496 Q1687.35 32.3505 1681.44 32.3505 Q1675.52 32.3505 1672.12 37.0496 Q1668.76 41.7081 1668.76 49.9314 Q1668.76 58.1548 1672.12 62.8538 Q1675.52 67.5124 1681.44 67.5124 Q1687.35 67.5124 1690.72 62.8538 Q1694.12 58.1548 1694.12 49.9314 Z" fill="#000000" fill-rule="evenodd" fill-opacity="1" /><path clip-path="url(#clip010)" d="M 0 0 M1738.6 28.5427 L1738.6 35.5912 Q1735.44 33.9709 1732.03 33.1607 Q1728.63 32.3505 1724.99 32.3505 Q1719.44 32.3505 1716.64 34.0519 Q1713.89 35.7533 1713.89 39.156 Q1713.89 41.7486 1715.87 43.2475 Q1717.86 44.7058 1723.85 46.0426 L1726.4 46.6097 Q1734.34 48.3111 1737.67 51.4303 Q1741.03 54.509 1741.03 60.0587 Q1741.03 66.3781 1736 70.0644 Q1731.02 73.7508 1722.27 73.7508 Q1718.63 73.7508 1714.66 73.0216 Q1710.73 72.3329 1706.35 70.9151 L1706.35 63.2184 Q1710.48 65.3654 1714.49 66.4591 Q1718.5 67.5124 1722.43 67.5124 Q1727.7 67.5124 1730.54 65.73 Q1733.37 63.9071 1733.37 60.6258 Q1733.37 57.5877 1731.31 55.9673 Q1729.28 54.3469 1722.35 52.8481 L1719.76 52.2405 Q1712.83 50.7821 1709.75 47.7845 Q1706.68 44.7463 1706.68 39.4801 Q1706.68 33.0797 1711.21 29.5959 Q1715.75 26.1121 1724.09 26.1121 Q1728.23 26.1121 1731.87 26.7198 Q1735.52 27.3274 1738.6 28.5427 Z" fill="#000000" fill-rule="evenodd" fill-opacity="1" /><path clip-path="url(#clip010)" d="M 0 0 M1061.69 102.816 L1069.87 102.816 L1069.87 127.608 L1099.61 127.608 L1099.61 102.816 L1107.79 102.816 L1107.79 163.296 L1099.61 163.296 L1099.61 134.494 L1069.87 134.494 L1069.87 163.296 L1061.69 163.296 L1061.69 102.816 Z" fill="#000000" fill-rule="evenodd" fill-opacity="1" /><path clip-path="url(#clip010)" d="M 0 0 M1133.19 123.152 Q1127.19 123.152 1123.71 127.851 Q1120.23 132.509 1120.23 140.651 Q1120.23 148.794 1123.67 153.493 Q1127.15 158.151 1133.19 158.151 Q1139.14 158.151 1142.63 153.452 Q1146.11 148.753 1146.11 140.651 Q1146.11 132.59 1142.63 127.891 Q1139.14 123.152 1133.19 123.152 M1133.19 116.832 Q1142.91 116.832 1148.46 123.152 Q1154.01 129.471 1154.01 140.651 Q1154.01 151.791 1148.46 158.151 Q1142.91 164.471 1133.19 164.471 Q1123.43 164.471 1117.88 158.151 Q1112.37 151.791 1112.37 140.651 Q1112.37 129.471 1117.88 123.152 Q1123.43 116.832 1133.19 116.832 Z" fill="#000000" fill-rule="evenodd" fill-opacity="1" /><path clip-path="url(#clip010)" d="M 0 0 M1179.41 123.152 Q1173.41 123.152 1169.93 127.851 Q1166.45 132.509 1166.45 140.651 Q1166.45 148.794 1169.89 153.493 Q1173.37 158.151 1179.41 158.151 Q1185.36 158.151 1188.85 153.452 Q1192.33 148.753 1192.33 140.651 Q1192.33 132.59 1188.85 127.891 Q1185.36 123.152 1179.41 123.152 M1179.41 116.832 Q1189.13 116.832 1194.68 123.152 Q1200.23 129.471 1200.23 140.651 Q1200.23 151.791 1194.68 158.151 Q1189.13 164.471 1179.41 164.471 Q1169.65 164.471 1164.1 158.151 Q1158.59 151.791 1158.59 140.651 Q1158.59 129.471 1164.1 123.152 Q1169.65 116.832 1179.41 116.832 Z" fill="#000000" fill-rule="evenodd" fill-opacity="1" /><path clip-path="url(#clip010)" d="M 0 0 M1207.77 100.264 L1215.26 100.264 L1215.26 137.492 L1237.5 117.926 L1247.02 117.926 L1222.96 139.153 L1248.03 163.296 L1238.31 163.296 L1215.26 141.138 L1215.26 163.296 L1207.77 163.296 L1207.77 100.264 Z" fill="#000000" fill-rule="evenodd" fill-opacity="1" /><path clip-path="url(#clip010)" d="M 0 0 M1291.7 138.748 L1291.7 142.393 L1257.43 142.393 Q1257.92 150.09 1262.05 154.141 Q1266.22 158.151 1273.63 158.151 Q1277.93 158.151 1281.94 157.098 Q1285.99 156.045 1289.96 153.938 L1289.96 160.987 Q1285.95 162.688 1281.74 163.58 Q1277.52 164.471 1273.19 164.471 Q1262.33 164.471 1255.97 158.151 Q1249.65 151.832 1249.65 141.057 Q1249.65 129.917 1255.65 123.395 Q1261.68 116.832 1271.89 116.832 Q1281.05 116.832 1286.35 122.746 Q1291.7 128.62 1291.7 138.748 M1284.25 136.56 Q1284.17 130.443 1280.8 126.797 Q1277.48 123.152 1271.97 123.152 Q1265.73 123.152 1261.97 126.676 Q1258.24 130.2 1257.67 136.601 L1284.25 136.56 Z" fill="#000000" fill-rule="evenodd" fill-opacity="1" /><path clip-path="url(#clip010)" d="M 0 0 M1295.75 137.249 L1317.59 137.249 L1317.59 143.892 L1295.75 143.892 L1295.75 137.249 Z" fill="#000000" fill-rule="evenodd" fill-opacity="1" /><path clip-path="url(#clip010)" d="M 0 0 M1330.35 102.816 L1338.53 102.816 L1338.53 159.083 Q1338.53 170.021 1334.36 174.963 Q1330.23 179.905 1321.03 179.905 L1317.91 179.905 L1317.91 173.018 L1320.46 173.018 Q1325.89 173.018 1328.12 169.98 Q1330.35 166.942 1330.35 159.083 L1330.35 102.816 Z" fill="#000000" fill-rule="evenodd" fill-opacity="1" /><path clip-path="url(#clip010)" d="M 0 0 M1385.16 138.748 L1385.16 142.393 L1350.88 142.393 Q1351.37 150.09 1355.5 154.141 Q1359.68 158.151 1367.09 158.151 Q1371.38 158.151 1375.39 157.098 Q1379.44 156.045 1383.41 153.938 L1383.41 160.987 Q1379.4 162.688 1375.19 163.58 Q1370.98 164.471 1366.64 164.471 Q1355.79 164.471 1349.43 158.151 Q1343.11 151.832 1343.11 141.057 Q1343.11 129.917 1349.1 123.395 Q1355.14 116.832 1365.35 116.832 Q1374.5 116.832 1379.81 122.746 Q1385.16 128.62 1385.16 138.748 M1377.7 136.56 Q1377.62 130.443 1374.26 126.797 Q1370.94 123.152 1365.43 123.152 Q1359.19 123.152 1355.42 126.676 Q1351.69 130.2 1351.13 136.601 L1377.7 136.56 Z" fill="#000000" fill-rule="evenodd" fill-opacity="1" /><path clip-path="url(#clip010)" d="M 0 0 M1431.78 138.748 L1431.78 142.393 L1397.51 142.393 Q1398 150.09 1402.13 154.141 Q1406.3 158.151 1413.71 158.151 Q1418.01 158.151 1422.02 157.098 Q1426.07 156.045 1430.04 153.938 L1430.04 160.987 Q1426.03 162.688 1421.82 163.58 Q1417.6 164.471 1413.27 164.471 Q1402.41 164.471 1396.05 158.151 Q1389.73 151.832 1389.73 141.057 Q1389.73 129.917 1395.73 123.395 Q1401.76 116.832 1411.97 116.832 Q1421.13 116.832 1426.43 122.746 Q1431.78 128.62 1431.78 138.748 M1424.33 136.56 Q1424.25 130.443 1420.88 126.797 Q1417.56 123.152 1412.05 123.152 Q1405.81 123.152 1402.05 126.676 Q1398.32 130.2 1397.75 136.601 L1424.33 136.56 Z" fill="#000000" fill-rule="evenodd" fill-opacity="1" /><path clip-path="url(#clip010)" d="M 0 0 M1434.25 117.926 L1442.15 117.926 L1456.33 156.004 L1470.51 117.926 L1478.41 117.926 L1461.39 163.296 L1451.27 163.296 L1434.25 117.926 Z" fill="#000000" fill-rule="evenodd" fill-opacity="1" /><path clip-path="url(#clip010)" d="M 0 0 M1525.03 138.748 L1525.03 142.393 L1490.76 142.393 Q1491.25 150.09 1495.38 154.141 Q1499.55 158.151 1506.97 158.151 Q1511.26 158.151 1515.27 157.098 Q1519.32 156.045 1523.29 153.938 L1523.29 160.987 Q1519.28 162.688 1515.07 163.58 Q1510.85 164.471 1506.52 164.471 Q1495.66 164.471 1489.3 158.151 Q1482.98 151.832 1482.98 141.057 Q1482.98 129.917 1488.98 123.395 Q1495.02 116.832 1505.22 116.832 Q1514.38 116.832 1519.69 122.746 Q1525.03 128.62 1525.03 138.748 M1517.58 136.56 Q1517.5 130.443 1514.14 126.797 Q1510.81 123.152 1505.31 123.152 Q1499.07 123.152 1495.3 126.676 Q1491.57 130.2 1491.01 136.601 L1517.58 136.56 Z" fill="#000000" fill-rule="evenodd" fill-opacity="1" /><path clip-path="url(#clip010)" d="M 0 0 M1561.77 119.263 L1561.77 126.311 Q1558.62 124.691 1555.21 123.881 Q1551.81 123.071 1548.16 123.071 Q1542.61 123.071 1539.82 124.772 Q1537.06 126.473 1537.06 129.876 Q1537.06 132.469 1539.05 133.967 Q1541.03 135.426 1547.03 136.763 L1549.58 137.33 Q1557.52 139.031 1560.84 142.15 Q1564.21 145.229 1564.21 150.779 Q1564.21 157.098 1559.18 160.784 Q1554.2 164.471 1545.45 164.471 Q1541.8 164.471 1537.83 163.742 Q1533.9 163.053 1529.53 161.635 L1529.53 153.938 Q1533.66 156.085 1537.67 157.179 Q1541.68 158.232 1545.61 158.232 Q1550.88 158.232 1553.71 156.45 Q1556.55 154.627 1556.55 151.346 Q1556.55 148.308 1554.48 146.687 Q1552.46 145.067 1545.53 143.568 L1542.94 142.96 Q1536.01 141.502 1532.93 138.504 Q1529.85 135.466 1529.85 130.2 Q1529.85 123.8 1534.39 120.316 Q1538.93 116.832 1547.27 116.832 Q1551.4 116.832 1555.05 117.44 Q1558.7 118.047 1561.77 119.263 Z" fill="#000000" fill-rule="evenodd" fill-opacity="1" /><polyline clip-path="url(#clip012)" style="stroke:#009af9; stroke-width:12; stroke-opacity:1; fill:none" points="
  331.997,371.784 440.992,371.784 549.986,371.784 
  "/>
<circle clip-path="url(#clip012)" cx="331.997" cy="371.784" r="10" fill="#009af9" fill-rule="evenodd" fill-opacity="1" stroke="#000000" stroke-opacity="1" stroke-width="3.2"/>
<circle clip-path="url(#clip012)" cx="440.992" cy="371.784" r="10" fill="#009af9" fill-rule="evenodd" fill-opacity="1" stroke="#000000" stroke-opacity="1" stroke-width="3.2"/>
<circle clip-path="url(#clip012)" cx="549.986" cy="371.784" r="10" fill="#009af9" fill-rule="evenodd" fill-opacity="1" stroke="#000000" stroke-opacity="1" stroke-width="3.2"/>
<polyline clip-path="url(#clip012)" style="stroke:#e26f46; stroke-width:12; stroke-opacity:1; fill:none" points="
  331.997,219.025 440.992,289.844 549.986,252.472 658.981,297.223 767.975,424.675 876.97,619.288 985.964,995.119 1094.96,619.288 1203.95,619.288 1312.95,632.628 
  1421.94,649.419 1530.94,672.509 1639.93,720.737 1748.93,796.231 1857.92,890.61 1966.92,1041.2 2075.91,1388.11 2184.9,1065.76 2293.9,1065.76 
  "/>
<circle clip-path="url(#clip012)" cx="331.997" cy="219.025" r="10" fill="#e26f46" fill-rule="evenodd" fill-opacity="1" stroke="#000000" stroke-opacity="1" stroke-width="3.2"/>
<circle clip-path="url(#clip012)" cx="440.992" cy="289.844" r="10" fill="#e26f46" fill-rule="evenodd" fill-opacity="1" stroke="#000000" stroke-opacity="1" stroke-width="3.2"/>
<circle clip-path="url(#clip012)" cx="549.986" cy="252.472" r="10" fill="#e26f46" fill-rule="evenodd" fill-opacity="1" stroke="#000000" stroke-opacity="1" stroke-width="3.2"/>
<circle clip-path="url(#clip012)" cx="658.981" cy="297.223" r="10" fill="#e26f46" fill-rule="evenodd" fill-opacity="1" stroke="#000000" stroke-opacity="1" stroke-width="3.2"/>
<circle clip-path="url(#clip012)" cx="767.975" cy="424.675" r="10" fill="#e26f46" fill-rule="evenodd" fill-opacity="1" stroke="#000000" stroke-opacity="1" stroke-width="3.2"/>
<circle clip-path="url(#clip012)" cx="876.97" cy="619.288" r="10" fill="#e26f46" fill-rule="evenodd" fill-opacity="1" stroke="#000000" stroke-opacity="1" stroke-width="3.2"/>
<circle clip-path="url(#clip012)" cx="985.964" cy="995.119" r="10" fill="#e26f46" fill-rule="evenodd" fill-opacity="1" stroke="#000000" stroke-opacity="1" stroke-width="3.2"/>
<circle clip-path="url(#clip012)" cx="1094.96" cy="619.288" r="10" fill="#e26f46" fill-rule="evenodd" fill-opacity="1" stroke="#000000" stroke-opacity="1" stroke-width="3.2"/>
<circle clip-path="url(#clip012)" cx="1203.95" cy="619.288" r="10" fill="#e26f46" fill-rule="evenodd" fill-opacity="1" stroke="#000000" stroke-opacity="1" stroke-width="3.2"/>
<circle clip-path="url(#clip012)" cx="1312.95" cy="632.628" r="10" fill="#e26f46" fill-rule="evenodd" fill-opacity="1" stroke="#000000" stroke-opacity="1" stroke-width="3.2"/>
<circle clip-path="url(#clip012)" cx="1421.94" cy="649.419" r="10" fill="#e26f46" fill-rule="evenodd" fill-opacity="1" stroke="#000000" stroke-opacity="1" stroke-width="3.2"/>
<circle clip-path="url(#clip012)" cx="1530.94" cy="672.509" r="10" fill="#e26f46" fill-rule="evenodd" fill-opacity="1" stroke="#000000" stroke-opacity="1" stroke-width="3.2"/>
<circle clip-path="url(#clip012)" cx="1639.93" cy="720.737" r="10" fill="#e26f46" fill-rule="evenodd" fill-opacity="1" stroke="#000000" stroke-opacity="1" stroke-width="3.2"/>
<circle clip-path="url(#clip012)" cx="1748.93" cy="796.231" r="10" fill="#e26f46" fill-rule="evenodd" fill-opacity="1" stroke="#000000" stroke-opacity="1" stroke-width="3.2"/>
<circle clip-path="url(#clip012)" cx="1857.92" cy="890.61" r="10" fill="#e26f46" fill-rule="evenodd" fill-opacity="1" stroke="#000000" stroke-opacity="1" stroke-width="3.2"/>
<circle clip-path="url(#clip012)" cx="1966.92" cy="1041.2" r="10" fill="#e26f46" fill-rule="evenodd" fill-opacity="1" stroke="#000000" stroke-opacity="1" stroke-width="3.2"/>
<circle clip-path="url(#clip012)" cx="2075.91" cy="1388.11" r="10" fill="#e26f46" fill-rule="evenodd" fill-opacity="1" stroke="#000000" stroke-opacity="1" stroke-width="3.2"/>
<circle clip-path="url(#clip012)" cx="2184.9" cy="1065.76" r="10" fill="#e26f46" fill-rule="evenodd" fill-opacity="1" stroke="#000000" stroke-opacity="1" stroke-width="3.2"/>
<circle clip-path="url(#clip012)" cx="2293.9" cy="1065.76" r="10" fill="#e26f46" fill-rule="evenodd" fill-opacity="1" stroke="#000000" stroke-opacity="1" stroke-width="3.2"/>
<polyline clip-path="url(#clip012)" style="stroke:#3da44d; stroke-width:12; stroke-opacity:1; fill:none" points="
  331.997,254.441 440.992,254.441 549.986,254.441 
  "/>
<circle clip-path="url(#clip012)" cx="331.997" cy="254.441" r="10" fill="#3da44d" fill-rule="evenodd" fill-opacity="1" stroke="#000000" stroke-opacity="1" stroke-width="3.2"/>
<circle clip-path="url(#clip012)" cx="440.992" cy="254.441" r="10" fill="#3da44d" fill-rule="evenodd" fill-opacity="1" stroke="#000000" stroke-opacity="1" stroke-width="3.2"/>
<circle clip-path="url(#clip012)" cx="549.986" cy="254.441" r="10" fill="#3da44d" fill-rule="evenodd" fill-opacity="1" stroke="#000000" stroke-opacity="1" stroke-width="3.2"/>
<path clip-path="url(#clip010)" d="
M1766.79 467.18 L2283.44 467.18 L2283.44 225.26 L1766.79 225.26  Z
  " fill="#ffffff" fill-rule="evenodd" fill-opacity="1"/>
<polyline clip-path="url(#clip010)" style="stroke:#000000; stroke-width:4; stroke-opacity:1; fill:none" points="
  1766.79,467.18 2283.44,467.18 2283.44,225.26 1766.79,225.26 1766.79,467.18 
  "/>
<polyline clip-path="url(#clip010)" style="stroke:#009af9; stroke-width:4; stroke-opacity:1; fill:none" points="
  1789.9,285.74 1928.54,285.74 
  "/>
<circle clip-path="url(#clip010)" cx="1859.22" cy="285.74" r="23" fill="#009af9" fill-rule="evenodd" fill-opacity="1" stroke="#000000" stroke-opacity="1" stroke-width="6.82667"/>
<path clip-path="url(#clip010)" d="M 0 0 M1951.64 268.46 L1956.32 268.46 L1956.32 303.02 L1951.64 303.02 L1951.64 268.46 Z" fill="#000000" fill-rule="evenodd" fill-opacity="1" /><path clip-path="url(#clip010)" d="M 0 0 M1982.34 287.372 L1982.34 303.02 L1978.08 303.02 L1978.08 287.511 Q1978.08 283.83 1976.64 282.001 Q1975.21 280.173 1972.34 280.173 Q1968.89 280.173 1966.9 282.372 Q1964.91 284.571 1964.91 288.367 L1964.91 303.02 L1960.63 303.02 L1960.63 277.094 L1964.91 277.094 L1964.91 281.122 Q1966.44 278.784 1968.5 277.626 Q1970.58 276.469 1973.29 276.469 Q1977.76 276.469 1980.05 279.247 Q1982.34 282.001 1982.34 287.372 Z" fill="#000000" fill-rule="evenodd" fill-opacity="1" /><path clip-path="url(#clip010)" d="M 0 0 M1986.81 277.094 L1991.07 277.094 L1991.07 303.02 L1986.81 303.02 L1986.81 277.094 M1986.81 267.001 L1991.07 267.001 L1991.07 272.395 L1986.81 272.395 L1986.81 267.001 Z" fill="#000000" fill-rule="evenodd" fill-opacity="1" /><path clip-path="url(#clip010)" d="M 0 0 M1999.75 269.733 L1999.75 277.094 L2008.52 277.094 L2008.52 280.404 L1999.75 280.404 L1999.75 294.478 Q1999.75 297.649 2000.6 298.552 Q2001.48 299.455 2004.14 299.455 L2008.52 299.455 L2008.52 303.02 L2004.14 303.02 Q1999.21 303.02 1997.34 301.191 Q1995.46 299.339 1995.46 294.478 L1995.46 280.404 L1992.34 280.404 L1992.34 277.094 L1995.46 277.094 L1995.46 269.733 L1999.75 269.733 Z" fill="#000000" fill-rule="evenodd" fill-opacity="1" /><path clip-path="url(#clip010)" d="M 0 0 M2012.99 277.094 L2017.25 277.094 L2017.25 303.02 L2012.99 303.02 L2012.99 277.094 M2012.99 267.001 L2017.25 267.001 L2017.25 272.395 L2012.99 272.395 L2012.99 267.001 Z" fill="#000000" fill-rule="evenodd" fill-opacity="1" /><path clip-path="url(#clip010)" d="M 0 0 M2033.5 289.987 Q2028.33 289.987 2026.34 291.168 Q2024.35 292.348 2024.35 295.196 Q2024.35 297.464 2025.83 298.807 Q2027.34 300.126 2029.91 300.126 Q2033.45 300.126 2035.58 297.626 Q2037.73 295.103 2037.73 290.936 L2037.73 289.987 L2033.5 289.987 M2041.99 288.228 L2041.99 303.02 L2037.73 303.02 L2037.73 299.085 Q2036.27 301.446 2034.1 302.58 Q2031.92 303.691 2028.77 303.691 Q2024.79 303.691 2022.43 301.469 Q2020.09 299.223 2020.09 295.473 Q2020.09 291.098 2023.01 288.876 Q2025.95 286.654 2031.76 286.654 L2037.73 286.654 L2037.73 286.237 Q2037.73 283.298 2035.79 281.7 Q2033.87 280.08 2030.37 280.08 Q2028.15 280.08 2026.04 280.612 Q2023.94 281.145 2021.99 282.21 L2021.99 278.274 Q2024.33 277.372 2026.53 276.932 Q2028.73 276.469 2030.81 276.469 Q2036.44 276.469 2039.21 279.386 Q2041.99 282.302 2041.99 288.228 Z" fill="#000000" fill-rule="evenodd" fill-opacity="1" /><path clip-path="url(#clip010)" d="M 0 0 M2046.46 267.001 L2050.72 267.001 L2050.72 303.02 L2046.46 303.02 L2046.46 267.001 Z" fill="#000000" fill-rule="evenodd" fill-opacity="1" /><path clip-path="url(#clip010)" d="M 0 0 M2094 298.089 L2094 288.807 L2086.37 288.807 L2086.37 284.964 L2098.63 284.964 L2098.63 299.802 Q2095.93 301.723 2092.66 302.719 Q2089.4 303.691 2085.69 303.691 Q2077.59 303.691 2073.01 298.969 Q2068.45 294.223 2068.45 285.774 Q2068.45 277.302 2073.01 272.58 Q2077.59 267.835 2085.69 267.835 Q2089.07 267.835 2092.11 268.668 Q2095.16 269.501 2097.73 271.122 L2097.73 276.099 Q2095.14 273.9 2092.22 272.788 Q2089.31 271.677 2086.09 271.677 Q2079.75 271.677 2076.55 275.219 Q2073.38 278.761 2073.38 285.774 Q2073.38 292.765 2076.55 296.307 Q2079.75 299.848 2086.09 299.848 Q2088.57 299.848 2090.51 299.432 Q2092.45 298.992 2094 298.089 Z" fill="#000000" fill-rule="evenodd" fill-opacity="1" /><path clip-path="url(#clip010)" d="M 0 0 M2102.66 292.788 L2102.66 277.094 L2106.92 277.094 L2106.92 292.626 Q2106.92 296.307 2108.36 298.159 Q2109.79 299.987 2112.66 299.987 Q2116.11 299.987 2118.1 297.788 Q2120.12 295.589 2120.12 291.793 L2120.12 277.094 L2124.38 277.094 L2124.38 303.02 L2120.12 303.02 L2120.12 299.038 Q2118.56 301.399 2116.5 302.557 Q2114.47 303.691 2111.76 303.691 Q2107.29 303.691 2104.98 300.913 Q2102.66 298.135 2102.66 292.788 M2113.38 276.469 L2113.38 276.469 Z" fill="#000000" fill-rule="evenodd" fill-opacity="1" /><path clip-path="url(#clip010)" d="M 0 0 M2151.02 288.992 L2151.02 291.075 L2131.44 291.075 Q2131.71 295.473 2134.07 297.788 Q2136.46 300.08 2140.69 300.08 Q2143.15 300.08 2145.44 299.478 Q2147.75 298.876 2150.02 297.673 L2150.02 301.7 Q2147.73 302.672 2145.32 303.182 Q2142.92 303.691 2140.44 303.691 Q2134.24 303.691 2130.6 300.08 Q2126.99 296.469 2126.99 290.311 Q2126.99 283.946 2130.42 280.219 Q2133.87 276.469 2139.7 276.469 Q2144.93 276.469 2147.96 279.849 Q2151.02 283.205 2151.02 288.992 M2146.76 287.742 Q2146.71 284.247 2144.79 282.163 Q2142.89 280.08 2139.75 280.08 Q2136.18 280.08 2134.03 282.094 Q2131.9 284.108 2131.57 287.765 L2146.76 287.742 Z" fill="#000000" fill-rule="evenodd" fill-opacity="1" /><path clip-path="url(#clip010)" d="M 0 0 M2172.01 277.858 L2172.01 281.886 Q2170.21 280.96 2168.26 280.497 Q2166.32 280.034 2164.24 280.034 Q2161.06 280.034 2159.47 281.006 Q2157.89 281.978 2157.89 283.923 Q2157.89 285.404 2159.03 286.261 Q2160.16 287.094 2163.59 287.858 L2165.05 288.182 Q2169.58 289.154 2171.48 290.936 Q2173.4 292.696 2173.4 295.867 Q2173.4 299.478 2170.53 301.585 Q2167.69 303.691 2162.69 303.691 Q2160.6 303.691 2158.33 303.274 Q2156.09 302.881 2153.59 302.071 L2153.59 297.673 Q2155.95 298.899 2158.24 299.524 Q2160.53 300.126 2162.78 300.126 Q2165.79 300.126 2167.41 299.108 Q2169.03 298.066 2169.03 296.191 Q2169.03 294.455 2167.85 293.529 Q2166.69 292.603 2162.73 291.747 L2161.25 291.399 Q2157.29 290.566 2155.53 288.853 Q2153.77 287.117 2153.77 284.108 Q2153.77 280.45 2156.37 278.46 Q2158.96 276.469 2163.73 276.469 Q2166.09 276.469 2168.17 276.816 Q2170.25 277.163 2172.01 277.858 Z" fill="#000000" fill-rule="evenodd" fill-opacity="1" /><path clip-path="url(#clip010)" d="M 0 0 M2194.4 277.858 L2194.4 281.886 Q2192.59 280.96 2190.65 280.497 Q2188.7 280.034 2186.62 280.034 Q2183.45 280.034 2181.85 281.006 Q2180.28 281.978 2180.28 283.923 Q2180.28 285.404 2181.41 286.261 Q2182.55 287.094 2185.97 287.858 L2187.43 288.182 Q2191.97 289.154 2193.87 290.936 Q2195.79 292.696 2195.79 295.867 Q2195.79 299.478 2192.92 301.585 Q2190.07 303.691 2185.07 303.691 Q2182.99 303.691 2180.72 303.274 Q2178.47 302.881 2175.97 302.071 L2175.97 297.673 Q2178.33 298.899 2180.62 299.524 Q2182.92 300.126 2185.16 300.126 Q2188.17 300.126 2189.79 299.108 Q2191.41 298.066 2191.41 296.191 Q2191.41 294.455 2190.23 293.529 Q2189.07 292.603 2185.12 291.747 L2183.63 291.399 Q2179.68 290.566 2177.92 288.853 Q2176.16 287.117 2176.16 284.108 Q2176.16 280.45 2178.75 278.46 Q2181.34 276.469 2186.11 276.469 Q2188.47 276.469 2190.56 276.816 Q2192.64 277.163 2194.4 277.858 Z" fill="#000000" fill-rule="evenodd" fill-opacity="1" /><path clip-path="url(#clip010)" d="M 0 0 M2216.74 299.085 L2224.37 299.085 L2224.37 272.719 L2216.06 274.386 L2216.06 270.126 L2224.33 268.46 L2229 268.46 L2229 299.085 L2236.64 299.085 L2236.64 303.02 L2216.74 303.02 L2216.74 299.085 Z" fill="#000000" fill-rule="evenodd" fill-opacity="1" /><polyline clip-path="url(#clip010)" style="stroke:#e26f46; stroke-width:4; stroke-opacity:1; fill:none" points="
  1789.9,346.22 1928.54,346.22 
  "/>
<circle clip-path="url(#clip010)" cx="1859.22" cy="346.22" r="23" fill="#e26f46" fill-rule="evenodd" fill-opacity="1" stroke="#000000" stroke-opacity="1" stroke-width="6.82667"/>
<path clip-path="url(#clip010)" d="M 0 0 M1951.64 328.94 L1956.32 328.94 L1956.32 363.5 L1951.64 363.5 L1951.64 328.94 Z" fill="#000000" fill-rule="evenodd" fill-opacity="1" /><path clip-path="url(#clip010)" d="M 0 0 M1982.34 347.852 L1982.34 363.5 L1978.08 363.5 L1978.08 347.991 Q1978.08 344.31 1976.64 342.481 Q1975.21 340.653 1972.34 340.653 Q1968.89 340.653 1966.9 342.852 Q1964.91 345.051 1964.91 348.847 L1964.91 363.5 L1960.63 363.5 L1960.63 337.574 L1964.91 337.574 L1964.91 341.602 Q1966.44 339.264 1968.5 338.106 Q1970.58 336.949 1973.29 336.949 Q1977.76 336.949 1980.05 339.727 Q1982.34 342.481 1982.34 347.852 Z" fill="#000000" fill-rule="evenodd" fill-opacity="1" /><path clip-path="url(#clip010)" d="M 0 0 M1986.81 337.574 L1991.07 337.574 L1991.07 363.5 L1986.81 363.5 L1986.81 337.574 M1986.81 327.481 L1991.07 327.481 L1991.07 332.875 L1986.81 332.875 L1986.81 327.481 Z" fill="#000000" fill-rule="evenodd" fill-opacity="1" /><path clip-path="url(#clip010)" d="M 0 0 M1999.75 330.213 L1999.75 337.574 L2008.52 337.574 L2008.52 340.884 L1999.75 340.884 L1999.75 354.958 Q1999.75 358.129 2000.6 359.032 Q2001.48 359.935 2004.14 359.935 L2008.52 359.935 L2008.52 363.5 L2004.14 363.5 Q1999.21 363.5 1997.34 361.671 Q1995.46 359.819 1995.46 354.958 L1995.46 340.884 L1992.34 340.884 L1992.34 337.574 L1995.46 337.574 L1995.46 330.213 L1999.75 330.213 Z" fill="#000000" fill-rule="evenodd" fill-opacity="1" /><path clip-path="url(#clip010)" d="M 0 0 M2012.99 337.574 L2017.25 337.574 L2017.25 363.5 L2012.99 363.5 L2012.99 337.574 M2012.99 327.481 L2017.25 327.481 L2017.25 332.875 L2012.99 332.875 L2012.99 327.481 Z" fill="#000000" fill-rule="evenodd" fill-opacity="1" /><path clip-path="url(#clip010)" d="M 0 0 M2033.5 350.467 Q2028.33 350.467 2026.34 351.648 Q2024.35 352.828 2024.35 355.676 Q2024.35 357.944 2025.83 359.287 Q2027.34 360.606 2029.91 360.606 Q2033.45 360.606 2035.58 358.106 Q2037.73 355.583 2037.73 351.416 L2037.73 350.467 L2033.5 350.467 M2041.99 348.708 L2041.99 363.5 L2037.73 363.5 L2037.73 359.565 Q2036.27 361.926 2034.1 363.06 Q2031.92 364.171 2028.77 364.171 Q2024.79 364.171 2022.43 361.949 Q2020.09 359.703 2020.09 355.953 Q2020.09 351.578 2023.01 349.356 Q2025.95 347.134 2031.76 347.134 L2037.73 347.134 L2037.73 346.717 Q2037.73 343.778 2035.79 342.18 Q2033.87 340.56 2030.37 340.56 Q2028.15 340.56 2026.04 341.092 Q2023.94 341.625 2021.99 342.69 L2021.99 338.754 Q2024.33 337.852 2026.53 337.412 Q2028.73 336.949 2030.81 336.949 Q2036.44 336.949 2039.21 339.866 Q2041.99 342.782 2041.99 348.708 Z" fill="#000000" fill-rule="evenodd" fill-opacity="1" /><path clip-path="url(#clip010)" d="M 0 0 M2046.46 327.481 L2050.72 327.481 L2050.72 363.5 L2046.46 363.5 L2046.46 327.481 Z" fill="#000000" fill-rule="evenodd" fill-opacity="1" /><path clip-path="url(#clip010)" d="M 0 0 M2094 358.569 L2094 349.287 L2086.37 349.287 L2086.37 345.444 L2098.63 345.444 L2098.63 360.282 Q2095.93 362.203 2092.66 363.199 Q2089.4 364.171 2085.69 364.171 Q2077.59 364.171 2073.01 359.449 Q2068.45 354.703 2068.45 346.254 Q2068.45 337.782 2073.01 333.06 Q2077.59 328.315 2085.69 328.315 Q2089.07 328.315 2092.11 329.148 Q2095.16 329.981 2097.73 331.602 L2097.73 336.579 Q2095.14 334.38 2092.22 333.268 Q2089.31 332.157 2086.09 332.157 Q2079.75 332.157 2076.55 335.699 Q2073.38 339.241 2073.38 346.254 Q2073.38 353.245 2076.55 356.787 Q2079.75 360.328 2086.09 360.328 Q2088.57 360.328 2090.51 359.912 Q2092.45 359.472 2094 358.569 Z" fill="#000000" fill-rule="evenodd" fill-opacity="1" /><path clip-path="url(#clip010)" d="M 0 0 M2102.66 353.268 L2102.66 337.574 L2106.92 337.574 L2106.92 353.106 Q2106.92 356.787 2108.36 358.639 Q2109.79 360.467 2112.66 360.467 Q2116.11 360.467 2118.1 358.268 Q2120.12 356.069 2120.12 352.273 L2120.12 337.574 L2124.38 337.574 L2124.38 363.5 L2120.12 363.5 L2120.12 359.518 Q2118.56 361.879 2116.5 363.037 Q2114.47 364.171 2111.76 364.171 Q2107.29 364.171 2104.98 361.393 Q2102.66 358.615 2102.66 353.268 M2113.38 336.949 L2113.38 336.949 Z" fill="#000000" fill-rule="evenodd" fill-opacity="1" /><path clip-path="url(#clip010)" d="M 0 0 M2151.02 349.472 L2151.02 351.555 L2131.44 351.555 Q2131.71 355.953 2134.07 358.268 Q2136.46 360.56 2140.69 360.56 Q2143.15 360.56 2145.44 359.958 Q2147.75 359.356 2150.02 358.153 L2150.02 362.18 Q2147.73 363.152 2145.32 363.662 Q2142.92 364.171 2140.44 364.171 Q2134.24 364.171 2130.6 360.56 Q2126.99 356.949 2126.99 350.791 Q2126.99 344.426 2130.42 340.699 Q2133.87 336.949 2139.7 336.949 Q2144.93 336.949 2147.96 340.329 Q2151.02 343.685 2151.02 349.472 M2146.76 348.222 Q2146.71 344.727 2144.79 342.643 Q2142.89 340.56 2139.75 340.56 Q2136.18 340.56 2134.03 342.574 Q2131.9 344.588 2131.57 348.245 L2146.76 348.222 Z" fill="#000000" fill-rule="evenodd" fill-opacity="1" /><path clip-path="url(#clip010)" d="M 0 0 M2172.01 338.338 L2172.01 342.366 Q2170.21 341.44 2168.26 340.977 Q2166.32 340.514 2164.24 340.514 Q2161.06 340.514 2159.47 341.486 Q2157.89 342.458 2157.89 344.403 Q2157.89 345.884 2159.03 346.741 Q2160.16 347.574 2163.59 348.338 L2165.05 348.662 Q2169.58 349.634 2171.48 351.416 Q2173.4 353.176 2173.4 356.347 Q2173.4 359.958 2170.53 362.065 Q2167.69 364.171 2162.69 364.171 Q2160.6 364.171 2158.33 363.754 Q2156.09 363.361 2153.59 362.551 L2153.59 358.153 Q2155.95 359.379 2158.24 360.004 Q2160.53 360.606 2162.78 360.606 Q2165.79 360.606 2167.41 359.588 Q2169.03 358.546 2169.03 356.671 Q2169.03 354.935 2167.85 354.009 Q2166.69 353.083 2162.73 352.227 L2161.25 351.879 Q2157.29 351.046 2155.53 349.333 Q2153.77 347.597 2153.77 344.588 Q2153.77 340.93 2156.37 338.94 Q2158.96 336.949 2163.73 336.949 Q2166.09 336.949 2168.17 337.296 Q2170.25 337.643 2172.01 338.338 Z" fill="#000000" fill-rule="evenodd" fill-opacity="1" /><path clip-path="url(#clip010)" d="M 0 0 M2194.4 338.338 L2194.4 342.366 Q2192.59 341.44 2190.65 340.977 Q2188.7 340.514 2186.62 340.514 Q2183.45 340.514 2181.85 341.486 Q2180.28 342.458 2180.28 344.403 Q2180.28 345.884 2181.41 346.741 Q2182.55 347.574 2185.97 348.338 L2187.43 348.662 Q2191.97 349.634 2193.87 351.416 Q2195.79 353.176 2195.79 356.347 Q2195.79 359.958 2192.92 362.065 Q2190.07 364.171 2185.07 364.171 Q2182.99 364.171 2180.72 363.754 Q2178.47 363.361 2175.97 362.551 L2175.97 358.153 Q2178.33 359.379 2180.62 360.004 Q2182.92 360.606 2185.16 360.606 Q2188.17 360.606 2189.79 359.588 Q2191.41 358.546 2191.41 356.671 Q2191.41 354.935 2190.23 354.009 Q2189.07 353.083 2185.12 352.227 L2183.63 351.879 Q2179.68 351.046 2177.92 349.333 Q2176.16 347.597 2176.16 344.588 Q2176.16 340.93 2178.75 338.94 Q2181.34 336.949 2186.11 336.949 Q2188.47 336.949 2190.56 337.296 Q2192.64 337.643 2194.4 338.338 Z" fill="#000000" fill-rule="evenodd" fill-opacity="1" /><path clip-path="url(#clip010)" d="M 0 0 M2219.95 359.565 L2236.27 359.565 L2236.27 363.5 L2214.33 363.5 L2214.33 359.565 Q2216.99 356.81 2221.57 352.18 Q2226.18 347.528 2227.36 346.185 Q2229.61 343.662 2230.49 341.926 Q2231.39 340.167 2231.39 338.477 Q2231.39 335.722 2229.44 333.986 Q2227.52 332.25 2224.42 332.25 Q2222.22 332.25 2219.77 333.014 Q2217.34 333.778 2214.56 335.329 L2214.56 330.606 Q2217.38 329.472 2219.84 328.893 Q2222.29 328.315 2224.33 328.315 Q2229.7 328.315 2232.89 331 Q2236.09 333.685 2236.09 338.176 Q2236.09 340.305 2235.28 342.227 Q2234.49 344.125 2232.38 346.717 Q2231.81 347.389 2228.7 350.606 Q2225.6 353.801 2219.95 359.565 Z" fill="#000000" fill-rule="evenodd" fill-opacity="1" /><polyline clip-path="url(#clip010)" style="stroke:#3da44d; stroke-width:4; stroke-opacity:1; fill:none" points="
  1789.9,406.7 1928.54,406.7 
  "/>
<circle clip-path="url(#clip010)" cx="1859.22" cy="406.7" r="23" fill="#3da44d" fill-rule="evenodd" fill-opacity="1" stroke="#000000" stroke-opacity="1" stroke-width="6.82667"/>
<path clip-path="url(#clip010)" d="M 0 0 M1951.64 389.42 L1956.32 389.42 L1956.32 423.98 L1951.64 423.98 L1951.64 389.42 Z" fill="#000000" fill-rule="evenodd" fill-opacity="1" /><path clip-path="url(#clip010)" d="M 0 0 M1982.34 408.332 L1982.34 423.98 L1978.08 423.98 L1978.08 408.471 Q1978.08 404.79 1976.64 402.961 Q1975.21 401.133 1972.34 401.133 Q1968.89 401.133 1966.9 403.332 Q1964.91 405.531 1964.91 409.327 L1964.91 423.98 L1960.63 423.98 L1960.63 398.054 L1964.91 398.054 L1964.91 402.082 Q1966.44 399.744 1968.5 398.586 Q1970.58 397.429 1973.29 397.429 Q1977.76 397.429 1980.05 400.207 Q1982.34 402.961 1982.34 408.332 Z" fill="#000000" fill-rule="evenodd" fill-opacity="1" /><path clip-path="url(#clip010)" d="M 0 0 M1986.81 398.054 L1991.07 398.054 L1991.07 423.98 L1986.81 423.98 L1986.81 398.054 M1986.81 387.961 L1991.07 387.961 L1991.07 393.355 L1986.81 393.355 L1986.81 387.961 Z" fill="#000000" fill-rule="evenodd" fill-opacity="1" /><path clip-path="url(#clip010)" d="M 0 0 M1999.75 390.693 L1999.75 398.054 L2008.52 398.054 L2008.52 401.364 L1999.75 401.364 L1999.75 415.438 Q1999.75 418.609 2000.6 419.512 Q2001.48 420.415 2004.14 420.415 L2008.52 420.415 L2008.52 423.98 L2004.14 423.98 Q1999.21 423.98 1997.34 422.151 Q1995.46 420.299 1995.46 415.438 L1995.46 401.364 L1992.34 401.364 L1992.34 398.054 L1995.46 398.054 L1995.46 390.693 L1999.75 390.693 Z" fill="#000000" fill-rule="evenodd" fill-opacity="1" /><path clip-path="url(#clip010)" d="M 0 0 M2012.99 398.054 L2017.25 398.054 L2017.25 423.98 L2012.99 423.98 L2012.99 398.054 M2012.99 387.961 L2017.25 387.961 L2017.25 393.355 L2012.99 393.355 L2012.99 387.961 Z" fill="#000000" fill-rule="evenodd" fill-opacity="1" /><path clip-path="url(#clip010)" d="M 0 0 M2033.5 410.947 Q2028.33 410.947 2026.34 412.128 Q2024.35 413.308 2024.35 416.156 Q2024.35 418.424 2025.83 419.767 Q2027.34 421.086 2029.91 421.086 Q2033.45 421.086 2035.58 418.586 Q2037.73 416.063 2037.73 411.896 L2037.73 410.947 L2033.5 410.947 M2041.99 409.188 L2041.99 423.98 L2037.73 423.98 L2037.73 420.045 Q2036.27 422.406 2034.1 423.54 Q2031.92 424.651 2028.77 424.651 Q2024.79 424.651 2022.43 422.429 Q2020.09 420.183 2020.09 416.433 Q2020.09 412.058 2023.01 409.836 Q2025.95 407.614 2031.76 407.614 L2037.73 407.614 L2037.73 407.197 Q2037.73 404.258 2035.79 402.66 Q2033.87 401.04 2030.37 401.04 Q2028.15 401.04 2026.04 401.572 Q2023.94 402.105 2021.99 403.17 L2021.99 399.234 Q2024.33 398.332 2026.53 397.892 Q2028.73 397.429 2030.81 397.429 Q2036.44 397.429 2039.21 400.346 Q2041.99 403.262 2041.99 409.188 Z" fill="#000000" fill-rule="evenodd" fill-opacity="1" /><path clip-path="url(#clip010)" d="M 0 0 M2046.46 387.961 L2050.72 387.961 L2050.72 423.98 L2046.46 423.98 L2046.46 387.961 Z" fill="#000000" fill-rule="evenodd" fill-opacity="1" /><path clip-path="url(#clip010)" d="M 0 0 M2094 419.049 L2094 409.767 L2086.37 409.767 L2086.37 405.924 L2098.63 405.924 L2098.63 420.762 Q2095.93 422.683 2092.66 423.679 Q2089.4 424.651 2085.69 424.651 Q2077.59 424.651 2073.01 419.929 Q2068.45 415.183 2068.45 406.734 Q2068.45 398.262 2073.01 393.54 Q2077.59 388.795 2085.69 388.795 Q2089.07 388.795 2092.11 389.628 Q2095.16 390.461 2097.73 392.082 L2097.73 397.059 Q2095.14 394.86 2092.22 393.748 Q2089.31 392.637 2086.09 392.637 Q2079.75 392.637 2076.55 396.179 Q2073.38 399.721 2073.38 406.734 Q2073.38 413.725 2076.55 417.267 Q2079.75 420.808 2086.09 420.808 Q2088.57 420.808 2090.51 420.392 Q2092.45 419.952 2094 419.049 Z" fill="#000000" fill-rule="evenodd" fill-opacity="1" /><path clip-path="url(#clip010)" d="M 0 0 M2102.66 413.748 L2102.66 398.054 L2106.92 398.054 L2106.92 413.586 Q2106.92 417.267 2108.36 419.119 Q2109.79 420.947 2112.66 420.947 Q2116.11 420.947 2118.1 418.748 Q2120.12 416.549 2120.12 412.753 L2120.12 398.054 L2124.38 398.054 L2124.38 423.98 L2120.12 423.98 L2120.12 419.998 Q2118.56 422.359 2116.5 423.517 Q2114.47 424.651 2111.76 424.651 Q2107.29 424.651 2104.98 421.873 Q2102.66 419.095 2102.66 413.748 M2113.38 397.429 L2113.38 397.429 Z" fill="#000000" fill-rule="evenodd" fill-opacity="1" /><path clip-path="url(#clip010)" d="M 0 0 M2151.02 409.952 L2151.02 412.035 L2131.44 412.035 Q2131.71 416.433 2134.07 418.748 Q2136.46 421.04 2140.69 421.04 Q2143.15 421.04 2145.44 420.438 Q2147.75 419.836 2150.02 418.633 L2150.02 422.66 Q2147.73 423.632 2145.32 424.142 Q2142.92 424.651 2140.44 424.651 Q2134.24 424.651 2130.6 421.04 Q2126.99 417.429 2126.99 411.271 Q2126.99 404.906 2130.42 401.179 Q2133.87 397.429 2139.7 397.429 Q2144.93 397.429 2147.96 400.809 Q2151.02 404.165 2151.02 409.952 M2146.76 408.702 Q2146.71 405.207 2144.79 403.123 Q2142.89 401.04 2139.75 401.04 Q2136.18 401.04 2134.03 403.054 Q2131.9 405.068 2131.57 408.725 L2146.76 408.702 Z" fill="#000000" fill-rule="evenodd" fill-opacity="1" /><path clip-path="url(#clip010)" d="M 0 0 M2172.01 398.818 L2172.01 402.846 Q2170.21 401.92 2168.26 401.457 Q2166.32 400.994 2164.24 400.994 Q2161.06 400.994 2159.47 401.966 Q2157.89 402.938 2157.89 404.883 Q2157.89 406.364 2159.03 407.221 Q2160.16 408.054 2163.59 408.818 L2165.05 409.142 Q2169.58 410.114 2171.48 411.896 Q2173.4 413.656 2173.4 416.827 Q2173.4 420.438 2170.53 422.545 Q2167.69 424.651 2162.69 424.651 Q2160.6 424.651 2158.33 424.234 Q2156.09 423.841 2153.59 423.031 L2153.59 418.633 Q2155.95 419.859 2158.24 420.484 Q2160.53 421.086 2162.78 421.086 Q2165.79 421.086 2167.41 420.068 Q2169.03 419.026 2169.03 417.151 Q2169.03 415.415 2167.85 414.489 Q2166.69 413.563 2162.73 412.707 L2161.25 412.359 Q2157.29 411.526 2155.53 409.813 Q2153.77 408.077 2153.77 405.068 Q2153.77 401.41 2156.37 399.42 Q2158.96 397.429 2163.73 397.429 Q2166.09 397.429 2168.17 397.776 Q2170.25 398.123 2172.01 398.818 Z" fill="#000000" fill-rule="evenodd" fill-opacity="1" /><path clip-path="url(#clip010)" d="M 0 0 M2194.4 398.818 L2194.4 402.846 Q2192.59 401.92 2190.65 401.457 Q2188.7 400.994 2186.62 400.994 Q2183.45 400.994 2181.85 401.966 Q2180.28 402.938 2180.28 404.883 Q2180.28 406.364 2181.41 407.221 Q2182.55 408.054 2185.97 408.818 L2187.43 409.142 Q2191.97 410.114 2193.87 411.896 Q2195.79 413.656 2195.79 416.827 Q2195.79 420.438 2192.92 422.545 Q2190.07 424.651 2185.07 424.651 Q2182.99 424.651 2180.72 424.234 Q2178.47 423.841 2175.97 423.031 L2175.97 418.633 Q2178.33 419.859 2180.62 420.484 Q2182.92 421.086 2185.16 421.086 Q2188.17 421.086 2189.79 420.068 Q2191.41 419.026 2191.41 417.151 Q2191.41 415.415 2190.23 414.489 Q2189.07 413.563 2185.12 412.707 L2183.63 412.359 Q2179.68 411.526 2177.92 409.813 Q2176.16 408.077 2176.16 405.068 Q2176.16 401.41 2178.75 399.42 Q2181.34 397.429 2186.11 397.429 Q2188.47 397.429 2190.56 397.776 Q2192.64 398.123 2194.4 398.818 Z" fill="#000000" fill-rule="evenodd" fill-opacity="1" /><path clip-path="url(#clip010)" d="M 0 0 M2230.09 405.346 Q2233.45 406.063 2235.32 408.332 Q2237.22 410.6 2237.22 413.933 Q2237.22 419.049 2233.7 421.85 Q2230.18 424.651 2223.7 424.651 Q2221.53 424.651 2219.21 424.211 Q2216.92 423.795 2214.47 422.938 L2214.47 418.424 Q2216.41 419.558 2218.73 420.137 Q2221.04 420.716 2223.56 420.716 Q2227.96 420.716 2230.25 418.98 Q2232.57 417.244 2232.57 413.933 Q2232.57 410.878 2230.42 409.165 Q2228.29 407.429 2224.47 407.429 L2220.44 407.429 L2220.44 403.586 L2224.65 403.586 Q2228.1 403.586 2229.93 402.221 Q2231.76 400.832 2231.76 398.239 Q2231.76 395.577 2229.86 394.165 Q2227.99 392.73 2224.47 392.73 Q2222.55 392.73 2220.35 393.147 Q2218.15 393.563 2215.51 394.443 L2215.51 390.276 Q2218.17 389.535 2220.49 389.165 Q2222.82 388.795 2224.88 388.795 Q2230.21 388.795 2233.31 391.225 Q2236.41 393.633 2236.41 397.753 Q2236.41 400.623 2234.77 402.614 Q2233.12 404.582 2230.09 405.346 Z" fill="#000000" fill-rule="evenodd" fill-opacity="1" /></svg>
